<svg xmlns="http://www.w3.org/2000/svg" xmlns:xlink="http://www.w3.org/1999/xlink" width="1920" zoomAndPan="magnify" viewBox="0 0 1440 809.999993" height="1080" preserveAspectRatio="xMidYMid meet" version="1.0"><defs><clipPath id="28833850d8"><path d="M 361.972656 138 L 752 138 L 752 489 L 361.972656 489 Z M 361.972656 138 " clip-rule="nonzero"/></clipPath><clipPath id="e0d2c92256"><path d="M 467.058594 287 L 987.472656 287 L 987.472656 688.371094 L 467.058594 688.371094 Z M 467.058594 287 " clip-rule="nonzero"/></clipPath></defs><path fill="#5ed45e" d="M 422.464844 270.640625 L 604.28125 433.429688 L 422.464844 433.429688 Z M 366.078125 142.710938 L 366.078125 484.191406 L 747.460938 484.191406 L 366.078125 142.710938 " fill-opacity="1" fill-rule="nonzero"/><g clip-path="url(#28833850d8)"><path fill="#1e243a" d="M 426.574219 429.324219 L 593.535156 429.324219 L 426.574219 279.828125 Z M 604.28125 437.542969 L 422.464844 437.542969 C 420.199219 437.542969 418.359375 435.699219 418.359375 433.429688 L 418.359375 270.640625 C 418.359375 269.019531 419.3125 267.550781 420.789062 266.890625 C 422.269531 266.226562 424 266.5 425.207031 267.578125 L 607.023438 430.371094 C 608.289062 431.511719 608.722656 433.308594 608.117188 434.898438 C 607.511719 436.492188 605.980469 437.542969 604.28125 437.542969 Z M 370.1875 480.085938 L 736.714844 480.085938 L 370.1875 151.902344 Z M 747.460938 488.300781 L 366.078125 488.300781 C 363.808594 488.300781 361.972656 486.464844 361.972656 484.191406 L 361.972656 142.710938 C 361.972656 141.089844 362.925781 139.625 364.402344 138.964844 C 365.882812 138.304688 367.613281 138.574219 368.820312 139.652344 L 750.199219 481.132812 C 751.46875 482.265625 751.902344 484.070312 751.296875 485.660156 C 750.6875 487.25 749.164062 488.300781 747.460938 488.300781 " fill-opacity="1" fill-rule="nonzero"/></g><path fill="#4a91d6" d="M 902.28125 371.671875 C 896.921875 363.617188 899.105469 352.738281 907.164062 347.375 C 915.21875 342.011719 926.097656 344.199219 931.457031 352.257812 C 936.816406 360.3125 934.632812 371.191406 926.574219 376.554688 C 918.519531 381.917969 907.644531 379.734375 902.28125 371.671875 Z M 921.488281 291.789062 L 471.558594 591.246094 L 533.4375 684.265625 L 983.367188 384.804688 L 921.488281 291.789062 " fill-opacity="1" fill-rule="nonzero"/><g clip-path="url(#e0d2c92256)"><path fill="#1e243a" d="M 916.851562 348.546875 C 914.300781 348.546875 911.71875 349.277344 909.4375 350.792969 C 906.457031 352.78125 904.421875 355.804688 903.71875 359.320312 C 903.011719 362.835938 903.714844 366.414062 905.703125 369.398438 C 907.6875 372.382812 910.710938 374.414062 914.226562 375.117188 C 917.738281 375.828125 921.316406 375.125 924.300781 373.132812 C 927.285156 371.148438 929.316406 368.125 930.019531 364.609375 C 930.726562 361.09375 930.023438 357.515625 928.035156 354.53125 C 925.457031 350.652344 921.195312 348.546875 916.851562 348.546875 Z M 916.914062 383.605469 C 915.480469 383.605469 914.046875 383.460938 912.609375 383.171875 C 906.945312 382.035156 902.0625 378.757812 898.863281 373.949219 C 895.660156 369.136719 894.527344 363.367188 895.667969 357.703125 C 896.804688 352.039062 900.078125 347.15625 904.886719 343.953125 C 914.816406 337.34375 928.269531 340.046875 934.878906 349.980469 C 938.078125 354.789062 939.210938 360.5625 938.074219 366.226562 C 936.933594 371.890625 933.660156 376.773438 928.851562 379.976562 C 925.261719 382.367188 921.132812 383.605469 916.914062 383.605469 Z M 477.25 592.390625 L 534.582031 678.570312 L 977.671875 383.664062 L 920.34375 297.484375 Z M 533.4375 688.371094 C 533.167969 688.371094 532.894531 688.34375 532.628906 688.292969 C 531.5625 688.078125 530.625 687.445312 530.015625 686.535156 L 468.136719 593.519531 C 466.882812 591.632812 467.394531 589.082031 469.285156 587.824219 L 919.210938 288.371094 C 920.121094 287.765625 921.230469 287.546875 922.300781 287.765625 C 923.363281 287.976562 924.300781 288.605469 924.910156 289.515625 L 986.785156 382.535156 C 988.039062 384.421875 987.53125 386.972656 985.640625 388.226562 L 535.710938 687.683594 C 535.03125 688.136719 534.238281 688.371094 533.4375 688.371094 " fill-opacity="1" fill-rule="nonzero"/></g><path fill="#1e243a" d="M 875.726562 354.644531 C 874.398438 354.644531 873.097656 354.003906 872.308594 352.808594 L 859.265625 333.203125 C 858.007812 331.316406 858.515625 328.765625 860.410156 327.511719 C 862.292969 326.253906 864.847656 326.765625 866.101562 328.652344 L 879.144531 348.257812 C 880.398438 350.152344 879.886719 352.699219 878 353.953125 C 877.300781 354.421875 876.511719 354.644531 875.726562 354.644531 " fill-opacity="1" fill-rule="nonzero"/><path fill="#1e243a" d="M 841.332031 377.539062 C 840 377.539062 838.703125 376.890625 837.910156 375.703125 L 824.867188 356.097656 C 823.613281 354.207031 824.125 351.660156 826.011719 350.398438 C 827.898438 349.144531 830.449219 349.65625 831.703125 351.546875 L 844.746094 371.152344 C 846.003906 373.039062 845.496094 375.59375 843.601562 376.847656 C 842.90625 377.3125 842.113281 377.539062 841.332031 377.539062 " fill-opacity="1" fill-rule="nonzero"/><path fill="#1e243a" d="M 772.539062 423.324219 C 771.210938 423.324219 769.90625 422.675781 769.113281 421.488281 L 756.070312 401.882812 C 754.816406 399.992188 755.328125 397.445312 757.214844 396.191406 C 759.105469 394.933594 761.65625 395.441406 762.914062 397.332031 L 775.957031 416.9375 C 777.210938 418.824219 776.699219 421.378906 774.8125 422.632812 C 774.109375 423.097656 773.324219 423.324219 772.539062 423.324219 " fill-opacity="1" fill-rule="nonzero"/><path fill="#1e243a" d="M 806.9375 400.429688 C 805.609375 400.429688 804.304688 399.789062 803.511719 398.59375 L 790.46875 378.988281 C 789.214844 377.101562 789.726562 374.550781 791.613281 373.296875 C 793.503906 372.039062 796.050781 372.550781 797.304688 374.4375 L 810.347656 394.042969 C 811.609375 395.9375 811.097656 398.484375 809.210938 399.742188 C 808.507812 400.207031 807.71875 400.429688 806.9375 400.429688 " fill-opacity="1" fill-rule="nonzero"/><path fill="#1e243a" d="M 738.144531 446.21875 C 736.8125 446.21875 735.515625 445.574219 734.722656 444.378906 L 721.679688 424.773438 C 720.421875 422.886719 720.933594 420.335938 722.824219 419.082031 C 724.710938 417.824219 727.261719 418.335938 728.515625 420.222656 L 741.558594 439.835938 C 742.816406 441.722656 742.300781 444.265625 740.414062 445.527344 C 739.714844 445.992188 738.925781 446.21875 738.144531 446.21875 " fill-opacity="1" fill-rule="nonzero"/><path fill="#1e243a" d="M 703.746094 469.109375 C 702.421875 469.109375 701.117188 468.460938 700.324219 467.273438 L 687.28125 447.667969 C 686.027344 445.777344 686.539062 443.230469 688.425781 441.976562 C 690.3125 440.71875 692.863281 441.226562 694.117188 443.117188 L 707.160156 462.722656 C 708.417969 464.609375 707.910156 467.164062 706.019531 468.417969 C 705.320312 468.882812 704.527344 469.109375 703.746094 469.109375 " fill-opacity="1" fill-rule="nonzero"/><path fill="#1e243a" d="M 600.558594 537.789062 C 599.226562 537.789062 597.929688 537.144531 597.136719 535.953125 L 584.09375 516.347656 C 582.839844 514.457031 583.351562 511.910156 585.238281 510.65625 C 587.125 509.394531 589.675781 509.90625 590.929688 511.800781 L 603.972656 531.402344 C 605.230469 533.289062 604.714844 535.84375 602.828125 537.097656 C 602.132812 537.5625 601.339844 537.789062 600.558594 537.789062 " fill-opacity="1" fill-rule="nonzero"/><path fill="#1e243a" d="M 669.351562 492.003906 C 668.023438 492.003906 666.71875 491.359375 665.925781 490.167969 L 652.882812 470.5625 C 651.628906 468.671875 652.140625 466.121094 654.027344 464.863281 C 655.917969 463.609375 658.464844 464.121094 659.726562 466.007812 L 672.769531 485.621094 C 674.023438 487.507812 673.511719 490.058594 671.621094 491.3125 C 670.921875 491.777344 670.128906 492.003906 669.351562 492.003906 " fill-opacity="1" fill-rule="nonzero"/><path fill="#1e243a" d="M 634.953125 514.894531 C 633.625 514.894531 632.320312 514.253906 631.535156 513.058594 L 618.492188 493.453125 C 617.230469 491.566406 617.742188 489.015625 619.636719 487.761719 C 621.519531 486.503906 624.070312 487.015625 625.328125 488.902344 L 638.371094 508.507812 C 639.625 510.402344 639.113281 512.949219 637.226562 514.203125 C 636.527344 514.671875 635.738281 514.894531 634.953125 514.894531 " fill-opacity="1" fill-rule="nonzero"/><path fill="#1e243a" d="M 566.160156 560.679688 C 564.835938 560.679688 563.53125 560.039062 562.738281 558.84375 L 549.695312 539.238281 C 548.441406 537.351562 548.953125 534.800781 550.839844 533.546875 C 552.726562 532.289062 555.277344 532.800781 556.53125 534.6875 L 569.574219 554.292969 C 570.832031 556.1875 570.324219 558.734375 568.433594 559.992188 C 567.734375 560.457031 566.941406 560.679688 566.160156 560.679688 " fill-opacity="1" fill-rule="nonzero"/><path fill="#1e243a" d="M 531.765625 583.574219 C 530.4375 583.574219 529.132812 582.925781 528.339844 581.738281 L 515.296875 562.132812 C 514.042969 560.242188 514.554688 557.695312 516.441406 556.441406 C 518.332031 555.183594 520.878906 555.691406 522.136719 557.582031 L 535.179688 577.1875 C 536.4375 579.074219 535.925781 581.628906 534.035156 582.882812 C 533.335938 583.347656 532.550781 583.574219 531.765625 583.574219 " fill-opacity="1" fill-rule="nonzero"/><path fill="#1e243a" d="M 608.097656 674.238281 C 606.78125 674.238281 605.488281 673.609375 604.695312 672.429688 C 603.425781 670.554688 603.917969 667.996094 605.796875 666.726562 L 632.648438 648.574219 C 634.53125 647.300781 637.082031 647.796875 638.351562 649.671875 C 639.621094 651.554688 639.128906 654.105469 637.25 655.375 L 610.394531 673.535156 C 609.691406 674.015625 608.894531 674.238281 608.097656 674.238281 " fill-opacity="1" fill-rule="nonzero"/><path fill="#1e243a" d="M 683.320312 623.378906 C 682 623.378906 680.703125 622.746094 679.914062 621.570312 C 678.640625 619.691406 679.136719 617.136719 681.015625 615.867188 L 957.320312 429.03125 C 959.203125 427.765625 961.753906 428.253906 963.023438 430.136719 C 964.296875 432.011719 963.800781 434.570312 961.921875 435.839844 L 685.617188 622.671875 C 684.910156 623.148438 684.109375 623.378906 683.320312 623.378906 " fill-opacity="1" fill-rule="nonzero"/><path fill="#fcd118" d="M 487.910156 206.519531 C 487.328125 226.644531 532.203125 274.394531 562.925781 278.265625 C 573.710938 279.625 605.472656 284.292969 617.679688 263.476562 C 648.445312 211 657.679688 166.253906 601.925781 141.484375 L 568.128906 188.378906 C 563.144531 193.992188 563.648438 202.585938 569.257812 207.574219 C 576.269531 213.808594 587.011719 213.175781 593.242188 206.164062 C 601.035156 197.394531 600.246094 183.972656 591.476562 176.175781 C 580.523438 166.433594 563.742188 167.421875 554 178.378906 C 541.828125 192.082031 543.058594 213.058594 556.757812 225.234375 C 573.878906 240.457031 600.097656 238.917969 615.316406 221.789062 C 634.339844 200.386719 632.410156 167.605469 611.011719 148.578125 C 584.253906 124.792969 537.40625 121.738281 513.628906 148.496094 C 483.90625 181.941406 482.417969 208.527344 508.023438 245.226562 C 549.832031 305.132812 670.597656 287.359375 707.742188 229.804688 C 721.136719 257.636719 731.554688 283.539062 731.570312 302.703125 C 646.550781 348.152344 598.695312 372.679688 514.144531 324.386719 C 498.09375 315.21875 484.898438 301.972656 484.898438 283.484375 L 489.804688 199.660156 L 487.910156 206.519531 " fill-opacity="1" fill-rule="nonzero"/><path fill="#1e243a" d="M 489.003906 283.601562 C 489.050781 298.027344 498.195312 310.542969 516.179688 320.820312 C 598.972656 368.109375 645.035156 344.300781 727.402344 300.269531 C 726.542969 282.367188 716.664062 258.394531 707.039062 237.886719 C 684.90625 266.40625 641.371094 285.6875 595.945312 286.515625 C 555.703125 287.238281 522.433594 273.050781 504.65625 247.578125 C 499.5 240.183594 495.394531 233.160156 492.355469 226.378906 Z M 599.59375 354.839844 C 571.851562 354.84375 544.003906 346.171875 512.109375 327.949219 C 491.328125 316.082031 480.789062 301.121094 480.789062 283.484375 C 480.789062 283.40625 480.792969 283.324219 480.796875 283.246094 L 485.703125 199.421875 C 485.71875 199.128906 485.769531 198.84375 485.847656 198.570312 C 485.847656 181.148438 494.042969 164.355469 510.558594 145.769531 C 522.589844 132.234375 540.601562 125.027344 561.292969 125.476562 C 580.78125 125.902344 599.898438 133.199219 613.738281 145.507812 C 636.796875 166.007812 638.878906 201.457031 618.382812 224.523438 C 610.292969 233.625 599.144531 239.027344 586.992188 239.742188 C 574.832031 240.457031 563.128906 236.394531 554.03125 228.304688 C 546.589844 221.6875 542.164062 212.566406 541.578125 202.617188 C 540.992188 192.675781 544.316406 183.097656 550.933594 175.652344 C 562.164062 163.015625 581.574219 161.875 594.203125 173.105469 C 599.265625 177.601562 602.273438 183.804688 602.667969 190.5625 C 603.070312 197.320312 600.804688 203.832031 596.3125 208.890625 C 588.585938 217.585938 575.222656 218.371094 566.53125 210.644531 C 562.996094 207.503906 560.898438 203.171875 560.617188 198.453125 C 560.34375 193.734375 561.917969 189.1875 565.058594 185.652344 C 566.566406 183.957031 569.160156 183.804688 570.855469 185.3125 C 572.550781 186.820312 572.703125 189.417969 571.199219 191.113281 C 569.515625 193.003906 568.671875 195.445312 568.816406 197.96875 C 568.96875 200.503906 570.09375 202.820312 571.984375 204.503906 C 577.296875 209.226562 585.453125 208.742188 590.171875 203.433594 C 593.210938 200.015625 594.738281 195.613281 594.46875 191.042969 C 594.199219 186.480469 592.171875 182.285156 588.75 179.246094 C 579.503906 171.023438 565.292969 171.859375 557.070312 181.105469 C 551.914062 186.914062 549.324219 194.382812 549.78125 202.140625 C 550.234375 209.890625 553.683594 217.003906 559.488281 222.164062 C 566.945312 228.796875 576.542969 232.128906 586.507812 231.539062 C 596.472656 230.960938 605.613281 226.527344 612.246094 219.0625 C 620.714844 209.53125 624.972656 197.265625 624.21875 184.535156 C 623.472656 171.800781 617.8125 160.125 608.277344 151.648438 C 584.03125 130.085938 539.710938 125.328125 516.703125 151.222656 C 488.417969 183.054688 486.976562 207.894531 511.390625 242.875 C 527.574219 266.0625 558.339844 278.988281 595.796875 278.296875 C 641.648438 277.46875 685.25 257.085938 704.292969 227.578125 C 705.097656 226.332031 706.515625 225.613281 707.996094 225.703125 C 709.480469 225.796875 710.796875 226.683594 711.441406 228.023438 C 723.417969 252.902344 735.660156 281.230469 735.675781 302.699219 C 735.675781 304.214844 734.84375 305.613281 733.503906 306.324219 C 692.957031 328.003906 657.933594 346.730469 623.386719 352.746094 C 615.40625 354.132812 607.5 354.839844 599.59375 354.839844 " fill-opacity="1" fill-rule="nonzero"/><path fill="#1e243a" d="M 570.058594 283.480469 C 567.523438 283.480469 564.949219 283.382812 562.339844 283.179688 C 560.074219 283.011719 558.386719 281.035156 558.554688 278.773438 C 558.726562 276.507812 560.703125 274.820312 562.964844 274.988281 C 565.429688 275.179688 567.835938 275.273438 570.171875 275.273438 C 608.625 275.273438 628.890625 250.402344 635.097656 226.0625 C 642.496094 197.027344 632.902344 159.9375 600.238281 145.230469 C 598.171875 144.300781 597.25 141.867188 598.183594 139.800781 C 599.109375 137.730469 601.542969 136.808594 603.613281 137.742188 C 620.246094 145.230469 632.765625 158.519531 639.820312 176.175781 C 646.300781 192.398438 647.449219 210.835938 643.050781 228.089844 C 638.746094 244.988281 629.625 259.105469 616.664062 268.910156 C 603.992188 278.503906 588 283.480469 570.058594 283.480469 " fill-opacity="1" fill-rule="nonzero"/><path fill="#1e243a" d="M 513.285156 322.167969 C 513.128906 322.167969 512.96875 322.164062 512.804688 322.144531 C 510.554688 321.878906 508.941406 319.839844 509.199219 317.585938 L 511.300781 299.488281 C 511.558594 297.234375 513.597656 295.617188 515.851562 295.878906 C 518.105469 296.140625 519.722656 298.175781 519.457031 300.429688 L 517.359375 318.535156 C 517.117188 320.628906 515.34375 322.167969 513.285156 322.167969 " fill-opacity="1" fill-rule="nonzero"/><path fill="#1e243a" d="M 538.515625 340.394531 C 538.355469 340.394531 538.199219 340.386719 538.035156 340.363281 C 535.785156 340.105469 534.167969 338.066406 534.429688 335.816406 L 536.527344 317.710938 C 536.789062 315.457031 538.828125 313.84375 541.082031 314.101562 C 543.332031 314.367188 544.945312 316.40625 544.6875 318.65625 L 542.589844 336.757812 C 542.347656 338.851562 540.574219 340.394531 538.515625 340.394531 " fill-opacity="1" fill-rule="nonzero"/><path fill="#1e243a" d="M 571.453125 349.503906 C 571.289062 349.503906 571.132812 349.496094 570.972656 349.476562 C 568.71875 349.21875 567.101562 347.179688 567.367188 344.925781 L 569.464844 326.820312 C 569.726562 324.566406 571.761719 322.949219 574.015625 323.214844 C 576.269531 323.476562 577.882812 325.515625 577.625 327.769531 L 575.523438 345.867188 C 575.285156 347.964844 573.503906 349.503906 571.453125 349.503906 " fill-opacity="1" fill-rule="nonzero"/><path fill="#1e243a" d="M 600.179688 349.503906 C 600.023438 349.503906 599.863281 349.496094 599.703125 349.476562 C 597.449219 349.21875 595.835938 347.179688 596.097656 344.925781 L 598.195312 326.820312 C 598.457031 324.566406 600.492188 322.949219 602.746094 323.214844 C 605 323.476562 606.617188 325.515625 606.351562 327.769531 L 604.257812 345.867188 C 604.011719 347.964844 602.238281 349.503906 600.179688 349.503906 " fill-opacity="1" fill-rule="nonzero"/><path fill="#1e243a" d="M 631.015625 343.898438 C 630.859375 343.898438 630.699219 343.890625 630.539062 343.871094 C 628.285156 343.609375 626.671875 341.574219 626.929688 339.320312 L 629.027344 321.214844 C 629.292969 318.960938 631.328125 317.34375 633.582031 317.605469 C 635.835938 317.871094 637.445312 319.910156 637.1875 322.164062 L 635.089844 340.261719 C 634.847656 342.359375 633.074219 343.898438 631.015625 343.898438 " fill-opacity="1" fill-rule="nonzero"/><path fill="#1e243a" d="M 658.34375 340.394531 C 658.1875 340.394531 658.03125 340.386719 657.867188 340.363281 C 655.617188 340.105469 654 338.066406 654.261719 335.816406 L 656.359375 317.710938 C 656.621094 315.457031 658.660156 313.84375 660.914062 314.101562 C 663.164062 314.367188 664.777344 316.40625 664.519531 318.65625 L 662.417969 336.757812 C 662.179688 338.851562 660.398438 340.394531 658.34375 340.394531 " fill-opacity="1" fill-rule="nonzero"/><path fill="#1e243a" d="M 686.378906 325.675781 C 686.214844 325.675781 686.058594 325.667969 685.898438 325.648438 C 683.644531 325.382812 682.035156 323.34375 682.292969 321.09375 L 684.390625 302.992188 C 684.652344 300.738281 686.691406 299.121094 688.945312 299.378906 C 691.195312 299.644531 692.808594 301.683594 692.550781 303.9375 L 690.449219 322.039062 C 690.210938 324.132812 688.433594 325.675781 686.378906 325.675781 " fill-opacity="1" fill-rule="nonzero"/></svg>