<svg xmlns="http://www.w3.org/2000/svg" xmlns:xlink="http://www.w3.org/1999/xlink" width="1920" zoomAndPan="magnify" viewBox="0 0 1440 809.999993" height="1080" preserveAspectRatio="xMidYMid meet" version="1.0"><defs><clipPath id="f7526a693f"><path d="M 335 328 L 1047.953125 328 L 1047.953125 479 L 335 479 Z M 335 328 " clip-rule="nonzero"/></clipPath></defs><g clip-path="url(#f7526a693f)"><path fill="#000000" d="M 413.082031 419.234375 C 412.847656 413.21875 412.964844 407.261719 413.429688 401.308594 C 413.605469 398.914062 413.839844 396.460938 414.1875 394.066406 C 414.65625 391.144531 415.121094 388.285156 415.589844 385.363281 C 416.289062 380.636719 414.363281 375.847656 409.410156 374.503906 C 405.328125 373.394531 400.199219 375.671875 398.800781 379.875 C 396.761719 377.480469 394.777344 375.027344 392.5625 372.75 C 385.683594 365.6875 375.894531 354.242188 365.457031 361.714844 C 358.113281 366.96875 352.34375 376.546875 348.089844 384.371094 C 343.484375 392.839844 339.925781 402.007812 337.828125 411.410156 C 335.613281 420.753906 334.679688 430.621094 335.265625 440.257812 C 335.789062 449.484375 336.78125 460.636719 343.074219 467.933594 C 357.53125 484.636719 382.539062 464.664062 392.332031 452.285156 C 394.429688 449.65625 396.234375 446.914062 397.984375 444.109375 C 399.09375 448.839844 400.609375 453.335938 402.996094 457.191406 C 406.960938 463.671875 416.988281 460.929688 417.160156 453.335938 C 417.335938 447.378906 415.703125 441.714844 414.773438 435.875 C 413.839844 430.386719 413.316406 424.78125 413.082031 419.234375 Z M 385.160156 431.964844 C 381.546875 438.621094 377 444.753906 371.171875 449.65625 C 368.429688 451.933594 359.511719 459 355.78125 456.722656 C 353.917969 455.554688 353.566406 450.59375 353.21875 448.664062 C 352.519531 444.871094 352.226562 441.074219 352.109375 437.21875 C 351.878906 429.511719 352.691406 421.921875 354.5 414.445312 C 356.308594 406.914062 358.988281 399.730469 362.71875 392.957031 C 364.644531 389.394531 366.859375 385.890625 369.246094 382.621094 C 370.355469 381.160156 371.460938 379.757812 372.6875 378.359375 C 373.09375 377.890625 373.445312 377.480469 373.851562 377.074219 C 378.574219 380.050781 382.945312 384.3125 386.851562 387.992188 C 390.058594 390.972656 393.03125 394.183594 395.945312 397.453125 C 393.847656 409.480469 390.929688 421.394531 385.160156 432.023438 Z M 502.675781 408.082031 C 498.183594 412.167969 491.890625 411.699219 486.234375 411.816406 C 483.261719 411.816406 480.347656 411.933594 477.375 411.992188 C 477.609375 421.042969 478.132812 430.035156 477.957031 439.089844 C 477.84375 443.058594 475.042969 446.210938 471.140625 446.796875 C 467.757812 447.320312 463.09375 444.984375 462.570312 441.191406 C 461.289062 431.671875 461.289062 421.980469 462.046875 412.285156 C 456.042969 412.402344 449.980469 412.460938 443.976562 412.578125 C 440.710938 412.636719 438.03125 409.773438 438.03125 406.621094 C 438.03125 403.175781 440.769531 400.957031 443.976562 400.664062 C 450.503906 399.964844 457.03125 399.261719 463.503906 398.5625 C 464.84375 388.695312 466.652344 378.882812 468.398438 369.304688 C 468.980469 366.09375 472.828125 364.34375 475.742188 365.160156 C 479.066406 366.09375 480.464844 369.304688 479.882812 372.519531 C 478.484375 380.695312 477.726562 388.867188 477.375 397.101562 C 480.289062 396.808594 483.261719 396.460938 486.175781 396.167969 C 491.015625 395.640625 496.960938 394.359375 501.273438 397.394531 C 504.65625 399.789062 506.171875 404.925781 502.675781 408.140625 Z M 590.808594 383.671875 C 572.855469 371.816406 557.992188 389.804688 548.722656 403.527344 C 547.964844 404.636719 547.324219 405.746094 546.625 406.914062 C 546.800781 383.496094 547.558594 360.023438 549.132812 336.664062 C 549.832031 326.269531 534.035156 326.503906 533.101562 336.664062 C 529.136719 378.882812 527.679688 421.277344 528.613281 463.671875 C 528.789062 472.546875 537.996094 474.824219 543.476562 470.972656 C 551.695312 478.15625 567.550781 477.335938 577.402344 474.125 C 595.9375 468.050781 608.46875 454.039062 610.570312 434.359375 C 612.433594 417.25 605.964844 393.65625 590.867188 383.671875 Z M 582.996094 449.949219 C 578.277344 453.746094 571.339844 456.082031 565.335938 456.722656 C 559.15625 457.367188 555.191406 455.148438 550.179688 451.992188 C 549.890625 451.816406 549.539062 451.703125 549.246094 451.585938 C 551.578125 439.964844 555.777344 428.753906 561.722656 418.535156 C 565.335938 412.34375 569.648438 405.453125 575.128906 400.664062 C 580.433594 395.992188 584.398438 402.707031 586.84375 407.4375 C 593.546875 420.460938 595.761719 439.789062 582.9375 450.007812 Z M 645.425781 397.511719 C 636.390625 397.394531 636.449219 383.730469 645.425781 383.4375 C 656.96875 383.085938 668.507812 382.503906 680.050781 382.09375 C 685.9375 381.863281 691.824219 381.6875 697.710938 381.394531 C 703.832031 381.101562 710.710938 379.46875 716.308594 382.621094 C 721.785156 385.714844 721.613281 393.890625 716.308594 397.042969 C 710.710938 400.371094 703.25 398.679688 697.070312 398.5625 C 691.417969 398.445312 685.761719 398.328125 680.050781 398.210938 C 668.507812 397.976562 656.96875 397.628906 645.425781 397.453125 Z M 723.070312 428.460938 C 717.765625 431.90625 709.664062 431.03125 703.542969 431.148438 C 697.65625 431.320312 691.707031 431.378906 685.820312 431.496094 C 673.753906 431.671875 661.691406 431.613281 649.683594 431.320312 C 641.460938 431.148438 641.460938 418.589844 649.683594 418.535156 C 661.515625 418.535156 673.347656 418.007812 685.179688 417.132812 C 691.125 416.664062 697.011719 416.082031 702.902344 415.320312 C 708.613281 414.621094 715.78125 412.226562 721.261719 414.386719 C 727.382812 416.78125 729.015625 424.664062 723.128906 428.460938 Z M 832.714844 375.085938 C 817.847656 363.640625 797.855469 380.636719 788.996094 392.082031 C 785.324219 396.808594 782.117188 401.832031 779.261719 407.03125 C 777.21875 383.554688 775.121094 360.136719 772.558594 336.722656 C 771.566406 327.730469 757.75 327.261719 758.160156 336.722656 C 759.792969 374.972656 762.707031 413.160156 764.980469 451.351562 C 765.039062 452.578125 765.386719 453.6875 765.855469 454.738281 C 760.667969 457.191406 757.695312 464.488281 762.882812 469.21875 C 775.878906 481.132812 795.523438 480.257812 810.039062 471.4375 C 825.25 462.152344 833.644531 445.21875 838.308594 428.578125 C 842.679688 413.042969 847.925781 386.765625 832.769531 375.144531 Z M 809.164062 447.378906 C 802.050781 456.023438 791.210938 460.578125 780.894531 458.066406 C 781.882812 457.015625 782.582031 455.613281 782.875 453.746094 C 785.554688 436.636719 791.035156 420.695312 800.828125 406.328125 C 804.910156 400.371094 809.980469 394.359375 816.566406 391.144531 C 817.964844 390.503906 819.890625 389.628906 821.40625 389.511719 C 822.976562 389.394531 821.578125 388.226562 822.746094 390.503906 C 824.550781 394.183594 824.84375 398.621094 824.726562 402.648438 C 824.378906 417.421875 818.664062 435.816406 809.164062 447.320312 Z M 927.203125 403.644531 C 927.667969 407.144531 926.035156 411 922.828125 412.753906 C 918.632812 415.089844 913.621094 415.554688 908.957031 416.3125 C 908.140625 416.429688 907.324219 416.546875 906.507812 416.664062 C 906.976562 419.234375 907.441406 421.746094 907.90625 424.3125 C 909.015625 429.921875 911.519531 437.453125 908.257812 442.648438 C 906.390625 445.570312 901.730469 447.496094 898.582031 445.160156 C 895.492188 442.882812 894.152344 440.371094 893.335938 436.695312 C 892.75 434.066406 892.285156 431.378906 891.9375 428.695312 C 891.46875 425.367188 891.003906 422.035156 890.535156 418.707031 C 887.738281 419.058594 885 419.410156 882.203125 419.816406 C 878.0625 420.34375 872.933594 421.746094 868.910156 420.402344 C 864.191406 418.824219 860.984375 411.699219 865.648438 408.023438 C 867.277344 406.738281 868.621094 405.863281 870.660156 405.277344 C 871.59375 404.984375 872.523438 404.753906 873.457031 404.519531 C 875.613281 403.933594 877.769531 403.46875 879.988281 402.941406 C 882.960938 402.242188 885.933594 401.597656 888.90625 400.898438 C 888.4375 393.65625 887.972656 386.472656 887.449219 379.234375 C 887.15625 375.789062 890.535156 372.867188 893.800781 372.867188 C 897.472656 372.867188 899.746094 375.789062 900.15625 379.234375 C 900.796875 385.421875 901.84375 391.554688 903.011719 397.6875 C 903.417969 397.570312 903.886719 397.511719 904.292969 397.394531 C 909.714844 396.34375 915.078125 395.058594 920.613281 395.875 C 924.113281 396.402344 926.734375 400.253906 927.144531 403.46875 Z M 1047.046875 441.25 C 1046.347656 436.109375 1043.082031 431.90625 1040.632812 427.410156 C 1038.359375 423.378906 1036.496094 419.175781 1035.039062 414.796875 C 1032.007812 405.628906 1030.667969 396.34375 1030.839844 386.765625 C 1030.898438 383.261719 1029.324219 380.695312 1026.996094 379.117188 C 1029.210938 376.429688 1029.617188 372.402344 1026.46875 369.246094 C 1020.933594 363.757812 1016.328125 357.101562 1009.390625 353.1875 C 1000.179688 347.992188 989.628906 349.6875 980.886719 355 C 965.671875 364.34375 955.589844 381.042969 951.332031 398.09375 C 948.828125 407.964844 948.011719 418.359375 948.242188 428.519531 C 948.476562 437.980469 947.953125 450.882812 957.046875 456.664062 C 965.324219 461.921875 975.175781 458.417969 982.753906 453.6875 C 989.804688 449.308594 996.449219 443.992188 1002.335938 438.09375 C 1007.816406 432.605469 1012.65625 426.476562 1016.851562 419.933594 C 1017.027344 420.402344 1017.085938 420.8125 1017.257812 421.277344 C 1019.242188 426.648438 1021.632812 431.964844 1024.488281 436.925781 C 1027.925781 442.824219 1031.65625 447.730469 1038.070312 450.300781 C 1043.898438 452.636719 1047.746094 446.09375 1047.105469 441.25 Z M 966.488281 439.90625 C 966.488281 439.90625 966.546875 439.964844 966.605469 440.023438 C 965.613281 441.015625 966.371094 439.320312 966.488281 439.90625 Z M 996.160156 415.964844 C 992.371094 420.867188 987.941406 425.367188 983.277344 429.394531 C 978.964844 433.132812 973.773438 437.394531 968.414062 439.4375 C 968.414062 439.4375 968.414062 439.4375 968.355469 439.4375 C 968.355469 438.914062 968.238281 438.445312 968.238281 438.445312 C 968.003906 436.285156 967.945312 434.066406 967.828125 431.847656 C 967.539062 424.488281 967.597656 417.015625 968.878906 409.773438 C 971.09375 397.160156 975.988281 384.957031 985.433594 376.023438 C 989.457031 372.226562 995.34375 367.613281 1001.054688 369.949219 C 1006.125 372.050781 1010.148438 376.429688 1014.753906 379.582031 C 1013.472656 380.695312 1012.421875 382.210938 1011.898438 384.195312 C 1008.75 395.699219 1003.503906 406.5625 996.160156 415.964844 Z M 996.160156 415.964844 " fill-opacity="1" fill-rule="nonzero"/></g></svg>