<svg xmlns="http://www.w3.org/2000/svg" xmlns:xlink="http://www.w3.org/1999/xlink" width="1920" zoomAndPan="magnify" viewBox="0 0 1440 809.999993" height="1080" preserveAspectRatio="xMidYMid meet" version="1.0"><defs><clipPath id="3f87b93ba6"><path d="M 430.007812 187.507812 L 1009.757812 187.507812 L 1009.757812 622.507812 L 430.007812 622.507812 Z M 430.007812 187.507812 " clip-rule="nonzero"/></clipPath></defs><g clip-path="url(#3f87b93ba6)"><path fill="#00bcd4" d="M 943.328125 187.507812 L 496.441406 187.507812 C 459.796875 187.507812 430.011719 217.304688 430.011719 253.96875 L 430.011719 556.046875 C 430.011719 592.707031 459.796875 622.507812 496.441406 622.507812 L 943.328125 622.507812 C 979.972656 622.507812 1009.757812 592.707031 1009.757812 556.046875 L 1009.757812 253.96875 C 1009.757812 217.304688 979.972656 187.507812 943.328125 187.507812 Z M 943.328125 187.507812 " fill-opacity="1" fill-rule="nonzero"/></g><path fill="#ffffff" d="M 870.859375 423.132812 L 834.625 423.132812 C 811.316406 423.132812 792.351562 404.160156 792.351562 380.84375 L 792.351562 350.632812 C 792.351562 340.628906 800.46875 332.507812 810.46875 332.507812 C 820.472656 332.507812 828.585938 340.628906 828.585938 350.632812 L 828.585938 380.84375 C 828.585938 384.175781 831.292969 386.882812 834.625 386.882812 L 870.859375 386.882812 C 880.859375 386.882812 888.976562 395.003906 888.976562 405.007812 C 888.976562 415.011719 880.859375 423.132812 870.859375 423.132812 Z M 870.859375 423.132812 " fill-opacity="1" fill-rule="nonzero"/><path fill="#ffffff" d="M 870.859375 477.507812 C 860.859375 477.507812 852.742188 469.386719 852.742188 459.382812 L 852.742188 350.632812 C 852.742188 340.628906 860.859375 332.507812 870.859375 332.507812 C 880.859375 332.507812 888.976562 340.628906 888.976562 350.632812 L 888.976562 459.382812 C 888.976562 469.386719 880.859375 477.507812 870.859375 477.507812 Z M 870.859375 477.507812 " fill-opacity="1" fill-rule="nonzero"/><path fill="#ffffff" d="M 629.300781 423.132812 L 568.910156 423.132812 C 558.910156 423.132812 550.792969 415.011719 550.792969 405.007812 C 550.792969 395.003906 558.910156 386.882812 568.910156 386.882812 L 629.300781 386.882812 C 639.300781 386.882812 647.417969 395.003906 647.417969 405.007812 C 647.417969 415.011719 639.300781 423.132812 629.300781 423.132812 Z M 629.300781 423.132812 " fill-opacity="1" fill-rule="nonzero"/><path fill="#ffffff" d="M 605.144531 477.507812 L 568.910156 477.507812 C 558.910156 477.507812 550.792969 469.386719 550.792969 459.382812 C 550.792969 449.378906 558.910156 441.257812 568.910156 441.257812 L 605.144531 441.257812 C 608.476562 441.257812 611.183594 438.550781 611.183594 435.21875 L 611.183594 374.796875 C 611.183594 371.464844 608.476562 368.757812 605.144531 368.757812 L 568.910156 368.757812 C 558.910156 368.757812 550.792969 360.636719 550.792969 350.632812 C 550.792969 340.628906 558.910156 332.507812 568.910156 332.507812 L 605.144531 332.507812 C 628.453125 332.507812 647.417969 351.476562 647.417969 374.796875 L 647.417969 435.21875 C 647.417969 458.535156 628.453125 477.507812 605.144531 477.507812 Z M 605.144531 477.507812 " fill-opacity="1" fill-rule="nonzero"/><path fill="#ffffff" d="M 744.039062 356.671875 C 744.039062 370.023438 733.226562 380.84375 719.882812 380.84375 C 706.542969 380.84375 695.730469 370.023438 695.730469 356.671875 C 695.730469 343.328125 706.542969 332.507812 719.882812 332.507812 C 733.226562 332.507812 744.039062 343.328125 744.039062 356.671875 Z M 744.039062 356.671875 " fill-opacity="1" fill-rule="nonzero"/><path fill="#ffffff" d="M 744.039062 453.34375 C 744.039062 466.6875 733.226562 477.507812 719.882812 477.507812 C 706.542969 477.507812 695.730469 466.6875 695.730469 453.34375 C 695.730469 439.992188 706.542969 429.171875 719.882812 429.171875 C 733.226562 429.171875 744.039062 439.992188 744.039062 453.34375 Z M 744.039062 453.34375 " fill-opacity="1" fill-rule="nonzero"/></svg>