<svg xmlns="http://www.w3.org/2000/svg" xmlns:xlink="http://www.w3.org/1999/xlink" width="1920" zoomAndPan="magnify" viewBox="0 0 1440 809.999993" height="1080" preserveAspectRatio="xMidYMid meet" version="1.0"><defs><clipPath id="eea36f0568"><path d="M 493.082031 284 L 614 284 L 614 405 L 493.082031 405 Z M 493.082031 284 " clip-rule="nonzero"/></clipPath><clipPath id="c6dd1b21c4"><path d="M 599 178.082031 L 720 178.082031 L 720 299 L 599 299 Z M 599 178.082031 " clip-rule="nonzero"/></clipPath><clipPath id="eaabdfdf01"><path d="M 493.082031 178.082031 L 614 178.082031 L 614 299 L 493.082031 299 Z M 493.082031 178.082031 " clip-rule="nonzero"/></clipPath><clipPath id="486e8ba932"><path d="M 493.082031 287 L 611 287 L 611 408 L 493.082031 408 Z M 493.082031 287 " clip-rule="nonzero"/></clipPath><clipPath id="38fe805b97"><path d="M 493.082031 178.082031 L 611 178.082031 L 611 296 L 493.082031 296 Z M 493.082031 178.082031 " clip-rule="nonzero"/></clipPath><clipPath id="38ed904eb8"><path d="M 602 178.082031 L 723 178.082031 L 723 296 L 602 296 Z M 602 178.082031 " clip-rule="nonzero"/></clipPath><clipPath id="2183a31511"><path d="M 826 284 L 946.832031 284 L 946.832031 405 L 826 405 Z M 826 284 " clip-rule="nonzero"/></clipPath><clipPath id="bc948a5da7"><path d="M 719 178.082031 L 841 178.082031 L 841 299 L 719 299 Z M 719 178.082031 " clip-rule="nonzero"/></clipPath><clipPath id="ea009543c4"><path d="M 826 178.082031 L 946.832031 178.082031 L 946.832031 299 L 826 299 Z M 826 178.082031 " clip-rule="nonzero"/></clipPath><clipPath id="db3806315e"><path d="M 829 287 L 946.832031 287 L 946.832031 408 L 829 408 Z M 829 287 " clip-rule="nonzero"/></clipPath><clipPath id="c1138c4889"><path d="M 829 178.082031 L 946.832031 178.082031 L 946.832031 296 L 829 296 Z M 829 178.082031 " clip-rule="nonzero"/></clipPath><clipPath id="3641ab94c1"><path d="M 717 178.082031 L 837 178.082031 L 837 296 L 717 296 Z M 717 178.082031 " clip-rule="nonzero"/></clipPath><clipPath id="0fcba6105c"><path d="M 493.082031 404 L 614 404 L 614 526 L 493.082031 526 Z M 493.082031 404 " clip-rule="nonzero"/></clipPath><clipPath id="d156b098ee"><path d="M 599 511 L 720 511 L 720 631.832031 L 599 631.832031 Z M 599 511 " clip-rule="nonzero"/></clipPath><clipPath id="d7ce7822b9"><path d="M 493.082031 511 L 614 511 L 614 631.832031 L 493.082031 631.832031 Z M 493.082031 511 " clip-rule="nonzero"/></clipPath><clipPath id="e72dafc0a9"><path d="M 493.082031 402 L 611 402 L 611 522 L 493.082031 522 Z M 493.082031 402 " clip-rule="nonzero"/></clipPath><clipPath id="27fffa9324"><path d="M 493.082031 514 L 611 514 L 611 631.832031 L 493.082031 631.832031 Z M 493.082031 514 " clip-rule="nonzero"/></clipPath><clipPath id="cc208b624c"><path d="M 602 514 L 723 514 L 723 631.832031 L 602 631.832031 Z M 602 514 " clip-rule="nonzero"/></clipPath><clipPath id="7f148d7318"><path d="M 826 404 L 946.832031 404 L 946.832031 526 L 826 526 Z M 826 404 " clip-rule="nonzero"/></clipPath><clipPath id="0a00fdafe6"><path d="M 719 511 L 841 511 L 841 631.832031 L 719 631.832031 Z M 719 511 " clip-rule="nonzero"/></clipPath><clipPath id="6cff180ffd"><path d="M 826 511 L 946.832031 511 L 946.832031 631.832031 L 826 631.832031 Z M 826 511 " clip-rule="nonzero"/></clipPath><clipPath id="af3c76733e"><path d="M 829 402 L 946.832031 402 L 946.832031 522 L 829 522 Z M 829 402 " clip-rule="nonzero"/></clipPath><clipPath id="684b267267"><path d="M 829 514 L 946.832031 514 L 946.832031 631.832031 L 829 631.832031 Z M 829 514 " clip-rule="nonzero"/></clipPath><clipPath id="ae99ea37b2"><path d="M 717 514 L 837 514 L 837 631.832031 L 717 631.832031 Z M 717 514 " clip-rule="nonzero"/></clipPath></defs><g clip-path="url(#eea36f0568)"><path fill="#000000" d="M 518.109375 298.570312 C 513.207031 306.15625 509.261719 314.402344 506.433594 323.136719 C 503.144531 333.316406 501.367188 344.203125 501.367188 355.535156 C 501.367188 362.015625 501.933594 368.296875 503.023438 374.339844 C 504.035156 379.949219 505.496094 385.40625 507.363281 390.675781 C 512.632812 392.542969 518.09375 394.003906 523.699219 395.015625 C 529.742188 396.105469 536.027344 396.675781 542.503906 396.675781 C 553.835938 396.675781 564.722656 394.894531 574.902344 391.605469 C 583.640625 388.78125 591.886719 384.832031 599.472656 379.933594 C 592.335938 374.1875 585.902344 367.589844 580.332031 360.292969 C 574.039062 352.050781 568.84375 342.902344 564.972656 333.070312 C 555.140625 329.199219 545.988281 324.003906 537.746094 317.707031 C 530.449219 312.136719 523.851562 305.707031 518.109375 298.570312 Z M 498.574219 320.613281 C 502.269531 309.195312 507.707031 298.582031 514.578125 289.09375 L 517.925781 284.46875 L 521.273438 289.09375 C 527.328125 297.457031 534.574219 304.890625 542.757812 311.140625 C 550.875 317.339844 559.90625 322.378906 569.601562 326.011719 L 571.367188 326.675781 L 572.027344 328.4375 C 575.664062 338.132812 580.703125 347.164062 586.898438 355.28125 C 593.152344 363.46875 600.585938 370.714844 608.949219 376.769531 L 613.574219 380.117188 L 608.949219 383.464844 C 599.457031 390.332031 588.84375 395.773438 577.425781 399.464844 C 566.402344 403.03125 554.664062 404.957031 542.503906 404.957031 C 535.648438 404.957031 528.875 404.332031 522.246094 403.132812 C 515.5 401.917969 508.96875 400.105469 502.707031 397.757812 L 500.941406 397.097656 L 500.28125 395.332031 C 497.933594 389.070312 496.125 382.539062 494.90625 375.796875 C 493.710938 369.164062 493.085938 362.390625 493.085938 355.535156 C 493.085938 343.378906 495.011719 331.640625 498.574219 320.613281 Z M 498.574219 320.613281 " fill-opacity="1" fill-rule="nonzero"/></g><path fill="#000000" d="M 648.070312 333.070312 C 644.199219 342.898438 639.003906 352.050781 632.710938 360.292969 C 627.140625 367.589844 620.710938 374.1875 613.570312 379.929688 C 621.160156 384.832031 629.40625 388.78125 638.140625 391.605469 C 648.320312 394.894531 659.207031 396.675781 670.539062 396.675781 C 677.019531 396.675781 683.300781 396.105469 689.34375 395.015625 C 694.953125 394.003906 700.410156 392.542969 705.679688 390.675781 C 707.546875 385.40625 709.007812 379.949219 710.019531 374.339844 C 711.109375 368.296875 711.679688 362.015625 711.679688 355.535156 C 711.679688 344.203125 709.898438 333.316406 706.609375 323.136719 C 703.78125 314.398438 699.835938 306.15625 694.933594 298.566406 C 689.191406 305.703125 682.59375 312.136719 675.296875 317.707031 C 667.054688 324 657.90625 329.195312 648.074219 333.066406 Z M 626.144531 355.28125 C 632.34375 347.164062 637.382812 338.132812 641.015625 328.4375 L 641.679688 326.671875 L 643.441406 326.011719 C 653.136719 322.378906 662.167969 317.339844 670.285156 311.140625 C 678.46875 304.890625 685.71875 297.457031 691.769531 289.09375 L 695.117188 284.46875 L 698.464844 289.09375 C 705.335938 298.582031 710.773438 309.195312 714.46875 320.617188 C 718.03125 331.640625 719.957031 343.378906 719.957031 355.535156 C 719.957031 362.390625 719.332031 369.164062 718.136719 375.796875 C 716.917969 382.542969 715.109375 389.074219 712.761719 395.332031 L 712.101562 397.097656 L 710.335938 397.761719 C 704.074219 400.105469 697.542969 401.917969 690.800781 403.132812 C 684.167969 404.332031 677.394531 404.957031 670.539062 404.957031 C 658.382812 404.957031 646.644531 403.03125 635.617188 399.464844 C 624.199219 395.773438 613.585938 390.332031 604.097656 383.464844 L 599.472656 380.117188 L 604.097656 376.769531 C 612.460938 370.714844 619.894531 363.46875 626.144531 355.28125 Z M 626.144531 355.28125 " fill-opacity="1" fill-rule="nonzero"/><g clip-path="url(#c6dd1b21c4)"><path fill="#000000" d="M 648.070312 249.96875 C 657.902344 253.839844 667.054688 259.035156 675.296875 265.328125 C 682.59375 270.898438 689.191406 277.332031 694.933594 284.46875 C 699.835938 276.882812 703.78125 268.636719 706.609375 259.898438 C 709.898438 249.71875 711.675781 238.832031 711.675781 227.5 C 711.675781 221.023438 711.109375 214.738281 710.019531 208.695312 C 709.007812 203.089844 707.546875 197.628906 705.679688 192.359375 C 700.410156 190.492188 694.949219 189.035156 689.34375 188.023438 C 683.300781 186.933594 677.015625 186.363281 670.539062 186.363281 C 659.207031 186.363281 648.320312 188.140625 638.140625 191.433594 C 629.40625 194.257812 621.160156 198.203125 613.570312 203.105469 C 620.707031 208.851562 627.140625 215.445312 632.710938 222.742188 C 639.003906 230.988281 644.199219 240.136719 648.070312 249.96875 Z M 670.285156 271.894531 C 662.167969 265.695312 653.136719 260.65625 643.441406 257.023438 L 641.675781 256.363281 L 641.015625 254.597656 C 637.382812 244.902344 632.339844 235.875 626.144531 227.753906 C 619.890625 219.570312 612.460938 212.324219 604.097656 206.269531 L 599.472656 202.921875 L 604.097656 199.574219 C 613.585938 192.703125 624.199219 187.265625 635.617188 183.574219 C 646.644531 180.007812 658.378906 178.082031 670.539062 178.082031 C 677.394531 178.082031 684.167969 178.707031 690.800781 179.902344 C 697.542969 181.121094 704.074219 182.929688 710.335938 185.277344 L 712.101562 185.9375 L 712.761719 187.703125 C 715.109375 193.964844 716.917969 200.496094 718.136719 207.242188 C 719.332031 213.871094 719.957031 220.644531 719.957031 227.5 C 719.957031 239.660156 718.03125 251.394531 714.46875 262.421875 C 710.773438 273.839844 705.335938 284.453125 698.464844 293.945312 L 695.117188 298.570312 L 691.769531 293.945312 C 685.71875 285.582031 678.46875 278.144531 670.285156 271.894531 Z M 670.285156 271.894531 " fill-opacity="1" fill-rule="nonzero"/></g><g clip-path="url(#eaabdfdf01)"><path fill="#000000" d="M 564.972656 249.96875 C 568.84375 240.136719 574.039062 230.988281 580.332031 222.742188 C 585.902344 215.445312 592.335938 208.851562 599.472656 203.105469 C 591.886719 198.203125 583.640625 194.257812 574.902344 191.433594 C 564.722656 188.140625 553.835938 186.363281 542.503906 186.363281 C 536.027344 186.363281 529.742188 186.929688 523.699219 188.023438 C 518.09375 189.035156 512.632812 190.492188 507.363281 192.359375 C 505.496094 197.628906 504.035156 203.089844 503.023438 208.695312 C 501.933594 214.738281 501.367188 221.023438 501.367188 227.5 C 501.367188 238.832031 503.144531 249.71875 506.433594 259.898438 C 509.261719 268.636719 513.207031 276.882812 518.109375 284.46875 C 523.851562 277.332031 530.449219 270.898438 537.746094 265.328125 C 545.988281 259.035156 555.140625 253.839844 564.972656 249.964844 Z M 586.898438 227.753906 C 580.703125 235.875 575.664062 244.902344 572.027344 254.597656 L 571.367188 256.363281 L 569.601562 257.023438 C 559.90625 260.65625 550.878906 265.695312 542.761719 271.894531 C 534.574219 278.144531 527.328125 285.582031 521.273438 293.945312 L 517.925781 298.570312 L 514.578125 293.945312 C 507.710938 284.453125 502.269531 273.839844 498.578125 262.421875 C 495.011719 251.394531 493.085938 239.660156 493.085938 227.5 C 493.085938 220.644531 493.710938 213.871094 494.90625 207.242188 C 496.125 200.496094 497.933594 193.964844 500.28125 187.703125 L 500.945312 185.9375 L 502.707031 185.277344 C 508.96875 182.929688 515.5 181.121094 522.246094 179.902344 C 528.878906 178.707031 535.652344 178.082031 542.507812 178.082031 C 554.664062 178.082031 566.402344 180.007812 577.425781 183.574219 C 588.84375 187.265625 599.460938 192.707031 608.949219 199.574219 L 613.574219 202.921875 L 608.949219 206.269531 C 600.585938 212.324219 593.152344 219.570312 586.902344 227.753906 Z M 586.898438 227.753906 " fill-opacity="1" fill-rule="nonzero"/></g><path fill="#000000" d="M 606.519531 250.378906 C 600.042969 250.378906 593.757812 250.949219 587.714844 252.039062 C 582.109375 253.050781 576.648438 254.507812 571.378906 256.375 C 569.511719 261.648438 568.054688 267.105469 567.042969 272.710938 C 565.953125 278.753906 565.382812 285.039062 565.382812 291.519531 C 565.382812 297.996094 565.953125 304.28125 567.042969 310.324219 C 568.054688 315.929688 569.511719 321.390625 571.378906 326.660156 C 576.648438 328.527344 582.109375 329.988281 587.714844 331 C 593.757812 332.089844 600.042969 332.65625 606.519531 332.65625 C 613 332.65625 619.285156 332.089844 625.328125 331 C 630.933594 329.988281 636.394531 328.527344 641.664062 326.660156 C 643.53125 321.390625 644.992188 315.929688 646 310.324219 C 647.089844 304.28125 647.660156 297.996094 647.660156 291.519531 C 647.660156 285.039062 647.089844 278.753906 646 272.714844 C 644.988281 267.105469 643.53125 261.648438 641.664062 256.375 C 636.394531 254.507812 630.933594 253.050781 625.328125 252.039062 C 619.285156 250.949219 613 250.378906 606.519531 250.378906 Z M 586.261719 243.921875 C 592.894531 242.722656 599.667969 242.097656 606.519531 242.097656 C 613.375 242.097656 620.148438 242.722656 626.78125 243.921875 C 633.527344 245.136719 640.058594 246.949219 646.320312 249.292969 L 648.085938 249.957031 L 648.746094 251.71875 C 651.09375 257.980469 652.902344 264.511719 654.121094 271.257812 C 655.316406 277.890625 655.941406 284.664062 655.941406 291.519531 C 655.941406 298.375 655.316406 305.148438 654.121094 311.777344 C 652.902344 318.523438 651.09375 325.054688 648.746094 331.316406 L 648.085938 333.082031 L 646.320312 333.742188 C 640.058594 336.089844 633.527344 337.898438 626.78125 339.117188 C 620.152344 340.3125 613.378906 340.9375 606.523438 340.9375 C 599.667969 340.9375 592.894531 340.3125 586.261719 339.117188 C 579.515625 337.898438 572.984375 336.089844 566.722656 333.742188 L 564.960938 333.082031 L 564.296875 331.316406 C 561.953125 325.054688 560.140625 318.523438 558.925781 311.777344 C 557.726562 305.148438 557.101562 298.375 557.101562 291.519531 C 557.101562 284.664062 557.726562 277.890625 558.925781 271.257812 C 560.140625 264.511719 561.953125 257.980469 564.300781 251.71875 L 564.960938 249.957031 L 566.726562 249.292969 C 572.988281 246.945312 579.519531 245.136719 586.261719 243.921875 Z M 586.261719 243.921875 " fill-opacity="1" fill-rule="nonzero"/><path fill="#f765a3" d="M 564.949219 333.0625 C 555.125 329.1875 545.984375 323.996094 537.746094 317.707031 C 530.449219 312.136719 523.851562 305.707031 518.109375 298.570312 C 513.207031 306.15625 509.261719 314.402344 506.433594 323.136719 C 503.144531 333.316406 501.367188 344.203125 501.367188 355.535156 C 501.367188 362.015625 501.933594 368.296875 503.023438 374.339844 C 504.035156 379.949219 505.496094 385.40625 507.363281 390.675781 C 512.632812 392.542969 518.09375 394.003906 523.699219 395.015625 C 529.742188 396.105469 536.027344 396.675781 542.503906 396.675781 C 553.835938 396.675781 564.722656 394.894531 574.902344 391.605469 C 583.640625 388.78125 591.886719 384.832031 599.472656 379.933594 C 592.335938 374.1875 585.902344 367.589844 580.332031 360.292969 C 574.042969 352.054688 568.851562 342.914062 564.980469 333.089844 L 564.960938 333.082031 L 564.953125 333.0625 Z M 564.949219 333.0625 " fill-opacity="1" fill-rule="evenodd"/><g clip-path="url(#486e8ba932)"><path stroke-linecap="butt" transform="matrix(0.0585733, 0, 0, 0.0585733, 493.084853, 178.082003)" fill="none" stroke-linejoin="miter" d="M 1226.91292 2645.922957 C 1059.187777 2579.766559 903.13337 2491.135659 762.484335 2383.764891 C 637.907569 2288.665069 525.268298 2178.893465 427.234119 2057.050986 C 343.538273 2186.562806 276.181456 2327.345221 227.897956 2476.463877 C 171.745046 2650.257802 141.401133 2836.122602 141.401133 3029.590052 C 141.401133 3140.228625 151.071171 3247.466013 169.677658 3350.635315 C 186.950347 3446.402036 211.892376 3539.567851 243.770156 3629.53255 C 333.734855 3661.41033 426.96736 3686.352359 522.667391 3703.625048 C 625.836694 3722.231535 733.140771 3731.968263 843.712654 3731.968263 C 1037.180105 3731.968263 1223.044905 3701.557661 1396.838829 3645.40475 C 1546.024175 3597.18794 1686.806591 3529.764433 1816.31841 3446.135277 C 1694.475931 3348.034408 1584.637637 3235.395137 1489.537815 3110.818372 C 1382.167048 2970.169336 1293.536147 2814.114929 1227.446439 2646.389786 L 1227.112989 2646.256407 L 1226.97961 2645.922957 Z M 1226.91292 2645.922957 " stroke="#332c2b" stroke-width="5.61" stroke-opacity="1" stroke-miterlimit="22.926001"/></g><path fill="#f765a3" d="M 518.109375 284.46875 C 523.851562 277.332031 530.449219 270.898438 537.746094 265.328125 C 545.984375 259.039062 555.128906 253.847656 564.953125 249.976562 L 564.960938 249.957031 L 564.980469 249.949219 C 568.851562 240.125 574.042969 230.980469 580.332031 222.742188 C 585.902344 215.449219 592.335938 208.851562 599.472656 203.105469 C 591.886719 198.207031 583.640625 194.257812 574.902344 191.433594 C 564.722656 188.140625 553.835938 186.363281 542.503906 186.363281 C 536.027344 186.363281 529.742188 186.933594 523.699219 188.023438 C 518.09375 189.035156 512.632812 190.492188 507.363281 192.359375 C 505.496094 197.628906 504.035156 203.089844 503.023438 208.695312 C 501.933594 214.738281 501.363281 221.023438 501.363281 227.503906 C 501.363281 238.832031 503.144531 249.71875 506.433594 259.898438 C 509.261719 268.636719 513.207031 276.882812 518.109375 284.46875 Z M 518.109375 284.46875 " fill-opacity="1" fill-rule="evenodd"/><g clip-path="url(#38fe805b97)"><path stroke-linecap="butt" transform="matrix(0.0585733, 0, 0, 0.0585733, 493.084853, 178.082003)" fill="none" stroke-linejoin="miter" d="M 427.234119 1816.300384 C 525.268298 1694.457905 637.907569 1584.61961 762.484335 1489.519788 C 903.13337 1382.149021 1059.254467 1293.518121 1226.97961 1227.428413 L 1227.112989 1227.094963 L 1227.446439 1226.961583 C 1293.536147 1059.236441 1382.167048 903.115344 1489.537815 762.466308 C 1584.637637 637.956232 1694.475931 525.316961 1816.31841 427.216093 C 1686.806591 343.586936 1546.024175 276.16343 1396.838829 227.946619 C 1223.044905 171.727019 1037.180105 141.383107 843.712654 141.383107 C 733.140771 141.383107 625.836694 151.119835 522.667391 169.726322 C 426.96736 186.99901 333.734855 211.874349 243.770156 243.75213 C 211.892376 333.716829 186.950347 426.949333 169.677658 522.649365 C 151.071171 625.818667 141.334443 733.122744 141.334443 843.761317 C 141.334443 1037.162078 171.745046 1223.026878 227.897956 1396.820803 C 276.181456 1546.006148 343.538273 1686.788564 427.234119 1816.300384 Z M 427.234119 1816.300384 " stroke="#332c2b" stroke-width="5.61" stroke-opacity="1" stroke-miterlimit="22.926001"/></g><path fill="#f765a3" d="M 632.710938 222.742188 C 639 230.980469 644.191406 240.125 648.066406 249.949219 L 648.085938 249.957031 L 648.09375 249.976562 C 657.917969 253.847656 667.058594 259.039062 675.296875 265.328125 C 682.59375 270.898438 689.191406 277.332031 694.933594 284.46875 C 699.835938 276.882812 703.78125 268.632812 706.609375 259.898438 C 709.898438 249.71875 711.675781 238.832031 711.675781 227.5 C 711.675781 221.023438 711.109375 214.738281 710.019531 208.695312 C 709.007812 203.089844 707.546875 197.628906 705.679688 192.359375 C 700.410156 190.492188 694.949219 189.03125 689.34375 188.019531 C 683.300781 186.929688 677.015625 186.363281 670.539062 186.363281 C 659.207031 186.363281 648.320312 188.140625 638.140625 191.429688 C 629.40625 194.257812 621.160156 198.203125 613.570312 203.105469 C 620.707031 208.847656 627.140625 215.445312 632.710938 222.742188 Z M 632.710938 222.742188 " fill-opacity="1" fill-rule="evenodd"/><g clip-path="url(#38ed904eb8)"><path stroke-linecap="butt" transform="matrix(0.0585733, 0, 0, 0.0585733, 493.084853, 178.082003)" fill="none" stroke-linejoin="miter" d="M 2383.782918 762.466308 C 2491.153685 903.115344 2579.784585 1059.236441 2645.940984 1226.961583 L 2646.274433 1227.094963 L 2646.407813 1227.428413 C 2814.132955 1293.518121 2970.187362 1382.149021 3110.836398 1489.519788 C 3235.413164 1584.61961 3348.052435 1694.457905 3446.086613 1816.300384 C 3529.78246 1686.788564 3597.139276 1545.939458 3645.422777 1396.820803 C 3701.575687 1223.026878 3731.9196 1037.162078 3731.9196 843.694627 C 3731.9196 733.122744 3722.249562 625.818667 3703.643075 522.649365 C 3686.370386 426.949333 3661.428357 333.716829 3629.550576 243.75213 C 3539.585878 211.874349 3446.353373 186.93232 3350.653341 169.659632 C 3247.484039 151.053145 3140.179962 141.383107 3029.608079 141.383107 C 2836.140628 141.383107 2650.275828 171.727019 2476.481903 227.87993 C 2327.363248 276.16343 2186.580832 343.520246 2057.002322 427.216093 C 2178.844802 525.250272 2288.683096 637.889542 2383.782918 762.466308 Z M 2383.782918 762.466308 " stroke="#332c2b" stroke-width="5.61" stroke-opacity="1" stroke-miterlimit="22.926001"/></g><path stroke-linecap="butt" transform="matrix(0.0585733, 0, 0, 0.0585733, 493.084853, 178.082003)" fill-opacity="1" fill="#f765a3" fill-rule="evenodd" stroke-linejoin="miter" d="M 3110.836398 2383.764891 C 2970.187362 2491.135659 2814.132955 2579.833249 2646.407813 2645.922957 L 2646.274433 2646.256407 L 2645.940984 2646.389786 C 2579.784585 2814.114929 2491.153685 2970.169336 2383.782918 3110.818372 C 2288.683096 3235.395137 2178.911492 3348.034408 2057.002322 3446.068587 C 2186.580832 3529.764433 2327.363248 3597.18794 2476.481903 3645.40475 C 2650.275828 3701.557661 2836.140628 3731.968263 3029.608079 3731.968263 C 3140.246652 3731.968263 3247.484039 3722.231535 3350.653341 3703.625048 C 3446.420063 3686.352359 3539.585878 3661.41033 3629.550576 3629.53255 C 3661.428357 3539.567851 3686.370386 3446.402036 3703.643075 3350.635315 C 3722.249562 3247.466013 3731.986289 3140.228625 3731.986289 3029.590052 C 3731.986289 2836.122602 3701.575687 2650.257802 3645.422777 2476.463877 C 3597.139276 2327.278531 3529.78246 2186.562806 3446.086613 2056.984296 C 3348.052435 2178.826775 3235.413164 2288.665069 3110.836398 2383.764891 Z M 3110.836398 2383.764891 " stroke="#332c2b" stroke-width="5.61" stroke-opacity="1" stroke-miterlimit="22.926001"/><path stroke-linecap="butt" transform="matrix(0.0585733, 0, 0, 0.0585733, 493.084853, 178.082003)" fill-opacity="1" fill="#f765a3" fill-rule="evenodd" stroke-linejoin="miter" d="M 2536.636209 2536.618182 C 2568.513989 2446.653484 2593.456019 2353.420979 2610.662017 2257.720947 C 2629.268504 2154.551645 2639.005232 2047.247568 2639.005232 1936.675685 C 2639.005232 1826.037112 2629.268504 1718.733034 2610.662017 1615.630422 C 2593.389329 1519.863701 2568.513989 1426.697886 2536.636209 1336.733187 C 2446.67151 1304.788717 2353.439006 1279.913378 2257.738974 1262.640689 C 2154.569672 1244.034202 2047.265594 1234.297474 1936.627021 1234.297474 C 1826.055138 1234.297474 1718.751061 1244.034202 1615.581759 1262.640689 C 1519.881727 1279.913378 1426.649223 1304.788717 1336.684524 1336.666497 C 1304.806743 1426.697886 1279.931404 1519.863701 1262.658716 1615.630422 C 1244.052229 1718.799724 1234.315501 1826.037112 1234.315501 1936.675685 C 1234.315501 2047.247568 1244.052229 2154.551645 1262.658716 2257.720947 C 1279.931404 2353.487669 1304.806743 2446.653484 1336.684524 2536.618182 C 1426.649223 2568.495963 1519.881727 2593.437992 1615.581759 2610.710681 C 1718.751061 2629.317168 1826.055138 2639.053895 1936.627021 2639.053895 C 2047.265594 2639.053895 2154.569672 2629.317168 2257.738974 2610.710681 C 2353.439006 2593.437992 2446.67151 2568.495963 2536.636209 2536.618182 Z M 2536.636209 2536.618182 " stroke="#332c2b" stroke-width="5.61" stroke-opacity="1" stroke-miterlimit="22.926001"/><g clip-path="url(#2183a31511)"><path fill="#000000" d="M 921.808594 298.570312 C 926.707031 306.15625 930.65625 314.402344 933.480469 323.136719 C 936.769531 333.316406 938.550781 344.203125 938.550781 355.535156 C 938.550781 362.015625 937.980469 368.296875 936.890625 374.339844 C 935.878906 379.949219 934.417969 385.40625 932.550781 390.675781 C 927.28125 392.542969 921.824219 394.003906 916.214844 395.015625 C 910.171875 396.105469 903.890625 396.675781 897.410156 396.675781 C 886.078125 396.675781 875.191406 394.894531 865.011719 391.605469 C 856.277344 388.78125 848.03125 384.832031 840.445312 379.933594 C 847.582031 374.1875 854.011719 367.589844 859.582031 360.292969 C 865.878906 352.050781 871.070312 342.902344 874.945312 333.070312 C 884.777344 329.199219 893.925781 324.003906 902.167969 317.707031 C 909.464844 312.136719 916.0625 305.707031 921.808594 298.570312 Z M 941.339844 320.613281 C 937.648438 309.195312 932.207031 298.582031 925.339844 289.09375 L 921.992188 284.46875 L 918.644531 289.09375 C 912.589844 297.457031 905.34375 304.890625 897.15625 311.140625 C 889.039062 317.339844 880.007812 322.378906 870.3125 326.011719 L 868.546875 326.675781 L 867.886719 328.4375 C 864.253906 338.132812 859.214844 347.164062 853.015625 355.28125 C 846.765625 363.46875 839.332031 370.714844 830.96875 376.769531 L 826.34375 380.117188 L 830.96875 383.464844 C 840.457031 390.332031 851.070312 395.773438 862.492188 399.464844 C 873.515625 403.03125 885.25 404.957031 897.410156 404.957031 C 904.265625 404.957031 911.039062 404.332031 917.671875 403.132812 C 924.414062 401.917969 930.949219 400.105469 937.207031 397.757812 L 938.972656 397.097656 L 939.636719 395.332031 C 941.980469 389.070312 943.792969 382.539062 945.007812 375.796875 C 946.207031 369.164062 946.832031 362.390625 946.832031 355.535156 C 946.832031 343.378906 944.902344 331.640625 941.339844 320.613281 Z M 941.339844 320.613281 " fill-opacity="1" fill-rule="nonzero"/></g><path fill="#000000" d="M 791.84375 333.070312 C 795.714844 342.898438 800.910156 352.050781 807.203125 360.292969 C 812.773438 367.589844 819.207031 374.1875 826.34375 379.929688 C 818.757812 384.832031 810.511719 388.78125 801.773438 391.605469 C 791.59375 394.894531 780.707031 396.675781 769.375 396.675781 C 762.898438 396.675781 756.613281 396.105469 750.570312 395.015625 C 744.964844 394.003906 739.503906 392.542969 734.234375 390.675781 C 732.367188 385.40625 730.910156 379.949219 729.898438 374.339844 C 728.808594 368.296875 728.238281 362.015625 728.238281 355.535156 C 728.238281 344.203125 730.015625 333.316406 733.308594 323.136719 C 736.132812 314.398438 740.078125 306.15625 744.980469 298.566406 C 750.726562 305.703125 757.324219 312.136719 764.617188 317.707031 C 772.863281 324 782.011719 329.195312 791.84375 333.066406 Z M 813.769531 355.28125 C 807.574219 347.164062 802.535156 338.132812 798.898438 328.4375 L 798.238281 326.671875 L 796.472656 326.011719 C 786.777344 322.378906 777.75 317.339844 769.632812 311.140625 C 761.445312 304.890625 754.199219 297.457031 748.144531 289.09375 L 744.796875 284.46875 L 741.449219 289.09375 C 734.582031 298.582031 729.140625 309.195312 725.449219 320.617188 C 721.882812 331.640625 719.957031 343.378906 719.957031 355.535156 C 719.957031 362.390625 720.582031 369.164062 721.777344 375.796875 C 722.996094 382.542969 724.804688 389.074219 727.152344 395.332031 L 727.816406 397.097656 L 729.578125 397.761719 C 735.839844 400.105469 742.371094 401.917969 749.117188 403.132812 C 755.75 404.332031 762.523438 404.957031 769.378906 404.957031 C 781.535156 404.957031 793.269531 403.03125 804.296875 399.464844 C 815.714844 395.773438 826.328125 390.332031 835.820312 383.464844 L 840.445312 380.117188 L 835.820312 376.769531 C 827.457031 370.714844 820.023438 363.46875 813.769531 355.28125 Z M 813.769531 355.28125 " fill-opacity="1" fill-rule="nonzero"/><g clip-path="url(#bc948a5da7)"><path fill="#000000" d="M 791.84375 249.96875 C 782.011719 253.839844 772.863281 259.035156 764.617188 265.328125 C 757.324219 270.898438 750.726562 277.332031 744.980469 284.46875 C 740.082031 276.882812 736.132812 268.636719 733.308594 259.898438 C 730.015625 249.71875 728.238281 238.832031 728.238281 227.5 C 728.238281 221.023438 728.808594 214.738281 729.898438 208.695312 C 730.910156 203.089844 732.367188 197.628906 734.234375 192.359375 C 739.507812 190.492188 744.964844 189.035156 750.570312 188.023438 C 756.613281 186.933594 762.898438 186.363281 769.378906 186.363281 C 780.707031 186.363281 791.59375 188.140625 801.773438 191.433594 C 810.511719 194.257812 818.757812 198.203125 826.34375 203.105469 C 819.207031 208.851562 812.777344 215.445312 807.207031 222.742188 C 800.910156 230.988281 795.714844 240.136719 791.84375 249.96875 Z M 769.632812 271.894531 C 777.75 265.695312 786.777344 260.65625 796.472656 257.023438 L 798.238281 256.363281 L 798.898438 254.597656 C 802.535156 244.902344 807.574219 235.875 813.773438 227.753906 C 820.023438 219.570312 827.457031 212.324219 835.820312 206.269531 L 840.445312 202.921875 L 835.820312 199.574219 C 826.332031 192.703125 815.714844 187.265625 804.296875 183.574219 C 793.273438 180.007812 781.535156 178.082031 769.378906 178.082031 C 762.523438 178.082031 755.75 178.707031 749.117188 179.902344 C 742.371094 181.121094 735.839844 182.929688 729.578125 185.277344 L 727.816406 185.9375 L 727.152344 187.703125 C 724.804688 193.964844 722.996094 200.496094 721.777344 207.242188 C 720.582031 213.871094 719.957031 220.644531 719.957031 227.5 C 719.957031 239.660156 721.882812 251.394531 725.449219 262.421875 C 729.140625 273.839844 734.582031 284.453125 741.449219 293.945312 L 744.796875 298.570312 L 748.144531 293.945312 C 754.199219 285.582031 761.445312 278.144531 769.632812 271.894531 Z M 769.632812 271.894531 " fill-opacity="1" fill-rule="nonzero"/></g><g clip-path="url(#ea009543c4)"><path fill="#000000" d="M 874.945312 249.96875 C 871.070312 240.136719 865.878906 230.988281 859.582031 222.742188 C 854.011719 215.445312 847.582031 208.851562 840.445312 203.105469 C 848.03125 198.203125 856.277344 194.257812 865.011719 191.433594 C 875.191406 188.140625 886.078125 186.363281 897.410156 186.363281 C 903.890625 186.363281 910.171875 186.929688 916.214844 188.023438 C 921.824219 189.035156 927.28125 190.492188 932.550781 192.359375 C 934.417969 197.628906 935.878906 203.089844 936.890625 208.695312 C 937.980469 214.738281 938.550781 221.023438 938.550781 227.5 C 938.550781 238.832031 936.769531 249.71875 933.480469 259.898438 C 930.65625 268.636719 926.707031 276.882812 921.808594 284.46875 C 916.0625 277.332031 909.464844 270.898438 902.167969 265.328125 C 893.925781 259.035156 884.777344 253.839844 874.945312 249.964844 Z M 853.015625 227.753906 C 859.214844 235.875 864.253906 244.902344 867.886719 254.597656 L 868.546875 256.363281 L 870.3125 257.023438 C 880.007812 260.65625 889.039062 265.695312 897.15625 271.894531 C 905.34375 278.144531 912.589844 285.582031 918.640625 293.945312 L 921.988281 298.570312 L 925.335938 293.945312 C 932.207031 284.453125 937.644531 273.839844 941.339844 262.421875 C 944.902344 251.394531 946.828125 239.660156 946.828125 227.5 C 946.828125 220.644531 946.203125 213.871094 945.007812 207.242188 C 943.792969 200.496094 941.980469 193.964844 939.632812 187.703125 L 938.972656 185.9375 L 937.207031 185.277344 C 930.945312 182.929688 924.414062 181.121094 917.671875 179.902344 C 911.039062 178.707031 904.265625 178.082031 897.410156 178.082031 C 885.25 178.082031 873.515625 180.007812 862.488281 183.574219 C 851.070312 187.265625 840.457031 192.707031 830.96875 199.574219 L 826.34375 202.921875 L 830.96875 206.269531 C 839.332031 212.324219 846.765625 219.570312 853.015625 227.753906 Z M 853.015625 227.753906 " fill-opacity="1" fill-rule="nonzero"/></g><path fill="#000000" d="M 833.394531 250.378906 C 839.871094 250.378906 846.15625 250.949219 852.199219 252.039062 C 857.804688 253.050781 863.265625 254.507812 868.535156 256.375 C 870.402344 261.648438 871.863281 267.105469 872.875 272.710938 C 873.964844 278.753906 874.535156 285.039062 874.535156 291.519531 C 874.535156 297.996094 873.964844 304.28125 872.875 310.324219 C 871.863281 315.929688 870.402344 321.390625 868.535156 326.660156 C 863.265625 328.527344 857.808594 329.988281 852.199219 331 C 846.15625 332.089844 839.871094 332.65625 833.394531 332.65625 C 826.914062 332.65625 820.632812 332.089844 814.589844 331 C 808.980469 329.988281 803.523438 328.527344 798.25 326.660156 C 796.382812 321.390625 794.925781 315.929688 793.914062 310.324219 C 792.824219 304.28125 792.253906 297.996094 792.253906 291.519531 C 792.253906 285.039062 792.824219 278.753906 793.914062 272.714844 C 794.925781 267.105469 796.382812 261.648438 798.25 256.375 C 803.523438 254.507812 808.980469 253.050781 814.589844 252.039062 C 820.632812 250.949219 826.914062 250.378906 833.394531 250.378906 Z M 853.65625 243.921875 C 847.023438 242.722656 840.25 242.097656 833.394531 242.097656 C 826.539062 242.097656 819.765625 242.722656 813.132812 243.921875 C 806.386719 245.136719 799.855469 246.949219 793.59375 249.292969 L 791.832031 249.957031 L 791.167969 251.71875 C 788.824219 257.980469 787.011719 264.511719 785.796875 271.257812 C 784.597656 277.890625 783.972656 284.664062 783.972656 291.519531 C 783.972656 298.375 784.597656 305.148438 785.796875 311.777344 C 787.011719 318.523438 788.824219 325.054688 791.167969 331.316406 L 791.832031 333.082031 L 793.59375 333.742188 C 799.855469 336.089844 806.386719 337.898438 813.132812 339.117188 C 819.765625 340.3125 826.539062 340.9375 833.394531 340.9375 C 840.25 340.9375 847.023438 340.3125 853.65625 339.117188 C 860.398438 337.898438 866.929688 336.089844 873.191406 333.742188 L 874.957031 333.082031 L 875.617188 331.316406 C 877.964844 325.054688 879.773438 318.523438 880.992188 311.777344 C 882.1875 305.148438 882.8125 298.375 882.8125 291.519531 C 882.8125 284.664062 882.1875 277.890625 880.992188 271.257812 C 879.773438 264.511719 877.964844 257.980469 875.617188 251.71875 L 874.953125 249.957031 L 873.191406 249.292969 C 866.929688 246.945312 860.398438 245.136719 853.652344 243.921875 Z M 853.65625 243.921875 " fill-opacity="1" fill-rule="nonzero"/><path fill="#f765a3" d="M 874.964844 333.0625 C 884.789062 329.1875 893.929688 323.996094 902.167969 317.707031 C 909.464844 312.136719 916.0625 305.707031 921.808594 298.570312 C 926.707031 306.15625 930.65625 314.402344 933.480469 323.136719 C 936.769531 333.316406 938.550781 344.203125 938.550781 355.535156 C 938.550781 362.015625 937.980469 368.296875 936.890625 374.339844 C 935.878906 379.949219 934.417969 385.40625 932.550781 390.675781 C 927.28125 392.542969 921.824219 394.003906 916.214844 395.015625 C 910.171875 396.105469 903.890625 396.675781 897.410156 396.675781 C 886.078125 396.675781 875.191406 394.894531 865.011719 391.605469 C 856.277344 388.78125 848.03125 384.832031 840.445312 379.933594 C 847.582031 374.1875 854.011719 367.589844 859.582031 360.292969 C 865.871094 352.054688 871.066406 342.914062 874.9375 333.089844 L 874.957031 333.082031 Z M 874.964844 333.0625 " fill-opacity="1" fill-rule="evenodd"/><g clip-path="url(#db3806315e)"><path stroke-linecap="butt" transform="matrix(0.0585733, 0, 0, 0.0585733, 493.084853, 178.082003)" fill="none" stroke-linejoin="miter" d="M 6519.691529 2645.922957 C 6687.416672 2579.766559 6843.471079 2491.135659 6984.120115 2383.764891 C 7108.69688 2288.665069 7221.336151 2178.893465 7319.43702 2057.050986 C 7403.066176 2186.562806 7470.489683 2327.345221 7518.706493 2476.463877 C 7574.859403 2650.257802 7605.270006 2836.122602 7605.270006 3029.590052 C 7605.270006 3140.228625 7595.533278 3247.466013 7576.926791 3350.635315 C 7559.654102 3446.402036 7534.712073 3539.567851 7502.834293 3629.53255 C 7412.869594 3661.41033 7319.703779 3686.352359 7223.937058 3703.625048 C 7120.767755 3722.231535 7013.530368 3731.968263 6902.891795 3731.968263 C 6709.424345 3731.968263 6523.559545 3701.557661 6349.76562 3645.40475 C 6200.646964 3597.18794 6059.864548 3529.764433 5930.352729 3446.135277 C 6052.195208 3348.034408 6161.966812 3235.395137 6257.066634 3110.818372 C 6364.437402 2970.169336 6453.134992 2814.114929 6519.2247 2646.389786 L 6519.55815 2646.256407 Z M 6519.691529 2645.922957 " stroke="#332c2b" stroke-width="5.61" stroke-opacity="1" stroke-miterlimit="22.926001"/></g><path fill="#f765a3" d="M 921.808594 284.46875 C 916.0625 277.332031 909.464844 270.898438 902.167969 265.328125 C 893.929688 259.039062 884.789062 253.847656 874.964844 249.976562 L 874.957031 249.957031 L 874.9375 249.949219 C 871.066406 240.125 865.871094 230.980469 859.582031 222.742188 C 854.011719 215.449219 847.582031 208.851562 840.445312 203.105469 C 848.03125 198.207031 856.277344 194.257812 865.011719 191.433594 C 875.191406 188.140625 886.082031 186.363281 897.410156 186.363281 C 903.890625 186.363281 910.175781 186.933594 916.214844 188.023438 C 921.824219 189.035156 927.28125 190.492188 932.554688 192.359375 C 934.421875 197.628906 935.878906 203.089844 936.890625 208.695312 C 937.980469 214.738281 938.550781 221.023438 938.550781 227.503906 C 938.550781 238.832031 936.773438 249.71875 933.480469 259.898438 C 930.65625 268.636719 926.707031 276.882812 921.808594 284.46875 Z M 921.808594 284.46875 " fill-opacity="1" fill-rule="evenodd"/><g clip-path="url(#c1138c4889)"><path stroke-linecap="butt" transform="matrix(0.0585733, 0, 0, 0.0585733, 493.084853, 178.082003)" fill="none" stroke-linejoin="miter" d="M 7319.43702 1816.300384 C 7221.336151 1694.457905 7108.69688 1584.61961 6984.120115 1489.519788 C 6843.471079 1382.149021 6687.416672 1293.518121 6519.691529 1227.428413 L 6519.55815 1227.094963 L 6519.2247 1226.961583 C 6453.134992 1059.236441 6364.437402 903.115344 6257.066634 762.466308 C 6161.966812 637.956232 6052.195208 525.316961 5930.352729 427.216093 C 6059.864548 343.586936 6200.646964 276.16343 6349.76562 227.946619 C 6523.559545 171.727019 6709.491034 141.383107 6902.891795 141.383107 C 7013.530368 141.383107 7120.834445 151.119835 7223.937058 169.726322 C 7319.703779 186.99901 7412.869594 211.874349 7502.900983 243.75213 C 7534.778763 333.716829 7559.654102 426.949333 7576.926791 522.649365 C 7595.533278 625.818667 7605.270006 733.122744 7605.270006 843.761317 C 7605.270006 1037.162078 7574.926093 1223.026878 7518.706493 1396.820803 C 7470.489683 1546.006148 7403.066176 1686.788564 7319.43702 1816.300384 Z M 7319.43702 1816.300384 " stroke="#332c2b" stroke-width="5.61" stroke-opacity="1" stroke-miterlimit="22.926001"/></g><path fill="#f765a3" d="M 807.207031 222.742188 C 800.914062 230.980469 795.722656 240.125 791.851562 249.949219 L 791.832031 249.957031 L 791.824219 249.976562 C 782 253.847656 772.855469 259.039062 764.617188 265.328125 C 757.324219 270.898438 750.726562 277.332031 744.980469 284.46875 C 740.082031 276.882812 736.132812 268.632812 733.308594 259.898438 C 730.015625 249.71875 728.238281 238.832031 728.238281 227.5 C 728.238281 221.023438 728.808594 214.738281 729.898438 208.695312 C 730.910156 203.089844 732.367188 197.628906 734.234375 192.359375 C 739.507812 190.492188 744.964844 189.03125 750.570312 188.019531 C 756.613281 186.929688 762.898438 186.363281 769.378906 186.363281 C 780.707031 186.363281 791.59375 188.140625 801.773438 191.429688 C 810.511719 194.257812 818.757812 198.203125 826.34375 203.105469 C 819.207031 208.847656 812.777344 215.445312 807.207031 222.742188 Z M 807.207031 222.742188 " fill-opacity="1" fill-rule="evenodd"/><g clip-path="url(#3641ab94c1)"><path stroke-linecap="butt" transform="matrix(0.0585733, 0, 0, 0.0585733, 493.084853, 178.082003)" fill="none" stroke-linejoin="miter" d="M 5362.888221 762.466308 C 5255.450764 903.115344 5166.819864 1059.236441 5100.730155 1226.961583 L 5100.396706 1227.094963 L 5100.263326 1227.428413 C 4932.538184 1293.518121 4776.417087 1382.149021 4635.768051 1489.519788 C 4511.257975 1584.61961 4398.618704 1694.457905 4300.517836 1816.300384 C 4216.888679 1686.788564 4149.465173 1545.939458 4101.248362 1396.820803 C 4045.028762 1223.026878 4014.68485 1037.162078 4014.68485 843.694627 C 4014.68485 733.122744 4024.421578 625.818667 4043.028065 522.649365 C 4060.300753 426.949333 4085.176092 333.716829 4117.053873 243.75213 C 4207.085261 211.874349 4300.251076 186.93232 4395.951108 169.659632 C 4499.12041 151.053145 4606.424487 141.383107 4717.06306 141.383107 C 4910.463821 141.383107 5096.328621 171.727019 5270.122546 227.87993 C 5419.307891 276.16343 5560.090307 343.520246 5689.602127 427.216093 C 5567.759647 525.250272 5457.988043 637.889542 5362.888221 762.466308 Z M 5362.888221 762.466308 " stroke="#332c2b" stroke-width="5.61" stroke-opacity="1" stroke-miterlimit="22.926001"/></g><path stroke-linecap="butt" transform="matrix(0.0585733, 0, 0, 0.0585733, 493.084853, 178.082003)" fill-opacity="1" fill="#f765a3" fill-rule="evenodd" stroke-linejoin="miter" d="M 4635.768051 2383.764891 C 4776.417087 2491.135659 4932.538184 2579.833249 5100.263326 2645.922957 L 5100.396706 2646.256407 L 5100.730155 2646.389786 C 5166.819864 2814.114929 5255.450764 2970.169336 5362.888221 3110.818372 C 5457.988043 3235.395137 5567.759647 3348.034408 5689.602127 3446.068587 C 5560.090307 3529.764433 5419.307891 3597.18794 5270.122546 3645.40475 C 5096.328621 3701.557661 4910.463821 3731.968263 4717.06306 3731.968263 C 4606.424487 3731.968263 4499.12041 3722.231535 4395.951108 3703.625048 C 4300.251076 3686.352359 4207.018572 3661.41033 4117.053873 3629.53255 C 4085.176092 3539.567851 4060.300753 3446.402036 4043.028065 3350.635315 C 4024.421578 3247.466013 4014.68485 3140.228625 4014.68485 3029.590052 C 4014.68485 2836.122602 4045.028762 2650.257802 4101.248362 2476.463877 C 4149.465173 2327.278531 4216.888679 2186.562806 4300.517836 2056.984296 C 4398.618704 2178.826775 4511.257975 2288.665069 4635.768051 2383.764891 Z M 4635.768051 2383.764891 " stroke="#332c2b" stroke-width="5.61" stroke-opacity="1" stroke-miterlimit="22.926001"/><path stroke-linecap="butt" transform="matrix(0.0585733, 0, 0, 0.0585733, 493.084853, 178.082003)" fill-opacity="1" fill="#f765a3" fill-rule="evenodd" stroke-linejoin="miter" d="M 5209.96824 2536.618182 C 5178.09046 2446.653484 5153.215121 2353.420979 5135.942432 2257.720947 C 5117.335945 2154.551645 5107.599217 2047.247568 5107.599217 1936.675685 C 5107.599217 1826.037112 5117.335945 1718.733034 5135.942432 1615.630422 C 5153.215121 1519.863701 5178.09046 1426.697886 5209.96824 1336.733187 C 5299.999629 1304.788717 5393.165444 1279.913378 5488.932165 1262.640689 C 5592.101467 1244.034202 5699.338855 1234.297474 5809.977428 1234.297474 C 5920.549311 1234.297474 6027.853388 1244.034202 6131.02269 1262.640689 C 6226.722722 1279.913378 6319.955227 1304.788717 6409.919925 1336.666497 C 6441.797706 1426.697886 6466.739735 1519.863701 6484.012424 1615.630422 C 6502.618911 1718.799724 6512.355638 1826.037112 6512.355638 1936.675685 C 6512.355638 2047.247568 6502.618911 2154.551645 6484.012424 2257.720947 C 6466.739735 2353.487669 6441.797706 2446.653484 6409.919925 2536.618182 C 6319.955227 2568.495963 6226.789412 2593.437992 6131.02269 2610.710681 C 6027.853388 2629.317168 5920.549311 2639.053895 5809.977428 2639.053895 C 5699.338855 2639.053895 5592.101467 2629.317168 5488.932165 2610.710681 C 5393.165444 2593.437992 5299.999629 2568.495963 5209.96824 2536.618182 Z M 5209.96824 2536.618182 " stroke="#332c2b" stroke-width="5.61" stroke-opacity="1" stroke-miterlimit="22.926001"/><g clip-path="url(#0fcba6105c)"><path fill="#000000" d="M 518.109375 511.339844 C 513.207031 503.753906 509.261719 495.507812 506.433594 486.773438 C 503.144531 476.59375 501.367188 465.707031 501.367188 454.375 C 501.367188 447.894531 501.933594 441.613281 503.023438 435.570312 C 504.035156 429.960938 505.496094 424.503906 507.363281 419.234375 C 512.632812 417.363281 518.09375 415.90625 523.699219 414.894531 C 529.742188 413.804688 536.027344 413.234375 542.503906 413.234375 C 553.835938 413.234375 564.722656 415.011719 574.902344 418.304688 C 583.640625 421.128906 591.886719 425.078125 599.472656 429.976562 C 592.335938 435.722656 585.902344 442.320312 580.332031 449.613281 C 574.039062 457.859375 568.84375 467.007812 564.972656 476.839844 C 555.140625 480.710938 545.988281 485.90625 537.746094 492.203125 C 530.449219 497.773438 523.851562 504.203125 518.109375 511.339844 Z M 498.574219 489.296875 C 502.269531 500.714844 507.707031 511.328125 514.578125 520.816406 L 517.925781 525.441406 L 521.273438 520.816406 C 527.328125 512.453125 534.574219 505.019531 542.757812 498.769531 C 550.875 492.570312 559.90625 487.53125 569.601562 483.898438 L 571.367188 483.234375 L 572.027344 481.472656 C 575.664062 471.777344 580.703125 462.746094 586.898438 454.628906 C 593.152344 446.441406 600.585938 439.195312 608.949219 433.140625 L 613.574219 429.792969 L 608.949219 426.445312 C 599.457031 419.578125 588.84375 414.136719 577.425781 410.445312 C 566.402344 406.878906 554.664062 404.953125 542.503906 404.953125 C 535.648438 404.953125 528.875 405.578125 522.246094 406.777344 C 515.5 407.992188 508.96875 409.804688 502.707031 412.152344 L 500.941406 412.8125 L 500.28125 414.578125 C 497.933594 420.839844 496.125 427.371094 494.90625 434.113281 C 493.710938 440.746094 493.085938 447.519531 493.085938 454.375 C 493.085938 466.53125 495.011719 478.269531 498.574219 489.296875 Z M 498.574219 489.296875 " fill-opacity="1" fill-rule="nonzero"/></g><path fill="#000000" d="M 648.070312 476.839844 C 644.199219 467.007812 639.003906 457.859375 632.710938 449.617188 C 627.140625 442.320312 620.710938 435.722656 613.570312 429.976562 C 621.160156 425.078125 629.40625 421.128906 638.140625 418.304688 C 648.320312 415.015625 659.207031 413.234375 670.539062 413.234375 C 677.019531 413.234375 683.300781 413.804688 689.34375 414.894531 C 694.953125 415.90625 700.410156 417.367188 705.679688 419.234375 C 707.546875 424.503906 709.007812 429.960938 710.019531 435.570312 C 711.109375 441.613281 711.679688 447.894531 711.679688 454.375 C 711.679688 465.707031 709.898438 476.59375 706.609375 486.773438 C 703.78125 495.507812 699.835938 503.753906 694.933594 511.34375 C 689.191406 504.207031 682.59375 497.773438 675.296875 492.203125 C 667.054688 485.910156 657.90625 480.714844 648.074219 476.839844 Z M 626.144531 454.628906 C 632.34375 462.746094 637.382812 471.777344 641.015625 481.472656 L 641.679688 483.234375 L 643.441406 483.898438 C 653.136719 487.53125 662.167969 492.570312 670.285156 498.769531 C 678.46875 505.019531 685.71875 512.453125 691.769531 520.816406 L 695.117188 525.441406 L 698.464844 520.816406 C 705.335938 511.328125 710.773438 500.714844 714.46875 489.292969 C 718.03125 478.269531 719.957031 466.53125 719.957031 454.375 C 719.957031 447.519531 719.332031 440.746094 718.136719 434.113281 C 716.917969 427.367188 715.109375 420.835938 712.761719 414.574219 L 712.101562 412.8125 L 710.335938 412.148438 C 704.074219 409.804688 697.542969 407.992188 690.800781 406.777344 C 684.167969 405.578125 677.394531 404.953125 670.539062 404.953125 C 658.382812 404.953125 646.644531 406.878906 635.617188 410.445312 C 624.199219 414.136719 613.585938 419.578125 604.097656 426.445312 L 599.472656 429.792969 L 604.097656 433.140625 C 612.460938 439.195312 619.894531 446.441406 626.144531 454.628906 Z M 626.144531 454.628906 " fill-opacity="1" fill-rule="nonzero"/><g clip-path="url(#d156b098ee)"><path fill="#000000" d="M 648.070312 559.941406 C 657.902344 556.070312 667.054688 550.875 675.296875 544.578125 C 682.59375 539.007812 689.191406 532.578125 694.933594 525.441406 C 699.835938 533.027344 703.78125 541.273438 706.609375 550.011719 C 709.898438 560.191406 711.675781 571.078125 711.675781 582.410156 C 711.675781 588.886719 711.109375 595.171875 710.019531 601.214844 C 709.007812 606.820312 707.546875 612.28125 705.679688 617.550781 C 700.410156 619.417969 694.949219 620.875 689.34375 621.886719 C 683.300781 622.976562 677.015625 623.546875 670.539062 623.546875 C 659.207031 623.546875 648.320312 621.769531 638.140625 618.476562 C 629.40625 615.652344 621.160156 611.707031 613.570312 606.804688 C 620.707031 601.058594 627.140625 594.464844 632.710938 587.167969 C 639.003906 578.921875 644.199219 569.773438 648.070312 559.941406 Z M 670.285156 538.015625 C 662.167969 544.210938 653.136719 549.25 643.441406 552.886719 L 641.675781 553.546875 L 641.015625 555.3125 C 637.382812 565.007812 632.339844 574.035156 626.144531 582.152344 C 619.890625 590.339844 612.460938 597.585938 604.097656 603.640625 L 599.472656 606.988281 L 604.097656 610.335938 C 613.585938 617.203125 624.199219 622.644531 635.617188 626.335938 C 646.644531 629.902344 658.378906 631.828125 670.539062 631.828125 C 677.394531 631.828125 684.167969 631.203125 690.800781 630.007812 C 697.542969 628.789062 704.074219 626.980469 710.335938 624.632812 L 712.101562 623.972656 L 712.761719 622.207031 C 715.109375 615.945312 716.917969 609.414062 718.136719 602.667969 C 719.332031 596.039062 719.957031 589.265625 719.957031 582.410156 C 719.957031 570.25 718.03125 558.515625 714.46875 547.488281 C 710.773438 536.070312 705.335938 525.457031 698.464844 515.964844 L 695.117188 511.339844 L 691.769531 515.964844 C 685.71875 524.328125 678.46875 531.761719 670.285156 538.015625 Z M 670.285156 538.015625 " fill-opacity="1" fill-rule="nonzero"/></g><g clip-path="url(#d7ce7822b9)"><path fill="#000000" d="M 564.972656 559.941406 C 568.84375 569.773438 574.039062 578.921875 580.332031 587.167969 C 585.902344 594.460938 592.335938 601.058594 599.472656 606.804688 C 591.886719 611.703125 583.640625 615.652344 574.902344 618.476562 C 564.722656 621.769531 553.835938 623.546875 542.503906 623.546875 C 536.027344 623.546875 529.742188 622.980469 523.699219 621.886719 C 518.09375 620.875 512.632812 619.417969 507.363281 617.550781 C 505.496094 612.28125 504.035156 606.820312 503.023438 601.214844 C 501.933594 595.171875 501.367188 588.886719 501.367188 582.410156 C 501.367188 571.078125 503.144531 560.191406 506.433594 550.011719 C 509.261719 541.273438 513.207031 533.027344 518.109375 525.441406 C 523.851562 532.578125 530.449219 539.011719 537.746094 544.582031 C 545.988281 550.875 555.140625 556.070312 564.972656 559.941406 Z M 586.898438 582.152344 C 580.703125 574.035156 575.664062 565.007812 572.027344 555.3125 L 571.367188 553.546875 L 569.601562 552.886719 C 559.90625 549.253906 550.878906 544.210938 542.761719 538.015625 C 534.574219 531.761719 527.328125 524.328125 521.273438 515.964844 L 517.925781 511.339844 L 514.578125 515.964844 C 507.710938 525.457031 502.269531 536.070312 498.578125 547.488281 C 495.011719 558.511719 493.085938 570.25 493.085938 582.410156 C 493.085938 589.265625 493.710938 596.039062 494.90625 602.667969 C 496.125 609.414062 497.933594 615.945312 500.28125 622.207031 L 500.945312 623.972656 L 502.707031 624.632812 C 508.96875 626.980469 515.5 628.789062 522.246094 630.007812 C 528.878906 631.203125 535.652344 631.828125 542.507812 631.828125 C 554.664062 631.828125 566.402344 629.902344 577.425781 626.335938 C 588.84375 622.644531 599.460938 617.203125 608.949219 610.335938 L 613.574219 606.988281 L 608.949219 603.640625 C 600.585938 597.585938 593.152344 590.339844 586.902344 582.152344 Z M 586.898438 582.152344 " fill-opacity="1" fill-rule="nonzero"/></g><path fill="#000000" d="M 606.519531 559.53125 C 600.042969 559.53125 593.757812 558.960938 587.714844 557.871094 C 582.109375 556.859375 576.648438 555.402344 571.378906 553.535156 C 569.511719 548.261719 568.054688 542.804688 567.042969 537.199219 C 565.953125 531.15625 565.382812 524.871094 565.382812 518.390625 C 565.382812 511.914062 565.953125 505.628906 567.042969 499.585938 C 568.054688 493.980469 569.511719 488.519531 571.378906 483.25 C 576.648438 481.382812 582.109375 479.921875 587.714844 478.910156 C 593.757812 477.820312 600.042969 477.253906 606.519531 477.253906 C 613 477.253906 619.285156 477.820312 625.328125 478.910156 C 630.933594 479.921875 636.394531 481.382812 641.664062 483.25 C 643.53125 488.519531 644.992188 493.980469 646 499.585938 C 647.089844 505.628906 647.660156 511.914062 647.660156 518.390625 C 647.660156 524.871094 647.089844 531.15625 646 537.199219 C 644.988281 542.804688 643.53125 548.261719 641.664062 553.535156 C 636.394531 555.402344 630.933594 556.859375 625.328125 557.871094 C 619.285156 558.960938 613 559.53125 606.519531 559.53125 Z M 586.261719 565.992188 C 592.894531 567.1875 599.667969 567.8125 606.519531 567.8125 C 613.375 567.8125 620.148438 567.1875 626.78125 565.992188 C 633.527344 564.773438 640.058594 562.960938 646.320312 560.617188 L 648.085938 559.953125 L 648.746094 558.191406 C 651.09375 551.929688 652.902344 545.398438 654.121094 538.652344 C 655.316406 532.019531 655.941406 525.246094 655.941406 518.390625 C 655.941406 511.535156 655.316406 504.761719 654.121094 498.132812 C 652.902344 491.386719 651.09375 484.855469 648.746094 478.59375 L 648.085938 476.828125 L 646.320312 476.167969 C 640.058594 473.820312 633.527344 472.011719 626.78125 470.792969 C 620.152344 469.597656 613.378906 468.972656 606.523438 468.972656 C 599.667969 468.972656 592.894531 469.597656 586.261719 470.792969 C 579.515625 472.011719 572.984375 473.820312 566.722656 476.167969 L 564.960938 476.828125 L 564.296875 478.59375 C 561.953125 484.855469 560.140625 491.386719 558.925781 498.132812 C 557.726562 504.761719 557.101562 511.535156 557.101562 518.390625 C 557.101562 525.246094 557.726562 532.019531 558.925781 538.652344 C 560.140625 545.398438 561.953125 551.929688 564.300781 558.191406 L 564.960938 559.953125 L 566.726562 560.617188 C 572.988281 562.964844 579.519531 564.773438 586.261719 565.992188 Z M 586.261719 565.992188 " fill-opacity="1" fill-rule="nonzero"/><path fill="#f765a3" d="M 564.949219 476.847656 C 555.125 480.71875 545.984375 485.914062 537.746094 492.203125 C 530.449219 497.773438 523.851562 504.203125 518.109375 511.339844 C 513.207031 503.753906 509.261719 495.507812 506.433594 486.773438 C 503.144531 476.59375 501.367188 465.707031 501.367188 454.375 C 501.367188 447.894531 501.933594 441.613281 503.023438 435.570312 C 504.035156 429.960938 505.496094 424.503906 507.363281 419.234375 C 512.632812 417.363281 518.09375 415.90625 523.699219 414.894531 C 529.742188 413.804688 536.027344 413.234375 542.503906 413.234375 C 553.835938 413.234375 564.722656 415.011719 574.902344 418.304688 C 583.640625 421.128906 591.886719 425.078125 599.472656 429.976562 C 592.335938 435.722656 585.902344 442.320312 580.332031 449.613281 C 574.042969 457.851562 568.851562 466.996094 564.980469 476.820312 L 564.960938 476.828125 L 564.953125 476.847656 Z M 564.949219 476.847656 " fill-opacity="1" fill-rule="evenodd"/><g clip-path="url(#e72dafc0a9)"><path stroke-linecap="butt" transform="matrix(0.0585733, 0, 0, 0.0585733, 493.084853, 178.082003)" fill="none" stroke-linejoin="miter" d="M 1226.91292 5100.712129 C 1059.187777 5166.801837 903.13337 5255.499427 762.484335 5362.870194 C 637.907569 5457.970017 525.268298 5567.741621 427.234119 5689.5841 C 343.538273 5560.07228 276.181456 5419.289865 227.897956 5270.171209 C 171.745046 5096.377284 141.401133 4910.512484 141.401133 4717.045034 C 141.401133 4606.406461 151.071171 4499.169073 169.677658 4395.999771 C 186.950347 4300.23305 211.892376 4207.067235 243.770156 4117.102536 C 333.734855 4085.158066 426.96736 4060.282727 522.667391 4043.010038 C 625.836694 4024.403551 733.140771 4014.666823 843.712654 4014.666823 C 1037.180105 4014.666823 1223.044905 4045.010735 1396.838829 4101.230336 C 1546.024175 4149.447146 1686.806591 4216.870653 1816.31841 4300.499809 C 1694.475931 4398.600678 1584.637637 4511.239948 1489.537815 4635.750024 C 1382.167048 4776.39906 1293.536147 4932.520157 1227.446439 5100.2453 L 1227.112989 5100.378679 L 1226.97961 5100.712129 Z M 1226.91292 5100.712129 " stroke="#332c2b" stroke-width="5.61" stroke-opacity="1" stroke-miterlimit="22.926001"/></g><path fill="#f765a3" d="M 518.109375 525.441406 C 523.851562 532.578125 530.449219 539.007812 537.746094 544.578125 C 545.984375 550.871094 555.128906 556.0625 564.953125 559.933594 L 564.960938 559.953125 L 564.980469 559.960938 C 568.851562 569.785156 574.042969 578.929688 580.332031 587.167969 C 585.902344 594.460938 592.335938 601.058594 599.472656 606.804688 C 591.886719 611.703125 583.640625 615.652344 574.902344 618.476562 C 564.722656 621.769531 553.835938 623.546875 542.503906 623.546875 C 536.027344 623.546875 529.742188 622.976562 523.699219 621.886719 C 518.09375 620.875 512.632812 619.417969 507.363281 617.550781 C 505.496094 612.28125 504.035156 606.820312 503.023438 601.214844 C 501.933594 595.171875 501.363281 588.886719 501.363281 582.40625 C 501.363281 571.078125 503.144531 560.191406 506.433594 550.011719 C 509.261719 541.273438 513.207031 533.027344 518.109375 525.441406 Z M 518.109375 525.441406 " fill-opacity="1" fill-rule="evenodd"/><g clip-path="url(#27fffa9324)"><path stroke-linecap="butt" transform="matrix(0.0585733, 0, 0, 0.0585733, 493.084853, 178.082003)" fill="none" stroke-linejoin="miter" d="M 427.234119 5930.334702 C 525.268298 6052.177181 637.907569 6161.948786 762.484335 6257.048608 C 903.13337 6364.486065 1059.254467 6453.116965 1226.97961 6519.206673 L 1227.112989 6519.540123 L 1227.446439 6519.673503 C 1293.536147 6687.398645 1382.167048 6843.519742 1489.537815 6984.168778 C 1584.637637 7108.678854 1694.475931 7221.318124 1816.31841 7319.418993 C 1686.806591 7403.04815 1546.024175 7470.471656 1396.838829 7518.688466 C 1223.044905 7574.908067 1037.180105 7605.251979 843.712654 7605.251979 C 733.140771 7605.251979 625.836694 7595.515251 522.667391 7576.908764 C 426.96736 7559.636076 333.734855 7534.760737 243.770156 7502.882956 C 211.892376 7412.918257 186.950347 7319.685753 169.677658 7223.985721 C 151.071171 7120.816419 141.334443 7013.512342 141.334443 6902.873769 C 141.334443 6709.473008 171.745046 6523.608208 227.897956 6349.814283 C 276.181456 6200.628938 343.538273 6059.846522 427.234119 5930.334702 Z M 427.234119 5930.334702 " stroke="#332c2b" stroke-width="5.61" stroke-opacity="1" stroke-miterlimit="22.926001"/></g><path fill="#f765a3" d="M 632.710938 587.167969 C 639 578.929688 644.191406 569.785156 648.066406 559.960938 L 648.085938 559.953125 L 648.09375 559.933594 C 657.917969 556.0625 667.058594 550.871094 675.296875 544.582031 C 682.59375 539.011719 689.191406 532.578125 694.933594 525.441406 C 699.835938 533.027344 703.78125 541.273438 706.609375 550.011719 C 709.898438 560.191406 711.675781 571.078125 711.675781 582.410156 C 711.675781 588.886719 711.109375 595.171875 710.019531 601.214844 C 709.007812 606.820312 707.546875 612.28125 705.679688 617.550781 C 700.410156 619.417969 694.949219 620.878906 689.34375 621.886719 C 683.300781 622.980469 677.015625 623.546875 670.539062 623.546875 C 659.207031 623.546875 648.320312 621.769531 638.140625 618.476562 C 629.40625 615.652344 621.160156 611.707031 613.570312 606.804688 C 620.707031 601.058594 627.140625 594.464844 632.710938 587.167969 Z M 632.710938 587.167969 " fill-opacity="1" fill-rule="evenodd"/><g clip-path="url(#cc208b624c)"><path stroke-linecap="butt" transform="matrix(0.0585733, 0, 0, 0.0585733, 493.084853, 178.082003)" fill="none" stroke-linejoin="miter" d="M 2383.782918 6984.168778 C 2491.153685 6843.519742 2579.784585 6687.398645 2645.940984 6519.673503 L 2646.274433 6519.540123 L 2646.407813 6519.206673 C 2814.132955 6453.116965 2970.187362 6364.486065 3110.836398 6257.115298 C 3235.413164 6162.015475 3348.052435 6052.177181 3446.086613 5930.334702 C 3529.78246 6059.846522 3597.139276 6200.628938 3645.422777 6349.814283 C 3701.575687 6523.608208 3731.9196 6709.473008 3731.9196 6902.940458 C 3731.9196 7013.512342 3722.249562 7120.816419 3703.643075 7223.985721 C 3686.370386 7319.685753 3661.428357 7412.918257 3629.550576 7502.882956 C 3539.585878 7534.760737 3446.353373 7559.702766 3350.653341 7576.908764 C 3247.484039 7595.581941 3140.179962 7605.251979 3029.608079 7605.251979 C 2836.140628 7605.251979 2650.275828 7574.908067 2476.481903 7518.688466 C 2327.363248 7470.471656 2186.580832 7403.114839 2057.002322 7319.418993 C 2178.844802 7221.318124 2288.683096 7108.745544 2383.782918 6984.168778 Z M 2383.782918 6984.168778 " stroke="#332c2b" stroke-width="5.61" stroke-opacity="1" stroke-miterlimit="22.926001"/></g><path stroke-linecap="butt" transform="matrix(0.0585733, 0, 0, 0.0585733, 493.084853, 178.082003)" fill-opacity="1" fill="#f765a3" fill-rule="evenodd" stroke-linejoin="miter" d="M 3110.836398 5362.870194 C 2970.187362 5255.499427 2814.132955 5166.801837 2646.407813 5100.712129 L 2646.274433 5100.378679 L 2645.940984 5100.2453 C 2579.784585 4932.520157 2491.153685 4776.46575 2383.782918 4635.816714 C 2288.683096 4511.239948 2178.911492 4398.600678 2057.002322 4300.499809 C 2186.580832 4216.870653 2327.363248 4149.447146 2476.481903 4101.230336 C 2650.275828 4045.077425 2836.140628 4014.666823 3029.608079 4014.666823 C 3140.246652 4014.666823 3247.484039 4024.403551 3350.653341 4043.010038 C 3446.420063 4060.282727 3539.585878 4085.224756 3629.550576 4117.102536 C 3661.428357 4207.067235 3686.370386 4300.23305 3703.643075 4395.999771 C 3722.249562 4499.169073 3731.986289 4606.406461 3731.986289 4717.045034 C 3731.986289 4910.512484 3701.575687 5096.377284 3645.422777 5270.171209 C 3597.139276 5419.289865 3529.78246 5560.07228 3446.086613 5689.65079 C 3348.052435 5567.808311 3235.413164 5457.970017 3110.836398 5362.870194 Z M 3110.836398 5362.870194 " stroke="#332c2b" stroke-width="5.61" stroke-opacity="1" stroke-miterlimit="22.926001"/><path stroke-linecap="butt" transform="matrix(0.0585733, 0, 0, 0.0585733, 493.084853, 178.082003)" fill-opacity="1" fill="#f765a3" fill-rule="evenodd" stroke-linejoin="miter" d="M 2536.636209 5210.016904 C 2568.513989 5299.981602 2593.456019 5393.147417 2610.662017 5488.914138 C 2629.268504 5592.083441 2639.005232 5699.320828 2639.005232 5809.959401 C 2639.005232 5920.597974 2629.268504 6027.902051 2610.662017 6131.004664 C 2593.389329 6226.771385 2568.513989 6319.9372 2536.636209 6409.901899 C 2446.67151 6441.846369 2353.439006 6466.721708 2257.738974 6483.994397 C 2154.569672 6502.600884 2047.265594 6512.337612 1936.627021 6512.337612 C 1826.055138 6512.337612 1718.751061 6502.600884 1615.581759 6483.994397 C 1519.881727 6466.721708 1426.649223 6441.846369 1336.684524 6409.968589 C 1304.806743 6319.9372 1279.931404 6226.771385 1262.658716 6131.004664 C 1244.052229 6027.835362 1234.315501 5920.597974 1234.315501 5809.959401 C 1234.315501 5699.320828 1244.052229 5592.083441 1262.658716 5488.914138 C 1279.931404 5393.147417 1304.806743 5299.981602 1336.684524 5210.016904 C 1426.649223 5178.139123 1519.881727 5153.197094 1615.581759 5135.924405 C 1718.751061 5117.317918 1826.055138 5107.58119 1936.627021 5107.58119 C 2047.265594 5107.58119 2154.569672 5117.317918 2257.738974 5135.924405 C 2353.439006 5153.197094 2446.67151 5178.139123 2536.636209 5210.016904 Z M 2536.636209 5210.016904 " stroke="#332c2b" stroke-width="5.61" stroke-opacity="1" stroke-miterlimit="22.926001"/><g clip-path="url(#7f148d7318)"><path fill="#000000" d="M 921.808594 511.339844 C 926.707031 503.753906 930.65625 495.507812 933.480469 486.773438 C 936.769531 476.59375 938.550781 465.707031 938.550781 454.375 C 938.550781 447.894531 937.980469 441.613281 936.890625 435.570312 C 935.878906 429.960938 934.417969 424.503906 932.550781 419.234375 C 927.28125 417.363281 921.824219 415.90625 916.214844 414.894531 C 910.171875 413.804688 903.890625 413.234375 897.410156 413.234375 C 886.078125 413.234375 875.191406 415.011719 865.011719 418.304688 C 856.277344 421.128906 848.03125 425.078125 840.445312 429.976562 C 847.582031 435.722656 854.011719 442.320312 859.582031 449.613281 C 865.878906 457.859375 871.070312 467.007812 874.945312 476.839844 C 884.777344 480.710938 893.925781 485.90625 902.167969 492.203125 C 909.464844 497.773438 916.0625 504.203125 921.808594 511.339844 Z M 941.339844 489.296875 C 937.648438 500.714844 932.207031 511.328125 925.339844 520.816406 L 921.992188 525.441406 L 918.644531 520.816406 C 912.589844 512.453125 905.34375 505.019531 897.15625 498.769531 C 889.039062 492.570312 880.007812 487.53125 870.3125 483.898438 L 868.546875 483.234375 L 867.886719 481.472656 C 864.253906 471.777344 859.214844 462.746094 853.015625 454.628906 C 846.765625 446.441406 839.332031 439.195312 830.96875 433.140625 L 826.34375 429.792969 L 830.96875 426.445312 C 840.457031 419.578125 851.070312 414.136719 862.492188 410.445312 C 873.515625 406.878906 885.25 404.953125 897.410156 404.953125 C 904.265625 404.953125 911.039062 405.578125 917.671875 406.777344 C 924.414062 407.992188 930.949219 409.804688 937.207031 412.152344 L 938.972656 412.8125 L 939.636719 414.578125 C 941.980469 420.839844 943.792969 427.371094 945.007812 434.113281 C 946.207031 440.746094 946.832031 447.519531 946.832031 454.375 C 946.832031 466.53125 944.902344 478.269531 941.339844 489.296875 Z M 941.339844 489.296875 " fill-opacity="1" fill-rule="nonzero"/></g><path fill="#000000" d="M 791.84375 476.839844 C 795.714844 467.007812 800.910156 457.859375 807.203125 449.617188 C 812.773438 442.320312 819.207031 435.722656 826.34375 429.976562 C 818.757812 425.078125 810.511719 421.128906 801.773438 418.304688 C 791.59375 415.015625 780.707031 413.234375 769.375 413.234375 C 762.898438 413.234375 756.613281 413.804688 750.570312 414.894531 C 744.964844 415.90625 739.503906 417.367188 734.234375 419.234375 C 732.367188 424.503906 730.910156 429.960938 729.898438 435.570312 C 728.808594 441.613281 728.238281 447.894531 728.238281 454.375 C 728.238281 465.707031 730.015625 476.59375 733.308594 486.773438 C 736.132812 495.507812 740.078125 503.753906 744.980469 511.34375 C 750.726562 504.207031 757.324219 497.773438 764.617188 492.203125 C 772.863281 485.910156 782.011719 480.714844 791.84375 476.839844 Z M 813.769531 454.628906 C 807.574219 462.746094 802.535156 471.777344 798.898438 481.472656 L 798.238281 483.234375 L 796.472656 483.898438 C 786.777344 487.53125 777.75 492.570312 769.632812 498.769531 C 761.445312 505.019531 754.199219 512.453125 748.144531 520.816406 L 744.796875 525.441406 L 741.449219 520.816406 C 734.582031 511.328125 729.140625 500.714844 725.449219 489.292969 C 721.882812 478.269531 719.957031 466.53125 719.957031 454.375 C 719.957031 447.519531 720.582031 440.746094 721.777344 434.113281 C 722.996094 427.367188 724.804688 420.835938 727.152344 414.574219 L 727.816406 412.8125 L 729.578125 412.148438 C 735.839844 409.804688 742.371094 407.992188 749.117188 406.777344 C 755.75 405.578125 762.523438 404.953125 769.378906 404.953125 C 781.535156 404.953125 793.269531 406.878906 804.296875 410.445312 C 815.714844 414.136719 826.328125 419.578125 835.820312 426.445312 L 840.445312 429.792969 L 835.820312 433.140625 C 827.457031 439.195312 820.023438 446.441406 813.769531 454.628906 Z M 813.769531 454.628906 " fill-opacity="1" fill-rule="nonzero"/><g clip-path="url(#0a00fdafe6)"><path fill="#000000" d="M 791.84375 559.941406 C 782.011719 556.070312 772.863281 550.875 764.617188 544.578125 C 757.324219 539.007812 750.726562 532.578125 744.980469 525.441406 C 740.082031 533.027344 736.132812 541.273438 733.308594 550.011719 C 730.015625 560.191406 728.238281 571.078125 728.238281 582.410156 C 728.238281 588.886719 728.808594 595.171875 729.898438 601.214844 C 730.910156 606.820312 732.367188 612.28125 734.234375 617.550781 C 739.507812 619.417969 744.964844 620.875 750.570312 621.886719 C 756.613281 622.976562 762.898438 623.546875 769.378906 623.546875 C 780.707031 623.546875 791.59375 621.769531 801.773438 618.476562 C 810.511719 615.652344 818.757812 611.707031 826.34375 606.804688 C 819.207031 601.058594 812.777344 594.464844 807.207031 587.167969 C 800.910156 578.921875 795.714844 569.773438 791.84375 559.941406 Z M 769.632812 538.015625 C 777.75 544.210938 786.777344 549.25 796.472656 552.886719 L 798.238281 553.546875 L 798.898438 555.3125 C 802.535156 565.007812 807.574219 574.035156 813.773438 582.152344 C 820.023438 590.339844 827.457031 597.585938 835.820312 603.640625 L 840.445312 606.988281 L 835.820312 610.335938 C 826.332031 617.203125 815.714844 622.644531 804.296875 626.335938 C 793.273438 629.902344 781.535156 631.828125 769.378906 631.828125 C 762.523438 631.828125 755.75 631.203125 749.117188 630.007812 C 742.371094 628.789062 735.839844 626.980469 729.578125 624.632812 L 727.816406 623.972656 L 727.152344 622.207031 C 724.804688 615.945312 722.996094 609.414062 721.777344 602.667969 C 720.582031 596.039062 719.957031 589.265625 719.957031 582.410156 C 719.957031 570.25 721.882812 558.515625 725.449219 547.488281 C 729.140625 536.070312 734.582031 525.457031 741.449219 515.964844 L 744.796875 511.339844 L 748.144531 515.964844 C 754.199219 524.328125 761.445312 531.761719 769.632812 538.015625 Z M 769.632812 538.015625 " fill-opacity="1" fill-rule="nonzero"/></g><g clip-path="url(#6cff180ffd)"><path fill="#000000" d="M 874.945312 559.941406 C 871.070312 569.773438 865.878906 578.921875 859.582031 587.167969 C 854.011719 594.460938 847.582031 601.058594 840.445312 606.804688 C 848.03125 611.703125 856.277344 615.652344 865.011719 618.476562 C 875.191406 621.769531 886.078125 623.546875 897.410156 623.546875 C 903.890625 623.546875 910.171875 622.980469 916.214844 621.886719 C 921.824219 620.875 927.28125 619.417969 932.550781 617.550781 C 934.417969 612.28125 935.878906 606.820312 936.890625 601.214844 C 937.980469 595.171875 938.550781 588.886719 938.550781 582.410156 C 938.550781 571.078125 936.769531 560.191406 933.480469 550.011719 C 930.65625 541.273438 926.707031 533.027344 921.808594 525.441406 C 916.0625 532.578125 909.464844 539.011719 902.167969 544.582031 C 893.925781 550.875 884.777344 556.070312 874.945312 559.941406 Z M 853.015625 582.152344 C 859.214844 574.035156 864.253906 565.007812 867.886719 555.3125 L 868.546875 553.546875 L 870.3125 552.886719 C 880.007812 549.253906 889.039062 544.210938 897.15625 538.015625 C 905.34375 531.761719 912.589844 524.328125 918.640625 515.964844 L 921.988281 511.339844 L 925.335938 515.964844 C 932.207031 525.457031 937.644531 536.070312 941.339844 547.488281 C 944.902344 558.511719 946.828125 570.25 946.828125 582.410156 C 946.828125 589.265625 946.203125 596.039062 945.007812 602.667969 C 943.792969 609.414062 941.980469 615.945312 939.632812 622.207031 L 938.972656 623.972656 L 937.207031 624.632812 C 930.945312 626.980469 924.414062 628.789062 917.671875 630.007812 C 911.039062 631.203125 904.265625 631.828125 897.410156 631.828125 C 885.25 631.828125 873.515625 629.902344 862.488281 626.335938 C 851.070312 622.644531 840.457031 617.203125 830.96875 610.335938 L 826.34375 606.988281 L 830.96875 603.640625 C 839.332031 597.585938 846.765625 590.339844 853.015625 582.152344 Z M 853.015625 582.152344 " fill-opacity="1" fill-rule="nonzero"/></g><path fill="#000000" d="M 833.394531 559.53125 C 839.871094 559.53125 846.15625 558.960938 852.199219 557.871094 C 857.804688 556.859375 863.265625 555.402344 868.535156 553.535156 C 870.402344 548.261719 871.863281 542.804688 872.875 537.199219 C 873.964844 531.15625 874.535156 524.871094 874.535156 518.390625 C 874.535156 511.914062 873.964844 505.628906 872.875 499.585938 C 871.863281 493.980469 870.402344 488.519531 868.535156 483.25 C 863.265625 481.382812 857.808594 479.921875 852.199219 478.910156 C 846.15625 477.820312 839.871094 477.253906 833.394531 477.253906 C 826.914062 477.253906 820.632812 477.820312 814.589844 478.910156 C 808.980469 479.921875 803.523438 481.382812 798.25 483.25 C 796.382812 488.519531 794.925781 493.980469 793.914062 499.585938 C 792.824219 505.628906 792.253906 511.914062 792.253906 518.390625 C 792.253906 524.871094 792.824219 531.15625 793.914062 537.199219 C 794.925781 542.804688 796.382812 548.261719 798.25 553.535156 C 803.523438 555.402344 808.980469 556.859375 814.589844 557.871094 C 820.632812 558.960938 826.914062 559.53125 833.394531 559.53125 Z M 853.65625 565.992188 C 847.023438 567.1875 840.25 567.8125 833.394531 567.8125 C 826.539062 567.8125 819.765625 567.1875 813.132812 565.992188 C 806.386719 564.773438 799.855469 562.960938 793.59375 560.617188 L 791.832031 559.953125 L 791.167969 558.191406 C 788.824219 551.929688 787.011719 545.398438 785.796875 538.652344 C 784.597656 532.019531 783.972656 525.246094 783.972656 518.390625 C 783.972656 511.535156 784.597656 504.761719 785.796875 498.132812 C 787.011719 491.386719 788.824219 484.855469 791.167969 478.59375 L 791.832031 476.828125 L 793.59375 476.167969 C 799.855469 473.820312 806.386719 472.011719 813.132812 470.792969 C 819.765625 469.597656 826.539062 468.972656 833.394531 468.972656 C 840.25 468.972656 847.023438 469.597656 853.65625 470.792969 C 860.398438 472.011719 866.929688 473.820312 873.191406 476.167969 L 874.957031 476.828125 L 875.617188 478.59375 C 877.964844 484.855469 879.773438 491.386719 880.992188 498.132812 C 882.1875 504.761719 882.8125 511.535156 882.8125 518.390625 C 882.8125 525.246094 882.1875 532.019531 880.992188 538.652344 C 879.773438 545.398438 877.964844 551.929688 875.617188 558.191406 L 874.953125 559.953125 L 873.191406 560.617188 C 866.929688 562.964844 860.398438 564.773438 853.652344 565.992188 Z M 853.65625 565.992188 " fill-opacity="1" fill-rule="nonzero"/><path fill="#f765a3" d="M 874.964844 476.847656 C 884.789062 480.71875 893.929688 485.914062 902.167969 492.203125 C 909.464844 497.773438 916.0625 504.203125 921.808594 511.339844 C 926.707031 503.753906 930.65625 495.507812 933.480469 486.773438 C 936.769531 476.59375 938.550781 465.707031 938.550781 454.375 C 938.550781 447.894531 937.980469 441.613281 936.890625 435.570312 C 935.878906 429.960938 934.417969 424.503906 932.550781 419.234375 C 927.28125 417.363281 921.824219 415.90625 916.214844 414.894531 C 910.171875 413.804688 903.890625 413.234375 897.410156 413.234375 C 886.078125 413.234375 875.191406 415.011719 865.011719 418.304688 C 856.277344 421.128906 848.03125 425.078125 840.445312 429.976562 C 847.582031 435.722656 854.011719 442.320312 859.582031 449.613281 C 865.871094 457.851562 871.066406 466.996094 874.9375 476.820312 L 874.957031 476.828125 Z M 874.964844 476.847656 " fill-opacity="1" fill-rule="evenodd"/><g clip-path="url(#af3c76733e)"><path stroke-linecap="butt" transform="matrix(0.0585733, 0, 0, 0.0585733, 493.084853, 178.082003)" fill="none" stroke-linejoin="miter" d="M 6519.691529 5100.712129 C 6687.416672 5166.801837 6843.471079 5255.499427 6984.120115 5362.870194 C 7108.69688 5457.970017 7221.336151 5567.741621 7319.43702 5689.5841 C 7403.066176 5560.07228 7470.489683 5419.289865 7518.706493 5270.171209 C 7574.859403 5096.377284 7605.270006 4910.512484 7605.270006 4717.045034 C 7605.270006 4606.406461 7595.533278 4499.169073 7576.926791 4395.999771 C 7559.654102 4300.23305 7534.712073 4207.067235 7502.834293 4117.102536 C 7412.869594 4085.158066 7319.703779 4060.282727 7223.937058 4043.010038 C 7120.767755 4024.403551 7013.530368 4014.666823 6902.891795 4014.666823 C 6709.424345 4014.666823 6523.559545 4045.010735 6349.76562 4101.230336 C 6200.646964 4149.447146 6059.864548 4216.870653 5930.352729 4300.499809 C 6052.195208 4398.600678 6161.966812 4511.239948 6257.066634 4635.750024 C 6364.437402 4776.39906 6453.134992 4932.520157 6519.2247 5100.2453 L 6519.55815 5100.378679 Z M 6519.691529 5100.712129 " stroke="#332c2b" stroke-width="5.61" stroke-opacity="1" stroke-miterlimit="22.926001"/></g><path fill="#f765a3" d="M 921.808594 525.441406 C 916.0625 532.578125 909.464844 539.007812 902.167969 544.578125 C 893.929688 550.871094 884.789062 556.0625 874.964844 559.933594 L 874.957031 559.953125 L 874.9375 559.960938 C 871.066406 569.785156 865.871094 578.929688 859.582031 587.167969 C 854.011719 594.460938 847.582031 601.058594 840.445312 606.804688 C 848.03125 611.703125 856.277344 615.652344 865.011719 618.476562 C 875.191406 621.769531 886.082031 623.546875 897.410156 623.546875 C 903.890625 623.546875 910.175781 622.976562 916.214844 621.886719 C 921.824219 620.875 927.28125 619.417969 932.554688 617.550781 C 934.421875 612.28125 935.878906 606.820312 936.890625 601.214844 C 937.980469 595.171875 938.550781 588.886719 938.550781 582.40625 C 938.550781 571.078125 936.773438 560.191406 933.480469 550.011719 C 930.65625 541.273438 926.707031 533.027344 921.808594 525.441406 Z M 921.808594 525.441406 " fill-opacity="1" fill-rule="evenodd"/><g clip-path="url(#684b267267)"><path stroke-linecap="butt" transform="matrix(0.0585733, 0, 0, 0.0585733, 493.084853, 178.082003)" fill="none" stroke-linejoin="miter" d="M 7319.43702 5930.334702 C 7221.336151 6052.177181 7108.69688 6161.948786 6984.120115 6257.048608 C 6843.471079 6364.486065 6687.416672 6453.116965 6519.691529 6519.206673 L 6519.55815 6519.540123 L 6519.2247 6519.673503 C 6453.134992 6687.398645 6364.437402 6843.519742 6257.066634 6984.168778 C 6161.966812 7108.678854 6052.195208 7221.318124 5930.352729 7319.418993 C 6059.864548 7403.04815 6200.646964 7470.471656 6349.76562 7518.688466 C 6523.559545 7574.908067 6709.491034 7605.251979 6902.891795 7605.251979 C 7013.530368 7605.251979 7120.834445 7595.515251 7223.937058 7576.908764 C 7319.703779 7559.636076 7412.869594 7534.760737 7502.900983 7502.882956 C 7534.778763 7412.918257 7559.654102 7319.685753 7576.926791 7223.985721 C 7595.533278 7120.816419 7605.270006 7013.512342 7605.270006 6902.873769 C 7605.270006 6709.473008 7574.926093 6523.608208 7518.706493 6349.814283 C 7470.489683 6200.628938 7403.066176 6059.846522 7319.43702 5930.334702 Z M 7319.43702 5930.334702 " stroke="#332c2b" stroke-width="5.61" stroke-opacity="1" stroke-miterlimit="22.926001"/></g><path fill="#f765a3" d="M 807.207031 587.167969 C 800.914062 578.929688 795.722656 569.785156 791.851562 559.960938 L 791.832031 559.953125 L 791.824219 559.933594 C 782 556.0625 772.855469 550.871094 764.617188 544.582031 C 757.324219 539.011719 750.726562 532.578125 744.980469 525.441406 C 740.082031 533.027344 736.132812 541.273438 733.308594 550.011719 C 730.015625 560.191406 728.238281 571.078125 728.238281 582.410156 C 728.238281 588.886719 728.808594 595.171875 729.898438 601.214844 C 730.910156 606.820312 732.367188 612.28125 734.234375 617.550781 C 739.507812 619.417969 744.964844 620.878906 750.570312 621.886719 C 756.613281 622.980469 762.898438 623.546875 769.378906 623.546875 C 780.707031 623.546875 791.59375 621.769531 801.773438 618.476562 C 810.511719 615.652344 818.757812 611.707031 826.34375 606.804688 C 819.207031 601.058594 812.777344 594.464844 807.207031 587.167969 Z M 807.207031 587.167969 " fill-opacity="1" fill-rule="evenodd"/><g clip-path="url(#ae99ea37b2)"><path stroke-linecap="butt" transform="matrix(0.0585733, 0, 0, 0.0585733, 493.084853, 178.082003)" fill="none" stroke-linejoin="miter" d="M 5362.888221 6984.168778 C 5255.450764 6843.519742 5166.819864 6687.398645 5100.730155 6519.673503 L 5100.396706 6519.540123 L 5100.263326 6519.206673 C 4932.538184 6453.116965 4776.417087 6364.486065 4635.768051 6257.115298 C 4511.257975 6162.015475 4398.618704 6052.177181 4300.517836 5930.334702 C 4216.888679 6059.846522 4149.465173 6200.628938 4101.248362 6349.814283 C 4045.028762 6523.608208 4014.68485 6709.473008 4014.68485 6902.940458 C 4014.68485 7013.512342 4024.421578 7120.816419 4043.028065 7223.985721 C 4060.300753 7319.685753 4085.176092 7412.918257 4117.053873 7502.882956 C 4207.085261 7534.760737 4300.251076 7559.702766 4395.951108 7576.908764 C 4499.12041 7595.581941 4606.424487 7605.251979 4717.06306 7605.251979 C 4910.463821 7605.251979 5096.328621 7574.908067 5270.122546 7518.688466 C 5419.307891 7470.471656 5560.090307 7403.114839 5689.602127 7319.418993 C 5567.759647 7221.318124 5457.988043 7108.745544 5362.888221 6984.168778 Z M 5362.888221 6984.168778 " stroke="#332c2b" stroke-width="5.61" stroke-opacity="1" stroke-miterlimit="22.926001"/></g><path stroke-linecap="butt" transform="matrix(0.0585733, 0, 0, 0.0585733, 493.084853, 178.082003)" fill-opacity="1" fill="#f765a3" fill-rule="evenodd" stroke-linejoin="miter" d="M 4635.768051 5362.870194 C 4776.417087 5255.499427 4932.538184 5166.801837 5100.263326 5100.712129 L 5100.396706 5100.378679 L 5100.730155 5100.2453 C 5166.819864 4932.520157 5255.450764 4776.46575 5362.888221 4635.816714 C 5457.988043 4511.239948 5567.759647 4398.600678 5689.602127 4300.499809 C 5560.090307 4216.870653 5419.307891 4149.447146 5270.122546 4101.230336 C 5096.328621 4045.077425 4910.463821 4014.666823 4717.06306 4014.666823 C 4606.424487 4014.666823 4499.12041 4024.403551 4395.951108 4043.010038 C 4300.251076 4060.282727 4207.018572 4085.224756 4117.053873 4117.102536 C 4085.176092 4207.067235 4060.300753 4300.23305 4043.028065 4395.999771 C 4024.421578 4499.169073 4014.68485 4606.406461 4014.68485 4717.045034 C 4014.68485 4910.512484 4045.028762 5096.377284 4101.248362 5270.171209 C 4149.465173 5419.289865 4216.888679 5560.07228 4300.517836 5689.65079 C 4398.618704 5567.808311 4511.257975 5457.970017 4635.768051 5362.870194 Z M 4635.768051 5362.870194 " stroke="#332c2b" stroke-width="5.61" stroke-opacity="1" stroke-miterlimit="22.926001"/><path stroke-linecap="butt" transform="matrix(0.0585733, 0, 0, 0.0585733, 493.084853, 178.082003)" fill-opacity="1" fill="#f765a3" fill-rule="evenodd" stroke-linejoin="miter" d="M 5209.96824 5210.016904 C 5178.09046 5299.981602 5153.215121 5393.147417 5135.942432 5488.914138 C 5117.335945 5592.083441 5107.599217 5699.320828 5107.599217 5809.959401 C 5107.599217 5920.597974 5117.335945 6027.902051 5135.942432 6131.004664 C 5153.215121 6226.771385 5178.09046 6319.9372 5209.96824 6409.901899 C 5299.999629 6441.846369 5393.165444 6466.721708 5488.932165 6483.994397 C 5592.101467 6502.600884 5699.338855 6512.337612 5809.977428 6512.337612 C 5920.549311 6512.337612 6027.853388 6502.600884 6131.02269 6483.994397 C 6226.722722 6466.721708 6319.955227 6441.846369 6409.919925 6409.968589 C 6441.797706 6319.9372 6466.739735 6226.771385 6484.012424 6131.004664 C 6502.618911 6027.835362 6512.355638 5920.597974 6512.355638 5809.959401 C 6512.355638 5699.320828 6502.618911 5592.083441 6484.012424 5488.914138 C 6466.739735 5393.147417 6441.797706 5299.981602 6409.919925 5210.016904 C 6319.955227 5178.139123 6226.789412 5153.197094 6131.02269 5135.924405 C 6027.853388 5117.317918 5920.549311 5107.58119 5809.977428 5107.58119 C 5699.338855 5107.58119 5592.101467 5117.317918 5488.932165 5135.924405 C 5393.165444 5153.197094 5299.999629 5178.139123 5209.96824 5210.016904 Z M 5209.96824 5210.016904 " stroke="#332c2b" stroke-width="5.61" stroke-opacity="1" stroke-miterlimit="22.926001"/></svg>