<svg xmlns="http://www.w3.org/2000/svg" xmlns:xlink="http://www.w3.org/1999/xlink" width="1920" zoomAndPan="magnify" viewBox="0 0 1440 809.999993" height="1080" preserveAspectRatio="xMidYMid meet" version="1.0"><defs><clipPath id="f998b73c5a"><path d="M 399.179688 198.507812 L 1040 198.507812 L 1040 611.757812 L 399.179688 611.757812 Z M 399.179688 198.507812 " clip-rule="nonzero"/></clipPath></defs><path fill="#87ddb7" d="M 808.425781 477.910156 L 903.789062 468.601562 L 1008.628906 505.507812 L 1027.078125 497.832031 L 950.820312 464.03125 L 1024.304688 482.808594 L 1037.859375 477.09375 L 880.765625 426.800781 L 881.253906 426.472656 L 908.199219 429.085938 L 700.320312 338.128906 L 588.296875 281.136719 L 548.289062 211.734375 L 484.441406 200.46875 L 401.976562 212.714844 L 446.066406 224.308594 L 476.277344 272.972656 L 480.847656 297.304688 L 477.257812 363.765625 L 528.042969 456.03125 L 629.613281 505.019531 L 643.167969 530.984375 L 631.734375 578.992188 L 578.5 609.367188 L 624.386719 609.367188 L 656.71875 556.785156 L 696.402344 513.347656 L 806.953125 478.402344 Z M 808.425781 477.910156 " fill-opacity="1" fill-rule="evenodd"/><g clip-path="url(#f998b73c5a)"><path fill="#001d54" d="M 478.5625 273.789062 L 482.480469 295.019531 L 585.03125 279.503906 L 547.636719 215 Z M 628.632812 583.074219 L 586.175781 607.40625 L 622.753906 607.40625 Z M 626.183594 610.347656 C 626.019531 610.507812 626.019531 610.671875 625.855469 610.835938 C 625.855469 610.835938 625.855469 610.835938 625.695312 611 C 625.367188 611.324219 624.878906 611.488281 624.386719 611.488281 L 578.5 611.488281 C 577.847656 611.488281 577.03125 611.164062 576.703125 610.507812 C 576.214844 609.53125 576.542969 608.222656 577.519531 607.734375 L 629.941406 577.6875 L 641.042969 531.308594 L 628.144531 506.816406 L 527.0625 458.152344 C 526.734375 457.988281 526.246094 457.664062 526.082031 457.335938 L 475.296875 365.074219 C 475.132812 364.746094 474.96875 364.417969 474.96875 363.929688 L 478.398438 297.628906 L 473.988281 273.953125 L 444.757812 226.105469 L 401.648438 214.675781 C 400.832031 214.511719 400.179688 213.859375 400.015625 213.042969 C 399.851562 211.898438 400.667969 210.917969 401.8125 210.757812 L 484.113281 198.507812 C 484.277344 198.507812 484.277344 198.507812 484.441406 198.507812 L 484.605469 198.507812 L 548.617188 209.777344 C 549.269531 209.941406 549.761719 210.265625 550.085938 210.917969 L 589.769531 279.503906 L 701.300781 336.332031 L 909.015625 427.125 C 909.996094 427.617188 910.484375 428.757812 909.996094 429.738281 C 909.667969 430.554688 908.6875 431.042969 907.871094 430.882812 L 897.910156 429.902344 L 1038.511719 474.808594 C 1039.652344 475.136719 1040.144531 476.277344 1039.816406 477.421875 C 1039.652344 478.074219 1039.164062 478.566406 1038.675781 478.726562 L 1025.285156 484.605469 C 1024.792969 484.769531 1024.46875 484.769531 1023.976562 484.769531 L 974.171875 472.03125 L 1028.058594 495.875 C 1028.550781 496.039062 1028.875 496.527344 1029.039062 497.015625 C 1029.53125 497.996094 1029.039062 499.304688 1027.898438 499.628906 L 1009.445312 507.304688 C 1008.953125 507.46875 1008.464844 507.46875 1007.972656 507.304688 L 903.464844 470.726562 L 808.75 479.871094 C 808.585938 479.871094 808.425781 479.871094 808.425781 479.871094 C 808.261719 480.035156 807.933594 480.199219 807.769531 480.199219 L 697.707031 514.980469 L 658.515625 557.925781 Z M 644.964844 530.003906 L 657.210938 553.191406 L 692.320312 514.816406 L 639.574219 508.285156 L 633.367188 507.46875 Z M 654.433594 556.621094 L 643.984375 536.535156 L 633.695312 579.320312 L 629.285156 597.28125 Z M 520.691406 438.394531 L 503.875 381.890625 L 482.15625 309.222656 L 479.378906 363.441406 Z M 489.503906 319.675781 L 526.410156 443.617188 L 530 350.375 L 582.910156 285.21875 L 482.972656 300.242188 Z M 945.59375 466.644531 L 913.097656 469.746094 L 1008.464844 503.222656 L 1021.855469 497.671875 L 950.492188 466.152344 Z M 861.007812 443.292969 L 815.773438 475.296875 L 939.0625 463.378906 L 918.488281 458.152344 Z M 859.375 439.371094 L 875.539062 427.941406 L 707.179688 411.613281 L 808.261719 475.460938 Z M 881.089844 429.085938 L 865.414062 440.191406 L 951.308594 462.234375 L 1024.140625 480.851562 L 1031.980469 477.421875 Z M 802.21875 477.75 L 700.8125 412.429688 L 698.523438 510.40625 Z M 881.253906 424.511719 C 881.253906 424.511719 881.417969 424.511719 881.417969 424.511719 L 895.460938 425.820312 L 702.28125 341.230469 L 700.972656 406.875 L 790.296875 415.695312 Z M 694.441406 511.0625 L 696.726562 415.367188 L 633.367188 503.550781 L 668.96875 507.957031 Z M 630.917969 499.792969 L 695.257812 410.46875 L 617.203125 401.324219 Z M 613.28125 402.46875 L 567.558594 432.679688 L 532.289062 455.867188 L 627.328125 501.753906 Z M 588.136719 385.648438 L 533.921875 353.804688 L 532.941406 380.914062 L 530.164062 452.109375 L 610.996094 398.875 Z M 593.851562 347.925781 L 538.65625 351.84375 L 615.40625 396.914062 L 696.890625 406.550781 L 698.199219 340.414062 Z M 588.789062 283.585938 L 578.828125 295.835938 L 536.53125 347.925781 L 614.261719 342.375 L 692.808594 336.660156 Z M 445.738281 222.1875 L 474.96875 204.0625 L 412.101562 213.207031 Z M 476.765625 269.871094 L 543.71875 213.042969 L 484.929688 202.753906 L 468.765625 212.714844 L 449.003906 224.960938 Z M 476.765625 269.871094 " fill-opacity="1" fill-rule="nonzero"/></g></svg>