<svg xmlns="http://www.w3.org/2000/svg" xmlns:xlink="http://www.w3.org/1999/xlink" width="1920" zoomAndPan="magnify" viewBox="0 0 1440 809.999993" height="1080" preserveAspectRatio="xMidYMid meet" version="1.0"><defs><clipPath id="23e07fe846"><path d="M 850 475 L 959.851562 475 L 959.851562 610 L 850 610 Z M 850 475 " clip-rule="nonzero"/></clipPath><clipPath id="488c046a64"><path d="M 850 518 L 959.851562 518 L 959.851562 610 L 850 610 Z M 850 518 " clip-rule="nonzero"/></clipPath><clipPath id="0443da4c3c"><path d="M 748 459 L 959.851562 459 L 959.851562 498 L 748 498 Z M 748 459 " clip-rule="nonzero"/></clipPath><clipPath id="08a1616e93"><path d="M 748 459 L 959.851562 459 L 959.851562 478 L 748 478 Z M 748 459 " clip-rule="nonzero"/></clipPath><clipPath id="908066ee8b"><path d="M 748 475 L 959.851562 475 L 959.851562 498 L 748 498 Z M 748 475 " clip-rule="nonzero"/></clipPath><clipPath id="3cef8a03c0"><path d="M 694 609 L 772 609 L 772 728.976562 L 694 728.976562 Z M 694 609 " clip-rule="nonzero"/></clipPath><clipPath id="e466d273e9"><path d="M 694 609 L 772 609 L 772 728.976562 L 694 728.976562 Z M 694 609 " clip-rule="nonzero"/></clipPath><clipPath id="a6e867f7b8"><path d="M 757 720 L 764 720 L 764 728.976562 L 757 728.976562 Z M 757 720 " clip-rule="nonzero"/></clipPath><clipPath id="3ff2ee1a55"><path d="M 485 83.226562 L 732 83.226562 L 732 105 L 485 105 Z M 485 83.226562 " clip-rule="nonzero"/></clipPath><clipPath id="7643d98ae1"><path d="M 602 83.226562 L 742 83.226562 L 742 241 L 602 241 Z M 602 83.226562 " clip-rule="nonzero"/></clipPath><clipPath id="a998479d06"><path d="M 602 83.226562 L 737 83.226562 L 737 157 L 602 157 Z M 602 83.226562 " clip-rule="nonzero"/></clipPath></defs><path fill="#fcbd82" d="M 620.515625 585.886719 C 603.980469 583.742188 588.15625 585.402344 572.976562 587.820312 C 551.964844 591.160156 532.191406 595.949219 513.355469 594.09375 C 502.332031 593.015625 486.976562 585.257812 484.589844 599.835938 C 482.6875 611.539062 488.617188 615.007812 480.207031 645.964844 C 479.851562 647.238281 480.433594 650.800781 484.285156 650.300781 C 485.945312 653.960938 488.617188 652.074219 488.617188 652.074219 C 488.617188 652.074219 489.003906 653.121094 489.714844 653.800781 C 490.761719 654.816406 492.40625 655.445312 493.792969 654.171875 C 494.710938 656.347656 496.789062 656.910156 497.949219 656.445312 C 498.996094 656.007812 499.15625 654.574219 499.15625 654.574219 C 499.15625 654.574219 502.027344 661.714844 506.539062 658.039062 C 509.324219 655.765625 506.070312 653.816406 508.875 638.144531 C 511.664062 622.472656 511.386719 617.78125 511.386719 617.78125 C 511.386719 617.78125 597.4375 623.457031 613.167969 623.457031 C 628.910156 623.472656 634.164062 599.125 620.515625 585.886719 Z M 620.515625 585.886719 " fill-opacity="1" fill-rule="nonzero"/><path fill="#fdd1ac" d="M 573.011719 587.789062 C 551.996094 591.128906 532.222656 595.917969 513.386719 594.0625 C 502.363281 592.980469 487.007812 585.226562 484.621094 599.800781 C 482.722656 611.507812 488.652344 614.972656 480.238281 645.933594 C 480.238281 645.933594 485.492188 636.597656 486.460938 622.308594 C 487.265625 610.316406 485.136719 602.367188 487.3125 597.867188 C 489.632812 593.03125 492.003906 592.449219 501.414062 594.09375 C 510.839844 595.738281 514.273438 595.980469 524.632812 595.804688 C 540.363281 595.546875 551.578125 592.980469 559.070312 591.757812 C 568.949219 590.144531 573.011719 587.789062 573.011719 587.789062 Z M 573.011719 587.789062 " fill-opacity="1" fill-rule="nonzero"/><path fill="#f4a569" d="M 508.84375 638.207031 C 511.628906 622.535156 511.355469 617.84375 511.355469 617.84375 C 511.355469 617.84375 597.40625 623.519531 613.136719 623.519531 C 628.863281 623.519531 634.164062 599.171875 620.515625 585.933594 C 603.980469 583.792969 588.15625 585.453125 572.976562 587.871094 C 572.976562 587.871094 576.007812 602.976562 593.765625 610.445312 C 564.613281 614.636719 536.609375 611.78125 509.875 606.21875 C 502.558594 604.703125 495.257812 600.074219 492.308594 603.800781 C 489.667969 607.136719 490.890625 619.054688 490.132812 627.777344 C 489.28125 637.546875 488.714844 642.675781 498.320312 645.207031 C 507.664062 647.65625 507.746094 644.480469 508.84375 638.207031 Z M 508.84375 638.207031 " fill-opacity="1" fill-rule="nonzero"/><path fill="#f4a569" d="M 500.609375 648.042969 C 500.832031 651.15625 500.558594 654.007812 501.382812 655.492188 C 503.136719 658.765625 506.523438 658.074219 506.523438 658.074219 C 502.011719 661.75 499.140625 654.605469 499.140625 654.605469 C 499.140625 654.605469 499.398438 652.832031 499.707031 648.09375 C 499.816406 646.0625 500.496094 646.558594 500.609375 648.042969 Z M 500.609375 648.042969 " fill-opacity="1" fill-rule="nonzero"/><path fill="#f4a569" d="M 494.824219 655.71875 C 494.402344 655.347656 494.03125 654.847656 493.773438 654.203125 C 493.773438 654.203125 495.175781 649.816406 495.160156 646.496094 C 495.160156 645.511719 497.109375 649.542969 494.824219 655.71875 Z M 494.824219 655.71875 " fill-opacity="1" fill-rule="nonzero"/><path fill="#f4a569" d="M 489.699219 653.832031 C 488.988281 653.15625 488.601562 652.105469 488.601562 652.105469 C 488.601562 652.105469 490.070312 647.738281 490.390625 644.625 C 490.457031 644.011719 491.261719 646.753906 490.746094 650.171875 C 490.488281 652.171875 489.699219 653.832031 489.699219 653.832031 Z M 489.699219 653.832031 " fill-opacity="1" fill-rule="nonzero"/><path fill="#f4a569" d="M 485.476562 651.996094 C 485.058594 651.640625 484.636719 651.125 484.269531 650.300781 C 484.269531 650.300781 485.925781 649.996094 485.960938 642.625 C 486.828125 642.949219 486.75 646.882812 486.570312 649.171875 C 486.394531 651.511719 485.476562 651.996094 485.476562 651.996094 Z M 485.476562 651.996094 " fill-opacity="1" fill-rule="nonzero"/><path stroke-linecap="round" transform="matrix(0.161144, 0, 0, 0.161237, 480.126462, 83.506108)" fill="none" stroke-linejoin="round" d="M 27.698073 3513.60161 C 27.698073 3513.60161 33.806736 3515.394394 35.891438 3476.60726 " stroke="#4a2915" stroke-width="2.723" stroke-opacity="1" stroke-miterlimit="10"/><path stroke-linecap="round" transform="matrix(0.161144, 0, 0, 0.161237, 480.126462, 83.506108)" fill="none" stroke-linejoin="round" d="M 53.296277 3524.988214 C 53.296277 3524.988214 59.307976 3514.401095 62.095659 3486.80675 " stroke="#4a2915" stroke-width="2.723" stroke-opacity="1" stroke-miterlimit="10"/><path stroke-linecap="round" transform="matrix(0.161144, 0, 0, 0.161237, 480.126462, 83.506108)" fill="none" stroke-linejoin="round" d="M 85.609161 3537.101622 C 85.609161 3537.101622 90.505787 3521.911408 92.711693 3497.00624 " stroke="#4a2915" stroke-width="2.723" stroke-opacity="1" stroke-miterlimit="10"/><path stroke-linecap="round" transform="matrix(0.161144, 0, 0, 0.161237, 480.126462, 83.506108)" fill="none" stroke-linejoin="round" d="M 117.703878 3540.493377 C 117.994767 3540.105748 120.588524 3519.706768 121.097579 3506.188204 " stroke="#4a2915" stroke-width="2.723" stroke-opacity="1" stroke-miterlimit="10"/><path fill="#4b2812" d="M 686.070312 384.210938 C 686.390625 389.226562 684.503906 402.5625 684.28125 403.511719 C 678.074219 430.566406 658.675781 466.847656 639.335938 432.566406 C 634.035156 423.152344 616.984375 436.824219 606.078125 437.339844 C 584.53125 438.355469 595.746094 411.878906 588.207031 407.351562 C 579.132812 401.917969 567.820312 415.332031 558.8125 411.140625 C 549.804688 406.960938 559.601562 387.808594 559.601562 387.808594 C 578.488281 351.496094 576.730469 322.265625 577.296875 293.597656 C 577.296875 293.597656 588.929688 328.972656 624.671875 352.722656 C 660.414062 376.472656 686.070312 384.210938 686.070312 384.210938 Z M 686.070312 384.210938 " fill-opacity="1" fill-rule="nonzero"/><path fill="#4b2812" d="M 789.75 342.886719 C 790.039062 342.953125 787.652344 369.992188 776.195312 408.976562 C 771.070312 426.359375 764.402344 434.597656 754.699219 435.179688 C 745 435.761719 749.09375 423.085938 738.230469 423.617188 C 728.496094 424.085938 735.007812 435.308594 718.28125 435.921875 C 701.554688 436.515625 693.917969 406.703125 708.433594 383.535156 C 722.9375 360.367188 770.234375 338.261719 789.75 342.886719 Z M 789.75 342.886719 " fill-opacity="1" fill-rule="nonzero"/><path fill="#00a99a" d="M 951.261719 586.726562 L 842.589844 613.023438 L 843.941406 725.4375 L 950.570312 694.351562 Z M 951.261719 586.726562 " fill-opacity="1" fill-rule="nonzero"/><path fill="#008d80" d="M 742.066406 586.597656 L 842.589844 613.023438 L 843.941406 725.4375 L 745.335938 694.171875 Z M 742.066406 586.597656 " fill-opacity="1" fill-rule="nonzero"/><path fill="#007875" d="M 851.046875 571.941406 L 951.261719 586.726562 L 842.589844 613.007812 L 742.066406 586.597656 Z M 851.046875 571.941406 " fill-opacity="1" fill-rule="nonzero"/><g clip-path="url(#23e07fe846)"><path fill="#f427a6" d="M 959.851562 475.101562 L 850.886719 497.5625 L 850.886719 609.976562 L 957.871094 582.710938 Z M 959.851562 475.101562 " fill-opacity="1" fill-rule="nonzero"/></g><g clip-path="url(#488c046a64)"><path fill="#d2047b" d="M 959.046875 518.394531 C 911.363281 578.519531 850.886719 550.558594 850.886719 550.558594 L 850.886719 609.960938 L 957.871094 582.710938 C 957.871094 582.710938 958.675781 538.175781 959.046875 518.394531 Z M 959.046875 518.394531 " fill-opacity="1" fill-rule="nonzero"/></g><path fill="#d2047b" d="M 748.6875 477.070312 L 850.886719 497.5625 L 850.886719 609.976562 L 750.671875 584.679688 Z M 748.6875 477.070312 " fill-opacity="1" fill-rule="nonzero"/><path fill="#b70071" d="M 749.574219 525.648438 C 749.574219 525.648438 787.605469 569.199219 850.886719 550.59375 C 850.886719 576.359375 850.886719 609.992188 850.886719 609.992188 L 750.671875 584.695312 Z M 749.574219 525.648438 " fill-opacity="1" fill-rule="nonzero"/><g clip-path="url(#0443da4c3c)"><path fill="#d2047b" d="M 859.796875 459.15625 L 959.851562 475.117188 L 850.886719 497.546875 L 748.6875 477.085938 Z M 859.796875 459.15625 " fill-opacity="1" fill-rule="nonzero"/></g><g clip-path="url(#08a1616e93)"><path fill="#f469a6" d="M 859.796875 459.15625 L 959.851562 475.117188 L 859.410156 463.394531 L 748.6875 477.085938 Z M 859.796875 459.15625 " fill-opacity="1" fill-rule="nonzero"/></g><g clip-path="url(#908066ee8b)"><path fill="#b70071" d="M 856.832031 478.34375 L 959.851562 475.117188 L 850.886719 497.546875 L 748.6875 477.085938 Z M 856.832031 478.34375 " fill-opacity="1" fill-rule="nonzero"/></g><path fill="#fcbd82" d="M 814.113281 235.164062 C 814.113281 235.164062 807.089844 201.144531 815.226562 205.335938 C 818.433594 205.707031 821.332031 234.730469 822.929688 235.292969 C 824.539062 235.84375 815.582031 201.015625 822.929688 201.046875 C 828.632812 201.046875 831.550781 237.246094 832.742188 237.808594 C 833.933594 238.390625 830.148438 206.902344 835.273438 206.449219 C 840.203125 207.222656 840.734375 238.859375 841.847656 239.582031 C 842.441406 239.953125 843.152344 235.199219 842.910156 228.636719 C 842.492188 217.21875 845.730469 212.058594 848.613281 213.6875 C 852 232.296875 852.644531 249.046875 844.117188 268.910156 C 832.226562 325.683594 831.96875 359.882812 819.785156 377.261719 C 809.214844 392.386719 782.738281 410.863281 784.527344 406.558594 C 769.703125 416.8125 766.851562 376.601562 771.234375 372.585938 C 775.617188 368.554688 792.328125 356.882812 792.328125 356.882812 C 800.351562 322.199219 812.277344 297.160156 816.484375 266.492188 C 817.238281 260.964844 811.617188 249.484375 806.476562 244.386719 C 801.351562 239.292969 796.035156 237.566406 796.035156 237.566406 C 796.035156 237.566406 794.035156 232.699219 797.582031 232.3125 C 801.125 231.925781 814.113281 235.164062 814.113281 235.164062 Z M 814.113281 235.164062 " fill-opacity="1" fill-rule="nonzero"/><path fill="#f4a569" d="M 814.113281 235.164062 C 814.113281 235.164062 807.089844 201.144531 815.226562 205.335938 C 818.433594 205.707031 821.332031 234.730469 822.929688 235.292969 C 824.539062 235.84375 815.582031 201.015625 822.929688 201.046875 C 828.632812 201.046875 831.550781 237.246094 832.742188 237.808594 C 833.933594 238.390625 830.148438 206.902344 835.273438 206.449219 C 840.203125 207.222656 840.734375 238.859375 841.847656 239.582031 C 842.441406 239.953125 843.152344 235.199219 842.910156 228.636719 C 842.492188 217.21875 845.730469 212.058594 848.613281 213.6875 C 846.972656 223.105469 854.769531 238.953125 837.269531 272.023438 C 822.945312 303.933594 821.671875 332.699219 822.75 347.175781 C 823.816406 361.625 825.894531 368.589844 819.816406 377.277344 C 809.246094 392.402344 782.769531 410.882812 784.558594 406.574219 C 769.734375 416.832031 766.882812 376.617188 771.265625 372.601562 C 775.648438 368.574219 792.359375 356.898438 792.359375 356.898438 C 800.382812 322.21875 812.308594 297.175781 816.515625 266.507812 C 817.273438 260.980469 811.648438 249.5 806.507812 244.402344 C 801.382812 239.308594 796.066406 237.582031 796.066406 237.582031 C 796.066406 237.582031 794.066406 232.714844 797.613281 232.328125 C 801.125 231.925781 814.113281 235.164062 814.113281 235.164062 Z M 814.113281 235.164062 " fill-opacity="1" fill-rule="nonzero"/><g clip-path="url(#3cef8a03c0)"><path fill="#fcbd82" d="M 712.433594 702.734375 C 712.078125 708.152344 706.308594 715.070312 709.902344 718.441406 C 714.1875 722.46875 728.820312 725.597656 742.453125 727.5 C 742.453125 727.5 748.238281 728.421875 755.136719 728.453125 C 755.136719 728.453125 762.46875 728.679688 767.914062 726.128906 C 773.34375 723.597656 770.878906 719.570312 770.878906 719.570312 C 769.703125 719.132812 768.476562 718.617188 767.238281 718.035156 C 758.179688 713.910156 746.820312 706.507812 733.527344 702.832031 C 733.527344 702.832031 727.835938 621.261719 727.273438 616.667969 C 727.273438 616.667969 704.566406 601.640625 694.949219 614.539062 C 694.898438 648.269531 716.667969 686.933594 712.433594 702.734375 " fill-opacity="1" fill-rule="nonzero"/><path fill="#fcbd82" d="M 712.433594 702.734375 C 712.078125 708.152344 706.308594 715.070312 709.902344 718.441406 C 714.1875 722.46875 728.820312 725.597656 742.453125 727.5 C 742.453125 727.5 748.238281 728.421875 755.136719 728.453125 C 755.136719 728.453125 762.46875 728.679688 767.914062 726.128906 C 773.34375 723.597656 770.878906 719.570312 770.878906 719.570312 C 769.703125 719.132812 768.476562 718.617188 767.238281 718.035156 C 758.179688 713.910156 746.820312 706.507812 733.527344 702.832031 C 733.527344 702.832031 727.835938 621.261719 727.273438 616.667969 C 727.273438 616.667969 704.566406 601.640625 694.949219 614.539062 C 694.898438 648.269531 716.667969 686.933594 712.433594 702.734375 " fill-opacity="1" fill-rule="nonzero"/></g><path fill="#fdd1ac" d="M 731.351562 704.285156 C 738.554688 706.074219 743.417969 707.621094 759.679688 715.667969 C 763.386719 717.503906 767.222656 718.085938 767.222656 718.085938 C 758.164062 713.957031 746.804688 706.558594 733.507812 702.878906 C 733.507812 702.878906 729.011719 636.707031 728.207031 628.484375 C 728.207031 628.484375 726.820312 632.128906 727.242188 639.773438 C 727.660156 647.398438 728.789062 665.601562 729.382812 675.617188 C 729.949219 685.597656 731.351562 704.285156 731.351562 704.285156 Z M 731.351562 704.285156 " fill-opacity="1" fill-rule="nonzero"/><g clip-path="url(#e466d273e9)"><path fill="#f4a569" d="M 770.878906 719.585938 C 770.847656 720.359375 770.621094 721.035156 770.25 721.648438 C 770.074219 720.535156 769.1875 719.90625 768.527344 720.035156 C 769.992188 722.050781 768.300781 723.519531 768.253906 723.566406 C 767.960938 723.746094 767.625 723.921875 767.269531 724.082031 C 767.496094 723.375 767.429688 722.375 767.027344 721.601562 C 767.125 722.875 766.367188 724.453125 764.273438 725.082031 C 763.757812 725.195312 763.222656 725.324219 762.644531 725.40625 C 763.304688 723.953125 763.144531 722.101562 762.644531 721.566406 C 762.675781 722.890625 762.660156 725.210938 759.824219 725.710938 C 758.839844 725.871094 757.90625 725.890625 756.8125 725.9375 C 758.019531 724.839844 758.132812 723.246094 757.601562 721.777344 C 757.457031 725.664062 752.136719 725.808594 750.929688 725.761719 C 737.425781 725.261719 723.808594 721.117188 716.71875 718.3125 C 710.304688 715.78125 715.589844 711.683594 716.75 704.652344 C 716.75 704.652344 719.925781 692.011719 712.398438 666.167969 C 706.777344 646.785156 702.796875 636 710.242188 634 C 721.328125 631.035156 728.09375 627.875 728.09375 627.875 C 727.546875 620.519531 727.335938 617.78125 727.207031 616.714844 C 727.207031 616.714844 704.503906 601.6875 694.882812 614.585938 C 694.882812 648.285156 716.652344 686.949219 712.414062 702.75 C 711.351562 707.960938 706.292969 715.085938 709.886719 718.457031 C 714.171875 722.488281 728.804688 725.613281 742.4375 727.515625 C 742.4375 727.515625 748.222656 728.4375 755.117188 728.46875 C 755.117188 728.46875 762.449219 728.695312 767.898438 726.148438 C 773.328125 723.617188 770.878906 719.585938 770.878906 719.585938 Z M 770.878906 719.585938 " fill-opacity="1" fill-rule="nonzero"/></g><path stroke-linecap="round" transform="matrix(0.161144, 0, 0, 0.161237, 480.126462, 83.506108)" fill="none" stroke-linejoin="round" d="M 1674.103742 3945.105447 C 1674.103742 3945.105447 1725.106223 3940.599259 1724.088113 3968.193603 C 1722.900317 3990.603409 1699.992834 3995.909082 1675.291537 3995.594133 " stroke="#4a2915" stroke-width="2.305" stroke-opacity="1" stroke-miterlimit="10"/><g clip-path="url(#a6e867f7b8)"><path stroke-linecap="round" transform="matrix(0.161144, 0, 0, 0.161237, 480.126462, 83.506108)" fill="none" stroke-linejoin="round" d="M 1724.694131 3951.307512 C 1724.694131 3951.307512 1750.898352 3947.697716 1754.898072 3961.410094 C 1759.18868 3976.188453 1751.504371 3994.697741 1727.506055 3996.199804 " stroke="#4a2915" stroke-width="2.305" stroke-opacity="1" stroke-miterlimit="10"/></g><path stroke-linecap="round" transform="matrix(0.161144, 0, 0, 0.161237, 480.126462, 83.506108)" fill="none" stroke-linejoin="round" d="M 1755.18896 3951.210605 C 1755.18896 3951.210605 1778.193407 3947.988438 1781.902237 3960.198754 C 1785.708031 3973.111647 1779.090313 3988.810624 1757.903921 3992.202379 " stroke="#4a2915" stroke-width="2.305" stroke-opacity="1" stroke-miterlimit="10"/><path stroke-linecap="round" transform="matrix(0.161144, 0, 0, 0.161237, 480.126462, 83.506108)" fill="none" stroke-linejoin="round" d="M 1770.993912 3947.188953 C 1770.993912 3947.188953 1793.707469 3942.392043 1798.288966 3954.190503 C 1803.209833 3966.909582 1798.288966 3981.106497 1776.690482 3986.509077 " stroke="#4a2915" stroke-width="2.305" stroke-opacity="1" stroke-miterlimit="10"/><path stroke-linecap="round" transform="matrix(0.161144, 0, 0, 0.161237, 480.126462, 83.506108)" fill="none" stroke-linejoin="round" d="M 1790.992508 3943.288435 C 1790.992508 3943.288435 1805.900553 3939.993588 1807.791329 3953.003389 C 1809.391217 3964.196178 1801.997797 3975.292061 1793.901395 3977.496701 " stroke="#4a2915" stroke-width="2.305" stroke-opacity="1" stroke-miterlimit="10"/><path fill="#f36c29" d="M 617.519531 512.363281 C 617.519531 512.363281 614.921875 517.734375 610.847656 525.828125 C 605.0625 537.257812 596.277344 554.15625 587.625 569.003906 C 583.984375 575.246094 580.359375 581.164062 576.972656 586.113281 C 599.792969 622.359375 682.605469 640.902344 730.835938 618.070312 C 731.171875 611.363281 731.367188 604.878906 731.445312 598.640625 C 731.800781 572.957031 730.335938 551.6875 729.109375 538.953125 C 728.320312 530.746094 727.644531 526.085938 727.644531 526.085938 C 727.644531 526.085938 669.324219 547.933594 617.519531 512.363281 Z M 617.519531 512.363281 " fill-opacity="1" fill-rule="nonzero"/><path fill="#f3ad15" d="M 729.03125 537.804688 C 729.03125 537.804688 727.917969 541.886719 727.757812 551.058594 C 727.59375 560.234375 728.851562 582.597656 729.078125 587.773438 C 729.398438 594.789062 731.429688 599.816406 731.429688 599.816406 C 731.800781 574.117188 730.238281 550.527344 729.03125 537.804688 Z M 729.03125 537.804688 " fill-opacity="1" fill-rule="nonzero"/><path fill="#f3ad15" d="M 586.917969 570.214844 C 586.917969 570.214844 592.1875 566.492188 596.246094 559.378906 C 598.082031 556.121094 601.273438 550.140625 606.15625 540.773438 C 611.023438 531.40625 611.441406 524.632812 611.441406 524.632812 C 605.65625 536.066406 595.570312 555.382812 586.917969 570.214844 Z M 586.917969 570.214844 " fill-opacity="1" fill-rule="nonzero"/><path fill="#f15a29" d="M 731.445312 599.800781 C 731.351562 605.671875 731.15625 611.78125 730.835938 618.039062 C 682.605469 640.867188 599.792969 622.34375 576.972656 586.082031 C 580.117188 581.4375 583.515625 575.988281 586.902344 570.199219 C 586.902344 570.199219 587.65625 580.90625 598.582031 592.433594 C 601.515625 595.527344 632.664062 545.949219 632.664062 545.949219 C 632.664062 545.949219 614.375 604.605469 617.050781 605.992188 C 623.207031 609.203125 630.859375 611.425781 639.578125 614.523438 C 643.347656 615.84375 662.011719 562.832031 662.011719 562.832031 C 662.011719 562.832031 656.191406 617.988281 659.707031 618.457031 C 671.128906 619.925781 679.832031 619.84375 688.46875 618.601562 C 692.933594 617.972656 698.910156 572.859375 698.910156 572.859375 C 698.910156 572.859375 705.824219 614.507812 709.386719 613.328125 C 724.535156 608.378906 731.445312 599.800781 731.445312 599.800781 Z M 731.445312 599.800781 " fill-opacity="1" fill-rule="nonzero"/><path fill="#f15a29" d="M 617.519531 512.363281 C 617.519531 512.363281 615.179688 517.199219 611.441406 524.632812 C 615.519531 529.566406 619.855469 532.921875 626.65625 536.160156 C 629.039062 537.289062 613.101562 581.210938 615.714844 582.164062 C 618.324219 583.113281 640.898438 541.773438 643.6875 542.546875 C 648.039062 543.738281 652.582031 544.707031 657.191406 545.480469 C 660.285156 545.996094 651.085938 592.644531 654.226562 592.980469 C 657.351562 593.320312 672.804688 547.320312 675.917969 547.464844 C 680.929688 547.722656 684.394531 547.804688 689.148438 547.625 C 692.449219 547.511719 695.816406 597.304688 698.894531 596.996094 C 701.972656 596.707031 703.714844 546.464844 706.4375 545.996094 C 716.023438 544.320312 725.839844 541.335938 728.980469 537.804688 C 728.257812 530.308594 727.628906 526.085938 727.628906 526.085938 C 727.628906 526.085938 669.324219 547.933594 617.519531 512.363281 Z M 617.519531 512.363281 " fill-opacity="1" fill-rule="nonzero"/><path fill="#740ef6" d="M 691.675781 385.019531 L 691.707031 385.019531 C 705.46875 388.148438 719.085938 383.792969 729.253906 382.566406 C 755.054688 379.421875 782.03125 364.042969 782.03125 364.042969 C 782.03125 364.042969 801.222656 378.8125 785.976562 411.589844 C 767.15625 422.152344 737.457031 444.0625 737.457031 444.0625 C 734.25 467.121094 727.691406 526.085938 727.691406 526.085938 C 727.691406 526.085938 712.542969 539.191406 668.875 535.164062 C 622.03125 530.839844 617.519531 512.363281 617.519531 512.363281 L 631.570312 432.261719 C 631.570312 432.261719 609.027344 419.714844 571.269531 389.308594 C 584.257812 372.199219 582.695312 350.644531 572.914062 340.277344 C 651.214844 377.488281 676.078125 382.9375 691.675781 385.019531 Z M 691.675781 385.019531 " fill-opacity="1" fill-rule="nonzero"/><path fill="#a166ff" d="M 580.601562 360.71875 C 580.308594 352.511719 577.503906 345.144531 572.898438 340.257812 C 651.230469 377.472656 676.09375 382.921875 691.660156 385.003906 L 691.691406 385.003906 C 705.453125 388.128906 719.070312 383.777344 729.238281 382.550781 C 755.039062 379.40625 782.015625 364.027344 782.015625 364.027344 C 782.015625 364.027344 789.523438 369.796875 791.410156 382.117188 C 791.410156 382.117188 786.203125 372.152344 780.597656 369.910156 C 753.410156 383.730469 721.714844 391.855469 692.03125 389.613281 C 662.332031 387.371094 580.695312 347.984375 580.695312 347.984375 Z M 580.601562 360.71875 " fill-opacity="1" fill-rule="nonzero"/><path fill="#5306cc" d="M 690.308594 420.363281 C 651.003906 418.683594 642.738281 370.992188 642.738281 370.992188 C 646.296875 370.507812 669.953125 382.664062 729.253906 382.550781 C 729.253906 382.550781 727.964844 421.988281 690.308594 420.363281 Z M 690.308594 420.363281 " fill-opacity="1" fill-rule="nonzero"/><path fill="#f5b810" d="M 690.160156 408.011719 C 665.214844 406.285156 656.191406 380.679688 656.707031 374.828125 C 675.644531 380.019531 696.429688 381.40625 720.570312 382.453125 C 720.375 385.921875 718.476562 410.527344 690.160156 408.011719 Z M 690.160156 408.011719 " fill-opacity="1" fill-rule="nonzero"/><path fill="#5306cc" d="M 631.570312 432.277344 L 627.445312 453.800781 C 623.367188 479.488281 617.5 512.378906 617.5 512.378906 C 617.5 512.378906 621.996094 530.855469 668.859375 535.179688 C 712.527344 539.210938 727.675781 526.101562 727.675781 526.101562 C 727.675781 526.101562 734.234375 467.105469 737.441406 444.078125 C 737.441406 444.078125 767.140625 422.183594 785.960938 411.605469 C 787.460938 408.15625 790.699219 400.820312 791.601562 392.953125 C 791.601562 392.953125 782.191406 406.285156 756.085938 420.894531 C 732.914062 432.824219 740.246094 383.179688 735.25 399.820312 C 732.625 430.003906 730.191406 464.925781 722.292969 491.597656 C 716.605469 510.71875 712.449219 530.035156 672.855469 527.050781 C 633.277344 524.085938 631.230469 501.609375 632.714844 484.808594 C 634.195312 468.023438 646.378906 395.726562 642.703125 395.726562 C 641.15625 395.726562 638.464844 407.816406 636.386719 411.945312 C 631.199219 422.25 586.660156 398.144531 580.101562 353.933594 C 581.46875 366.894531 578.554688 375.910156 576.972656 379.148438 C 570.042969 379.761719 559.875 375.199219 559.875 375.199219 C 559.875 375.199219 561.230469 389.824219 571.253906 396.871094 C 598.746094 416.121094 631.570312 432.277344 631.570312 432.277344 Z M 631.570312 432.277344 " fill-opacity="1" fill-rule="nonzero"/><path fill="#ee9e5d" d="M 712.335938 381.859375 C 712.335938 381.859375 711.640625 397.59375 689.613281 395.757812 C 669.503906 394.082031 670.792969 378.988281 670.792969 378.988281 C 670.792969 378.988281 710.5 375.441406 712.335938 381.859375 Z M 712.335938 381.859375 " fill-opacity="1" fill-rule="nonzero"/><path fill="#f3ad15" d="M 667.875 540.578125 C 665.570312 539.613281 646.023438 617.925781 648.714844 619.488281 C 651.4375 621.054688 670.179688 541.546875 667.875 540.578125 Z M 667.875 540.578125 " fill-opacity="1" fill-rule="nonzero"/><path fill="#f3ad15" d="M 605.820312 603.574219 C 608.15625 605.65625 640.175781 535.421875 638.113281 534.015625 C 636.050781 532.582031 603.480469 601.496094 605.820312 603.574219 Z M 605.820312 603.574219 " fill-opacity="1" fill-rule="nonzero"/><path fill="#f3ad15" d="M 697.832031 539.933594 C 695.351562 539.53125 696.269531 619.277344 699.28125 620.132812 C 702.261719 621.019531 700.3125 540.335938 697.832031 539.933594 Z M 697.832031 539.933594 " fill-opacity="1" fill-rule="nonzero"/><path fill="#e28540" d="M 815.917969 238.035156 C 815.917969 238.035156 829.601562 240.613281 833.417969 256.496094 C 835.691406 265.15625 835.046875 243.757812 822.105469 238.519531 C 833.046875 241.003906 837.511719 243.550781 841.605469 247.660156 C 845.683594 251.742188 833.144531 233.183594 815.917969 238.035156 Z M 815.917969 238.035156 " fill-opacity="1" fill-rule="nonzero"/><path fill="#fcbd82" d="M 779.160156 302.207031 C 779.160156 302.207031 787.652344 290.984375 797.917969 298.289062 C 808.875 306.109375 814.355469 342.582031 777.824219 345.484375 C 780.46875 338.46875 780.855469 317.6875 779.160156 302.207031 Z M 779.160156 302.207031 " fill-opacity="1" fill-rule="nonzero"/><path stroke-linecap="round" transform="matrix(0.161144, 0, 0, 0.161237, 480.126462, 83.506108)" fill-opacity="1" fill="#ee9e5d" fill-rule="nonzero" stroke-linejoin="round" d="M 1858.890774 1475.399499 C 1862.211753 1460.911862 1902.208946 1387.795329 1967.295287 1387.795329 C 1955.005241 1387.189658 1938.109457 1392.907187 1938.109457 1392.907187 C 1973.597875 1463.601039 1915.807991 1518.692821 1915.807991 1518.692821 L 1934.109737 1528.698496 C 1874.695725 1488.990743 1858.09083 1548.709847 1858.09083 1548.709847 Z M 1858.890774 1475.399499 " stroke="#e28540" stroke-width="7.145" stroke-opacity="1" stroke-miterlimit="10"/><path fill="#fdd1ac" d="M 791.039062 295.839844 C 797.757812 296.046875 804.558594 302.386719 805.976562 315.507812 C 807.234375 327.117188 801.691406 334.550781 798.722656 337.324219 C 803.332031 327.667969 806.25 314.058594 798.660156 303.933594 C 791.648438 294.613281 783.222656 299.722656 779.015625 302.207031 C 783.980469 296.902344 786.71875 296.03125 791.039062 295.839844 Z M 791.039062 295.839844 " fill-opacity="1" fill-rule="nonzero"/><path fill="#fcbd82" d="M 616.890625 311.074219 C 616.890625 311.074219 606.914062 300.964844 597.519531 309.367188 C 587.464844 318.316406 586.304688 355.078125 622.917969 353.964844 C 619.53125 347.273438 616.90625 326.636719 616.890625 311.074219 Z M 616.890625 311.074219 " fill-opacity="1" fill-rule="nonzero"/><path fill="#fdd1ac" d="M 617.066406 310.914062 C 617.066406 310.914062 611.3125 304.964844 604.222656 306.15625 C 596.359375 307.464844 593.894531 315.1875 593.894531 315.1875 C 593.894531 315.1875 597.261719 309.945312 604.253906 309.222656 C 612.328125 308.382812 614.648438 312.703125 617.066406 310.914062 Z M 617.066406 310.914062 " fill-opacity="1" fill-rule="nonzero"/><path stroke-linecap="round" transform="matrix(0.161144, 0, 0, 0.161237, 480.126462, 83.506108)" fill-opacity="1" fill="#ee9e5d" fill-rule="nonzero" stroke-linejoin="round" d="M 858.500374 1530.006744 C 853.603748 1515.906737 805.898005 1447.708247 741.102553 1454.806704 C 753.198673 1452.892786 770.700475 1456.696396 770.700475 1456.696396 C 743.090292 1530.806229 806.600986 1579.308317 806.600986 1579.308317 L 789.511277 1591.203684 C 844.198348 1545.293866 867.202794 1602.711422 867.202794 1602.711422 Z M 858.500374 1530.006744 " stroke="#e28540" stroke-width="7.145" stroke-opacity="1" stroke-miterlimit="10"/><path fill="#fcbd82" d="M 768.058594 251.128906 C 759.355469 230.183594 735.8125 209.0625 692.964844 211.398438 C 650.117188 213.753906 629.007812 237.308594 622.625 259.09375 C 622.625 259.09375 610.410156 289.792969 619.789062 342.808594 C 623.191406 368.667969 646.828125 386.984375 702.375 383.9375 C 757.921875 380.890625 778.789062 359.945312 779.984375 334.035156 C 782.351562 283.308594 768.058594 251.128906 768.058594 251.128906 Z M 768.058594 251.128906 " fill-opacity="1" fill-rule="nonzero"/><path fill="#f4a569" d="M 777.648438 245.644531 C 768.976562 224.796875 736.023438 209.222656 693.578125 211.367188 C 693.449219 211.382812 693.320312 211.367188 693.191406 211.382812 C 693.160156 211.382812 693.109375 211.382812 693.078125 211.398438 C 693.046875 211.414062 692.996094 211.398438 692.964844 211.414062 C 692.835938 211.429688 692.722656 211.429688 692.578125 211.429688 C 650.164062 213.929688 631.828125 232.359375 625.476562 254.03125 L 616.890625 311.089844 C 616.890625 311.089844 644.75 290.871094 649.34375 261.59375 C 677.15625 282.570312 715.027344 281.132812 715.042969 278.941406 C 715.074219 274.328125 690.289062 273.234375 683.265625 244.824219 C 691.613281 244.097656 716.378906 271.992188 768.445312 270.945312 C 772.828125 291.535156 774.277344 302.078125 779.144531 302.207031 C 789.667969 284.746094 777.648438 245.644531 777.648438 245.644531 Z M 777.648438 245.644531 " fill-opacity="1" fill-rule="nonzero"/><path fill="#3d200f" d="M 662.445312 275.167969 C 656.304688 274.894531 653 277.328125 651.472656 276.652344 C 649.941406 275.992188 654.035156 271.878906 661.65625 271.460938 C 668.40625 271.089844 672.546875 274.152344 671.902344 276.136719 C 671.257812 278.117188 667.84375 275.394531 662.445312 275.167969 Z M 662.445312 275.167969 " fill-opacity="1" fill-rule="nonzero"/><path fill="#3d200f" d="M 731.207031 271.410156 C 737.28125 270.476562 740.824219 272.523438 742.257812 271.703125 C 743.710938 270.878906 739.164062 267.234375 731.574219 267.65625 C 724.824219 268.023438 721.019531 271.523438 721.875 273.410156 C 722.746094 275.296875 725.855469 272.234375 731.207031 271.410156 Z M 731.207031 271.410156 " fill-opacity="1" fill-rule="nonzero"/><path fill="#f89f75" d="M 773.09375 315.6875 C 773.234375 316.472656 773.277344 317.265625 773.21875 318.074219 C 773.164062 318.878906 773.011719 319.679688 772.761719 320.472656 C 772.511719 321.265625 772.167969 322.039062 771.730469 322.792969 C 771.296875 323.546875 770.777344 324.265625 770.171875 324.945312 C 769.566406 325.628906 768.890625 326.261719 768.140625 326.847656 C 767.394531 327.433594 766.585938 327.960938 765.71875 328.425781 C 764.855469 328.890625 763.945312 329.289062 762.996094 329.617188 C 762.050781 329.949219 761.078125 330.203125 760.082031 330.378906 C 759.085938 330.558594 758.085938 330.660156 757.082031 330.683594 C 756.078125 330.707031 755.089844 330.648438 754.117188 330.515625 C 753.140625 330.378906 752.203125 330.167969 751.296875 329.878906 C 750.390625 329.59375 749.535156 329.234375 748.730469 328.804688 C 747.925781 328.378906 747.1875 327.886719 746.519531 327.332031 C 745.847656 326.777344 745.257812 326.171875 744.746094 325.515625 C 744.234375 324.859375 743.8125 324.164062 743.480469 323.425781 C 743.144531 322.691406 742.910156 321.929688 742.769531 321.144531 C 742.625 320.359375 742.582031 319.5625 742.640625 318.757812 C 742.695312 317.953125 742.847656 317.152344 743.097656 316.359375 C 743.347656 315.5625 743.691406 314.789062 744.128906 314.039062 C 744.5625 313.285156 745.082031 312.566406 745.6875 311.886719 C 746.292969 311.203125 746.96875 310.570312 747.71875 309.984375 C 748.464844 309.398438 749.273438 308.871094 750.140625 308.40625 C 751.003906 307.941406 751.914062 307.542969 752.863281 307.214844 C 753.8125 306.882812 754.78125 306.628906 755.777344 306.449219 C 756.773438 306.269531 757.773438 306.171875 758.777344 306.148438 C 759.78125 306.125 760.769531 306.183594 761.746094 306.316406 C 762.71875 306.453125 763.660156 306.664062 764.566406 306.949219 C 765.472656 307.238281 766.324219 307.597656 767.128906 308.023438 C 767.933594 308.453125 768.671875 308.945312 769.339844 309.5 C 770.011719 310.050781 770.601562 310.65625 771.113281 311.316406 C 771.625 311.972656 772.046875 312.667969 772.378906 313.40625 C 772.714844 314.140625 772.949219 314.902344 773.09375 315.6875 Z M 773.09375 315.6875 " fill-opacity="1" fill-rule="nonzero"/><path fill="#f89f75" d="M 641.480469 312.6875 C 642.488281 312.757812 643.480469 312.90625 644.460938 313.128906 C 645.441406 313.351562 646.386719 313.648438 647.296875 314.019531 C 648.207031 314.386719 649.066406 314.824219 649.875 315.324219 C 650.683594 315.824219 651.425781 316.378906 652.101562 316.992188 C 652.773438 317.605469 653.371094 318.261719 653.886719 318.960938 C 654.398438 319.664062 654.824219 320.394531 655.160156 321.15625 C 655.496094 321.917969 655.734375 322.699219 655.878906 323.492188 C 656.019531 324.289062 656.066406 325.082031 656.011719 325.878906 C 655.953125 326.675781 655.800781 327.457031 655.550781 328.226562 C 655.300781 328.992188 654.957031 329.730469 654.519531 330.441406 C 654.082031 331.148438 653.5625 331.816406 652.953125 332.4375 C 652.347656 333.0625 651.667969 333.628906 650.917969 334.144531 C 650.164062 334.65625 649.351562 335.105469 648.484375 335.492188 C 647.613281 335.875 646.703125 336.1875 645.75 336.429688 C 644.796875 336.667969 643.820312 336.832031 642.816406 336.917969 C 641.816406 337.007812 640.8125 337.015625 639.804688 336.945312 C 638.792969 336.875 637.800781 336.730469 636.820312 336.503906 C 635.84375 336.28125 634.898438 335.984375 633.988281 335.617188 C 633.074219 335.246094 632.214844 334.8125 631.40625 334.3125 C 630.597656 333.8125 629.855469 333.253906 629.183594 332.640625 C 628.507812 332.03125 627.914062 331.371094 627.398438 330.671875 C 626.882812 329.972656 626.457031 329.238281 626.121094 328.476562 C 625.785156 327.714844 625.546875 326.9375 625.40625 326.140625 C 625.261719 325.347656 625.21875 324.550781 625.273438 323.753906 C 625.328125 322.957031 625.480469 322.175781 625.730469 321.410156 C 625.980469 320.640625 626.328125 319.902344 626.761719 319.195312 C 627.199219 318.484375 627.722656 317.820312 628.328125 317.195312 C 628.933594 316.574219 629.613281 316.003906 630.367188 315.488281 C 631.117188 314.976562 631.929688 314.527344 632.800781 314.144531 C 633.667969 313.757812 634.582031 313.445312 635.535156 313.207031 C 636.488281 312.964844 637.464844 312.800781 638.464844 312.714844 C 639.464844 312.628906 640.46875 312.621094 641.480469 312.6875 Z M 641.480469 312.6875 " fill-opacity="1" fill-rule="nonzero"/><path fill="#603913" d="M 576.78125 320.410156 C 577.296875 308.367188 577.054688 300.835938 577.375 289.761719 C 577.765625 276.457031 578.890625 263.21875 583.050781 249.402344 C 590.863281 223.492188 605.804688 214.316406 621.242188 203.480469 C 672.613281 148.257812 750.203125 169.074219 775.164062 207.867188 C 781.5625 217.800781 785.734375 228.765625 788.460938 239.46875 C 795.839844 268.621094 792.3125 295.933594 792.3125 295.933594 C 785.703125 294.824219 780.355469 300.707031 779.03125 302.191406 L 771.84375 264.929688 C 771.84375 264.929688 722.90625 270.636719 683.363281 232.019531 C 689.082031 253.820312 725.308594 273.039062 718.992188 273.507812 C 674.804688 278.570312 644.992188 246.984375 644.992188 246.984375 C 644.992188 246.984375 637.820312 285.535156 616.746094 311.089844 C 613.78125 307.691406 608.6875 305.640625 604.160156 306.09375 C 604.160156 306.09375 589.914062 307.820312 591.945312 330.328125 C 594.234375 355.640625 586.175781 338.113281 576.78125 320.410156 Z M 576.78125 320.410156 " fill-opacity="1" fill-rule="nonzero"/><path fill="#aa6d3a" d="M 577.394531 289.742188 C 577.78125 276.441406 578.90625 263.203125 583.066406 249.386719 C 590.878906 223.460938 605.820312 214.285156 621.257812 203.449219 C 672.628906 148.242188 750.234375 169.058594 775.164062 207.851562 C 781.5625 217.785156 785.734375 228.75 788.460938 239.453125 C 788.460938 239.453125 781.144531 214.882812 764.03125 198.710938 C 748.511719 184.070312 720.90625 170.121094 687.632812 174.074219 C 654.324219 178.023438 632.890625 196.273438 623.914062 206.449219 C 596.519531 221.074219 589.171875 241.371094 585.871094 250.191406 C 582.355469 259.609375 577.394531 289.742188 577.394531 289.742188 Z M 577.394531 289.742188 " fill-opacity="1" fill-rule="nonzero"/><path fill="#4b2812" d="M 591.945312 330.292969 C 589.929688 307.785156 604.160156 306.0625 604.160156 306.0625 C 608.671875 305.609375 613.78125 307.65625 616.746094 311.058594 C 637.820312 285.503906 644.992188 246.953125 644.992188 246.953125 C 644.992188 246.953125 674.773438 278.539062 718.992188 273.476562 C 725.308594 273.007812 689.082031 253.789062 683.328125 232.003906 C 722.890625 270.621094 771.8125 264.914062 771.8125 264.914062 L 779 302.175781 C 780.339844 300.691406 785.671875 294.808594 792.277344 295.917969 C 792.277344 295.917969 795.535156 270.816406 789.296875 243.050781 C 789.296875 243.050781 787.734375 255.675781 755.925781 251.5 C 724.113281 247.304688 681.378906 228.796875 665.988281 198.804688 C 668.761719 220.78125 675.304688 241.195312 696.800781 260.253906 C 714.992188 276.378906 642.285156 247.433594 629.75 226.972656 C 631.84375 236.472656 635.226562 259.671875 614.714844 285.375 C 595.488281 304.0625 577.3125 293.628906 577.3125 293.628906 C 577.136719 302.402344 577.183594 311.203125 576.78125 320.265625 C 576.765625 320.28125 595.957031 365.316406 591.945312 330.292969 Z M 591.945312 330.292969 " fill-opacity="1" fill-rule="nonzero"/><path fill="#f4a569" d="M 622.738281 353.964844 C 622.738281 353.964844 626.363281 354.027344 635.308594 361.605469 C 650.828125 374.765625 673.03125 385.550781 702.199219 383.953125 C 677.285156 385.339844 636.421875 384.339844 622.738281 353.964844 Z M 622.738281 353.964844 " fill-opacity="1" fill-rule="nonzero"/><path fill="#f4a569" d="M 778.097656 345.46875 C 778.097656 345.46875 774.519531 345.933594 766.449219 354.449219 C 752.445312 369.21875 731.558594 382.375 702.390625 383.953125 C 727.304688 382.582031 768.253906 376.796875 778.097656 345.46875 Z M 778.097656 345.46875 " fill-opacity="1" fill-rule="nonzero"/><path fill="#f4a569" d="M 622.738281 353.964844 C 622.738281 353.964844 603.933594 355.398438 595.941406 342.53125 C 587.949219 329.683594 593.332031 315.960938 593.332031 315.960938 C 593.332031 315.960938 591.445312 332.875 601.097656 342.582031 C 612.507812 354.046875 620.5625 347.0625 622.738281 353.964844 Z M 622.738281 353.964844 " fill-opacity="1" fill-rule="nonzero"/><path fill="#f4a569" d="M 701.085938 322.457031 C 700.941406 322.492188 714.605469 323.34375 714.269531 315.136719 C 713.929688 306.933594 701.199219 308.078125 697.945312 311.511719 C 708.402344 306.835938 717.75 318.539062 701.085938 322.457031 Z M 701.085938 322.457031 " fill-opacity="1" fill-rule="nonzero"/><path fill="#fdd1ac" d="M 699.1875 311.625 C 699.1875 311.625 705.132812 309.898438 707.566406 312.800781 C 709.984375 315.6875 707.855469 318.394531 707.324219 318.960938 C 708.46875 316.894531 705.953125 311.316406 699.1875 311.625 Z M 699.1875 311.625 " fill-opacity="1" fill-rule="nonzero"/><path fill="#e28540" d="M 697.929688 311.527344 C 697.976562 312.414062 704.90625 309.671875 707.566406 312.816406 C 710.578125 316.394531 706.871094 321.265625 701.796875 321.878906 C 696.71875 322.492188 709.933594 324.828125 711.207031 316.089844 C 711.675781 312.800781 709.304688 310.511719 706.921875 309.882812 C 702.457031 308.753906 697.898438 310.703125 697.929688 311.527344 Z M 697.929688 311.527344 " fill-opacity="1" fill-rule="nonzero"/><path fill="#3d200f" d="M 683.328125 232.019531 C 683.328125 232.019531 674.609375 218.1875 667.972656 202.484375 C 661.347656 186.808594 673.144531 225.410156 686.457031 239.488281 C 684.667969 235.828125 683.328125 232.019531 683.328125 232.019531 Z M 683.328125 232.019531 " fill-opacity="1" fill-rule="nonzero"/><path fill="#3d200f" d="M 644.976562 246.96875 C 644.976562 246.96875 639.128906 240.195312 632.277344 230.746094 C 625.429688 221.28125 635.695312 240.871094 644.363281 249.789062 C 644.847656 247.789062 644.976562 246.96875 644.976562 246.96875 Z M 644.976562 246.96875 " fill-opacity="1" fill-rule="nonzero"/><path fill="#ee9e5d" d="M 701.472656 364.460938 L 701.554688 364.460938 C 708.433594 364.171875 709.757812 363.429688 709.757812 363.429688 C 709.757812 363.429688 707.917969 367.394531 701.699219 367.667969 L 701.617188 367.667969 C 695.398438 367.925781 693.238281 364.121094 693.238281 364.121094 C 693.238281 364.121094 694.59375 364.734375 701.472656 364.460938 Z M 701.472656 364.460938 " fill-opacity="1" fill-rule="nonzero"/><path fill="#741112" d="M 678.816406 334.664062 C 682.183594 334.875 692.113281 335.308594 700.234375 334.972656 C 708.355469 334.632812 718.199219 333.375 721.550781 332.875 C 726.03125 332.230469 729.222656 333.390625 729.238281 337.195312 C 729.289062 345.820312 725.53125 360.171875 701.34375 361.1875 L 701.328125 361.1875 C 677.140625 362.203125 672.210938 348.207031 671.535156 339.613281 C 671.226562 335.808594 674.289062 334.390625 678.816406 334.664062 Z M 678.816406 334.664062 " fill-opacity="1" fill-rule="nonzero"/><path fill="#620506" d="M 678.816406 334.664062 C 682.183594 334.875 692.113281 335.308594 700.234375 334.972656 C 708.355469 334.632812 718.199219 333.375 721.550781 332.875 C 726.03125 332.230469 729.222656 333.390625 729.238281 337.195312 C 729.253906 341.582031 728.304688 347.449219 724.179688 352.289062 C 715.878906 338.871094 684.957031 340.144531 677.929688 354.320312 C 673.339844 349.835938 671.886719 344.015625 671.535156 339.597656 C 671.226562 335.808594 674.289062 334.390625 678.816406 334.664062 Z M 678.816406 334.664062 " fill-opacity="1" fill-rule="nonzero"/><path fill="#f2f5ef" d="M 678.816406 334.664062 C 681.703125 334.839844 692.53125 335.292969 700.234375 334.972656 L 700.25 334.972656 C 707.9375 334.648438 718.699219 333.292969 721.570312 332.875 C 726.113281 332.230469 729.238281 333.390625 729.253906 337.195312 C 729.253906 337.195312 717.25 339.226562 700.457031 339.9375 C 683.667969 340.644531 671.535156 339.597656 671.535156 339.597656 C 671.226562 335.808594 674.257812 334.40625 678.816406 334.664062 Z M 678.816406 334.664062 " fill-opacity="1" fill-rule="nonzero"/><path fill="#e0dbb3" d="M 678.816406 334.664062 C 681.703125 334.839844 692.53125 335.292969 700.234375 334.972656 L 700.25 334.972656 C 707.9375 334.648438 718.699219 333.292969 721.570312 332.875 C 723.839844 332.550781 725.742188 332.679688 727.113281 333.375 C 722.488281 334.308594 716.863281 335.679688 700.070312 336.390625 C 683.28125 337.097656 678.351562 336.390625 672.871094 335.988281 C 674.128906 334.90625 676.222656 334.503906 678.816406 334.664062 Z M 678.816406 334.664062 " fill-opacity="1" fill-rule="nonzero"/><path fill="#e74343" d="M 700.652344 349.304688 L 701.039062 349.289062 C 713.867188 348.757812 722.035156 354.480469 722.035156 354.480469 C 720.246094 355.867188 715.058594 360.640625 701.359375 361.203125 L 701.34375 361.203125 C 687.648438 361.769531 682.089844 357.464844 680.1875 356.238281 C 680.171875 356.222656 687.808594 349.835938 700.652344 349.304688 Z M 700.652344 349.304688 " fill-opacity="1" fill-rule="nonzero"/><path fill="#ce3232" d="M 718.199219 352.433594 C 720.667969 353.511719 722.019531 354.464844 722.019531 354.464844 C 720.230469 355.851562 715.042969 360.625 701.34375 361.1875 L 701.328125 361.1875 C 687.632812 361.753906 682.074219 357.445312 680.171875 356.222656 C 680.171875 356.222656 681.445312 355.171875 683.8125 353.867188 C 687.339844 363.121094 712.785156 362.976562 718.199219 352.433594 Z M 718.199219 352.433594 " fill-opacity="1" fill-rule="nonzero"/><g clip-path="url(#3ff2ee1a55)"><path fill="#f7c407" d="M 485.429688 104.355469 L 602.386719 96.871094 L 731.898438 83.507812 L 606.253906 87.148438 Z M 485.429688 104.355469 " fill-opacity="1" fill-rule="nonzero"/><path fill="#f15a29" d="M 485.429688 104.355469 L 602.386719 96.871094 L 731.898438 83.507812 L 606.253906 90.277344 Z M 485.429688 104.355469 " fill-opacity="1" fill-rule="nonzero"/></g><path fill="#f36c29" d="M 496.371094 240.261719 L 613.941406 240.277344 L 602.449219 96.871094 L 485.429688 104.355469 Z M 496.371094 240.261719 " fill-opacity="1" fill-rule="nonzero"/><g clip-path="url(#7643d98ae1)"><path fill="#f9a127" d="M 613.941406 240.277344 L 741.566406 224.8125 L 731.898438 83.507812 L 602.386719 96.839844 Z M 613.941406 240.277344 " fill-opacity="1" fill-rule="nonzero"/></g><path fill="#f9a127" d="M 491.230469 176.007812 L 494.726562 113.320312 L 603.191406 106 L 602.5 96.890625 L 485.476562 104.355469 Z M 491.230469 176.007812 " fill-opacity="1" fill-rule="nonzero"/><g clip-path="url(#a998479d06)"><path fill="#f7c407" d="M 603.191406 106 L 723.90625 92.601562 L 736.957031 156.902344 L 731.945312 83.523438 L 602.449219 96.871094 Z M 603.191406 106 " fill-opacity="1" fill-rule="nonzero"/></g><path fill="#f15a29" d="M 496.289062 240.261719 L 613.859375 240.261719 L 609.300781 183.472656 C 609.300781 183.472656 539.976562 211.753906 491.292969 178.214844 C 493.210938 202.113281 496.289062 240.261719 496.289062 240.261719 Z M 496.289062 240.261719 " fill-opacity="1" fill-rule="nonzero"/><path fill="#f78f28" d="M 613.859375 240.277344 L 741.550781 224.8125 L 737.394531 163.898438 C 737.394531 163.898438 685.375 197.484375 609.316406 183.488281 C 612.101562 218.347656 613.859375 240.277344 613.859375 240.277344 Z M 613.859375 240.277344 " fill-opacity="1" fill-rule="nonzero"/><path fill="#41b047" d="M 741.566406 224.8125 L 871.851562 247.386719 L 895.957031 119.011719 L 763.515625 89.746094 Z M 741.566406 224.8125 " fill-opacity="1" fill-rule="nonzero"/><path fill="#009c45" d="M 741.566406 224.8125 L 871.867188 247.386719 C 871.867188 247.386719 876.539062 222.476562 884.066406 182.457031 C 811.890625 198.566406 752.105469 159.964844 752.105469 159.964844 Z M 741.566406 224.8125 " fill-opacity="1" fill-rule="nonzero"/><path fill="#007031" d="M 741.566406 224.78125 L 763.515625 89.746094 L 732.367188 89.792969 Z M 741.566406 224.78125 " fill-opacity="1" fill-rule="nonzero"/><path fill="#8fc23b" d="M 761.824219 100.113281 L 884.082031 126.394531 L 883.984375 182.78125 L 895.957031 119.011719 L 763.515625 89.746094 Z M 761.824219 100.113281 " fill-opacity="1" fill-rule="nonzero"/><path fill="#008d40" d="M 761.824219 100.113281 L 763.515625 89.746094 L 732.367188 89.792969 L 733.058594 99.871094 Z M 761.824219 100.113281 " fill-opacity="1" fill-rule="nonzero"/><path fill="#005721" d="M 741.566406 224.8125 L 752.105469 159.964844 L 736.199219 146.4375 Z M 741.566406 224.8125 " fill-opacity="1" fill-rule="nonzero"/><path fill="#fad400" d="M 680.6875 457.996094 C 680.6875 457.996094 666.601562 427.699219 654.886719 438.710938 C 643.800781 449.140625 675.351562 465.410156 675.351562 465.410156 C 675.351562 465.410156 646.667969 460.914062 650.132812 476.875 C 653.628906 492.964844 676.65625 473.117188 676.65625 473.117188 C 676.65625 473.117188 659.125 496.335938 675.804688 501.300781 C 689.871094 505.496094 686.277344 476.570312 686.277344 476.570312 C 686.277344 476.570312 694.59375 501.367188 704.859375 492.964844 C 715.140625 484.582031 693.175781 472.199219 693.175781 472.199219 C 693.175781 472.199219 714.460938 479.292969 715.121094 468.75 C 715.800781 458.1875 693.367188 463.863281 693.367188 463.863281 C 693.367188 463.863281 720.890625 455.109375 712.800781 445.433594 C 706.132812 437.453125 690.257812 459.332031 690.195312 458.753906 C 690.128906 458.171875 702.90625 432.421875 687.792969 430.246094 C 674.449219 428.261719 680.6875 457.996094 680.6875 457.996094 Z M 680.6875 457.996094 " fill-opacity="1" fill-rule="nonzero"/><path fill="#e74343" d="M 691.835938 463.953125 C 692.035156 464.429688 692.183594 464.921875 692.285156 465.429688 C 692.386719 465.9375 692.4375 466.449219 692.4375 466.96875 C 692.4375 467.488281 692.386719 468 692.285156 468.507812 C 692.183594 469.015625 692.035156 469.507812 691.835938 469.984375 C 691.640625 470.464844 691.398438 470.917969 691.109375 471.347656 C 690.820312 471.78125 690.496094 472.179688 690.128906 472.542969 C 689.761719 472.910156 689.367188 473.238281 688.933594 473.523438 C 688.503906 473.8125 688.050781 474.054688 687.574219 474.253906 C 687.09375 474.453125 686.601562 474.601562 686.09375 474.703125 C 685.585938 474.804688 685.074219 474.851562 684.558594 474.851562 C 684.039062 474.851562 683.527344 474.804688 683.019531 474.703125 C 682.511719 474.601562 682.019531 474.453125 681.542969 474.253906 C 681.0625 474.054688 680.609375 473.8125 680.179688 473.523438 C 679.75 473.238281 679.351562 472.910156 678.984375 472.542969 C 678.621094 472.179688 678.292969 471.78125 678.003906 471.347656 C 677.71875 470.917969 677.476562 470.464844 677.277344 469.984375 C 677.078125 469.507812 676.929688 469.015625 676.828125 468.507812 C 676.726562 468 676.675781 467.488281 676.675781 466.96875 C 676.675781 466.449219 676.726562 465.9375 676.828125 465.429688 C 676.929688 464.921875 677.078125 464.429688 677.277344 463.953125 C 677.476562 463.472656 677.71875 463.019531 678.003906 462.589844 C 678.292969 462.15625 678.621094 461.757812 678.984375 461.394531 C 679.351562 461.027344 679.75 460.699219 680.179688 460.414062 C 680.609375 460.125 681.0625 459.882812 681.542969 459.683594 C 682.019531 459.488281 682.511719 459.335938 683.019531 459.234375 C 683.527344 459.136719 684.039062 459.085938 684.558594 459.085938 C 685.074219 459.085938 685.585938 459.136719 686.09375 459.234375 C 686.601562 459.335938 687.09375 459.488281 687.574219 459.683594 C 688.050781 459.882812 688.503906 460.125 688.933594 460.414062 C 689.367188 460.699219 689.761719 461.027344 690.128906 461.394531 C 690.496094 461.757812 690.820312 462.15625 691.109375 462.589844 C 691.398438 463.019531 691.640625 463.472656 691.835938 463.953125 Z M 691.835938 463.953125 " fill-opacity="1" fill-rule="nonzero"/><path fill="#ce2227" d="M 688.003906 467.28125 C 687.839844 469.167969 686.148438 470.585938 684.265625 470.425781 C 682.378906 470.265625 680.960938 468.570312 681.121094 466.683594 C 681.28125 464.796875 682.976562 463.378906 684.859375 463.539062 C 686.519531 463.6875 687.839844 465.007812 687.984375 466.652344 Z M 688.003906 467.28125 " fill-opacity="1" fill-rule="nonzero"/><path fill="#3d200f" d="M 745.402344 296.433594 C 745.402344 296.433594 735.007812 291.324219 727.175781 297.902344 C 725.355469 299.371094 722.246094 296.273438 724.984375 293.726562 C 728.578125 290.390625 735.183594 288.503906 743.582031 291.324219 C 746.335938 292.144531 746.191406 293.679688 744.371094 293.695312 C 743.566406 293.695312 743.953125 293.96875 745.015625 294.695312 C 746.464844 295.675781 746.804688 297.097656 745.402344 296.433594 Z M 745.402344 296.433594 " fill-opacity="1" fill-rule="nonzero"/><path fill="#3d200f" d="M 652.761719 301.996094 C 652.761719 301.996094 662.507812 295.757812 671.050781 301.417969 C 673.015625 302.675781 675.773438 299.257812 672.757812 297.015625 C 668.808594 294.097656 662.027344 292.96875 654 296.710938 C 651.34375 297.839844 651.664062 299.355469 653.46875 299.160156 C 654.273438 299.078125 653.921875 299.386719 652.953125 300.222656 C 651.632812 301.351562 651.4375 302.820312 652.761719 301.996094 Z M 652.761719 301.996094 " fill-opacity="1" fill-rule="nonzero"/><path fill="#fee900" d="M 891.882812 522.699219 C 889.125 523.488281 886.855469 521.8125 886.855469 518.925781 C 886.855469 516.054688 889.109375 513.023438 891.882812 512.234375 L 923.417969 503.027344 C 926.171875 502.238281 928.445312 503.914062 928.445312 506.800781 C 928.445312 507.929688 928.15625 509.25 927.171875 510.652344 L 912.78125 531.808594 C 926.671875 529.390625 930.925781 538.226562 930.925781 549.109375 C 930.925781 563.167969 922.742188 573.679688 906.691406 578.375 C 896.441406 581.355469 888.367188 578.597656 884.113281 573.570312 C 883.519531 572.8125 883.226562 571.875 883.226562 570.746094 C 883.226562 567.765625 885.597656 564.605469 888.464844 563.765625 C 890.238281 563.25 891.527344 563.605469 893.1875 565.039062 C 896.539062 568.070312 900.292969 569.957031 906.691406 568.085938 C 915.554688 565.492188 919.695312 559.671875 919.695312 552.367188 C 919.695312 545.191406 916.84375 540.886719 907.980469 543.464844 L 901.871094 545.238281 C 898.8125 546.125 896.554688 544.417969 896.554688 541.449219 C 896.554688 539.804688 897.054688 538.742188 897.828125 537.484375 L 911.71875 516.894531 Z M 891.882812 522.699219 " fill-opacity="1" fill-rule="nonzero"/><path fill="#fee900" d="M 783.738281 516.378906 C 780.984375 515.621094 778.710938 512.667969 778.710938 509.800781 C 778.710938 506.929688 780.964844 505.171875 783.738281 505.914062 L 815.273438 514.363281 C 818.03125 515.121094 820.300781 518.070312 820.300781 520.941406 C 820.300781 522.070312 820.011719 523.230469 819.027344 524.085938 L 804.636719 537.175781 C 818.527344 542.546875 822.785156 553.753906 822.785156 564.636719 C 822.785156 578.695312 814.597656 584.628906 798.546875 580.324219 C 788.296875 577.566406 780.226562 570.28125 775.972656 562.878906 C 775.375 561.78125 775.085938 560.6875 775.085938 559.558594 C 775.085938 556.574219 777.453125 554.753906 780.320312 555.511719 C 782.09375 555.992188 783.382812 557.058594 785.042969 559.445312 C 788.394531 564.347656 792.148438 568.34375 798.546875 570.054688 C 807.410156 572.425781 811.550781 568.910156 811.550781 561.621094 C 811.550781 554.445312 808.699219 548.527344 799.835938 546.140625 L 793.730469 544.515625 C 790.667969 543.691406 788.410156 540.707031 788.410156 537.742188 C 788.410156 536.097656 788.910156 535.308594 789.683594 534.484375 L 803.574219 521.667969 Z M 783.738281 516.378906 " fill-opacity="1" fill-rule="nonzero"/><path fill="#fee900" d="M 823.203125 131.570312 C 840.945312 135.472656 850.644531 147.628906 849.386719 162.382812 C 847.246094 187.695312 803.914062 188.050781 803.011719 198.597656 L 840.605469 206.882812 C 844.039062 207.660156 846.617188 211.011719 846.328125 214.382812 C 846.035156 217.734375 842.992188 219.878906 839.558594 219.105469 L 792.761719 208.804688 C 789.328125 208.027344 786.75 204.675781 787.042969 201.304688 C 789.296875 174.796875 833.484375 181.714844 835.386719 159.289062 C 835.949219 152.5625 831.4375 145.582031 822.121094 143.519531 C 814.53125 141.839844 810.019531 145 807.425781 149.066406 C 805.878906 151.289062 803.542969 152.113281 800.964844 151.5625 C 797.304688 150.773438 794.597656 147.226562 794.90625 143.632812 C 794.984375 142.679688 795.164062 141.96875 795.757812 141.019531 C 800.496094 133.167969 809.730469 128.605469 823.203125 131.570312 Z M 823.203125 131.570312 " fill-opacity="1" fill-rule="nonzero"/><path fill="#fee900" d="M 917.730469 660.167969 C 920.484375 659.378906 922.757812 661.054688 922.757812 663.941406 C 922.757812 666.828125 920.5 669.84375 917.730469 670.632812 L 914.28125 671.632812 L 914.28125 681.386719 C 914.28125 684.578125 911.71875 688 908.65625 688.886719 C 905.59375 689.773438 903.03125 687.871094 903.03125 684.675781 L 903.03125 674.921875 L 878.007812 682.226562 C 875.25 683.015625 872.980469 681.339844 872.980469 678.453125 C 872.980469 677.324219 873.269531 676.40625 873.867188 675.324219 L 903.917969 622.277344 C 904.902344 620.554688 906.578125 618.828125 908.640625 618.230469 C 911.703125 617.34375 914.265625 619.246094 914.265625 622.441406 L 914.265625 661.167969 Z M 903.066406 664.457031 L 903.066406 640.835938 L 887.515625 669.003906 Z M 903.066406 664.457031 " fill-opacity="1" fill-rule="nonzero"/><path fill="#fee900" d="M 811.34375 673.839844 C 814.097656 674.792969 816.371094 677.921875 816.371094 680.792969 C 816.371094 683.660156 814.113281 685.257812 811.34375 684.304688 L 807.894531 683.128906 L 807.894531 692.882812 C 807.894531 696.078125 805.332031 697.867188 802.269531 696.816406 C 799.207031 695.769531 796.644531 692.238281 796.644531 689.046875 L 796.644531 679.292969 L 771.621094 670.746094 C 768.863281 669.792969 766.59375 666.667969 766.59375 663.796875 C 766.59375 662.667969 766.882812 661.941406 767.480469 661.21875 L 797.53125 627.210938 C 798.515625 626.117188 800.191406 625.4375 802.253906 626.164062 C 805.316406 627.210938 807.878906 630.742188 807.878906 633.9375 L 807.878906 672.664062 Z M 796.679688 668.828125 L 796.679688 645.207031 L 781.128906 663.523438 Z M 796.679688 668.828125 " fill-opacity="1" fill-rule="nonzero"/><path fill="#fee900" d="M 661.882812 148.644531 C 660.800781 149.644531 659.414062 150.304688 657.722656 150.5 C 653.824219 150.953125 650.246094 148.257812 649.859375 144.566406 C 649.601562 142.097656 650.679688 139.859375 652.40625 138.550781 L 669.988281 124.960938 C 671.324219 123.929688 672.4375 123.1875 674.402344 122.960938 C 678.445312 122.492188 682.167969 125.28125 682.570312 129.105469 L 689.9375 199.757812 C 690.339844 203.578125 687.277344 207.160156 683.234375 207.609375 C 679.1875 208.078125 675.464844 205.289062 675.0625 201.46875 L 668.957031 142.96875 Z M 661.882812 148.644531 " fill-opacity="1" fill-rule="nonzero"/><path fill="#fee900" d="M 534.949219 158.253906 C 533.917969 159.351562 532.644531 160.109375 531.082031 160.382812 C 527.46875 161.0625 524.230469 158.433594 523.972656 154.628906 C 523.796875 152.078125 524.84375 149.695312 526.457031 148.242188 L 542.941406 133.167969 C 544.199219 132.023438 545.230469 131.199219 547.050781 130.84375 C 550.789062 130.152344 554.15625 132.859375 554.429688 136.828125 L 559.636719 209.980469 C 559.910156 213.929688 557.023438 217.816406 553.285156 218.507812 C 549.546875 219.203125 546.179688 216.492188 545.90625 212.527344 L 541.585938 151.96875 Z M 534.949219 158.253906 " fill-opacity="1" fill-rule="nonzero"/><path fill="#fcbd82" d="M 579.40625 347.964844 C 572.253906 313.074219 560.375 287.761719 557.910156 256.898438 L 560.746094 235.777344 C 560.746094 235.777344 569.996094 203.257812 561.441406 202.835938 C 558.105469 201.46875 553.140625 231.34375 551.449219 230.988281 C 549.773438 230.652344 560.246094 193.195312 554.285156 190.777344 C 548.402344 188.390625 542.457031 228.183594 541.230469 228.085938 C 540.007812 227.992188 545.953125 196.273438 540.652344 193.082031 C 535.527344 191.148438 532.886719 226.105469 531.726562 226.199219 C 531.113281 226.234375 532.304688 216.492188 532.015625 210.027344 C 531.773438 204.320312 530.273438 201.660156 527.339844 203.207031 C 523.394531 221.703125 520.234375 236.457031 530.210938 258.527344 C 540.410156 315.621094 536.800781 352.09375 551.351562 367.539062 C 558.410156 375.039062 571.960938 388.824219 571.960938 388.824219 C 571.960938 388.824219 584.773438 374.152344 579.40625 347.964844 Z M 579.40625 347.964844 " fill-opacity="1" fill-rule="nonzero"/><path fill="#fdd1ac" d="M 561.472656 202.773438 C 570.042969 203.191406 560.777344 235.714844 560.777344 235.714844 L 557.941406 256.835938 C 560.390625 287.695312 572.285156 313.011719 579.441406 347.902344 C 579.441406 347.902344 574.265625 337.679688 564.179688 303.109375 C 555.507812 273.363281 555.25 261.464844 555.171875 257.078125 C 555.074219 251.628906 557.167969 238.390625 562.488281 215.832031 C 564.210938 208.546875 561.472656 202.773438 561.472656 202.773438 Z M 561.472656 202.773438 " fill-opacity="1" fill-rule="nonzero"/><path fill="#f4a569" d="M 579.40625 347.964844 C 584.773438 374.152344 571.960938 388.792969 571.960938 388.792969 C 571.960938 388.792969 558.410156 374.988281 551.351562 367.507812 C 536.816406 352.046875 540.410156 315.589844 530.210938 258.496094 C 524.3125 245.453125 523.007812 234.988281 523.730469 224.78125 C 523.730469 224.78125 525.441406 245.03125 539.554688 259.964844 C 542.632812 267.71875 540.070312 300.144531 551.015625 337.566406 C 557.152344 358.625 566.015625 364.460938 574.847656 358.65625 C 579.183594 355.800781 579.40625 347.964844 579.40625 347.964844 Z M 579.40625 347.964844 " fill-opacity="1" fill-rule="nonzero"/><path fill="#f5b611" d="M 620.5625 536.128906 C 615.550781 534.097656 610.878906 540.804688 601.53125 557.203125 C 591.914062 574.070312 590.492188 579.824219 595.601562 582.808594 C 600.710938 585.773438 607.398438 581.386719 615.890625 564.699219 C 624.382812 548.011719 629.136719 539.613281 620.5625 536.128906 Z M 620.5625 536.128906 " fill-opacity="1" fill-rule="nonzero"/><path fill="#f5b611" d="M 646.152344 549.300781 C 640.835938 548.253906 637.949219 555.898438 631.503906 573.632812 C 623.65625 595.238281 623.125 600.398438 628.75 602.316406 C 634.339844 604.253906 638.433594 604.414062 647.039062 578.246094 C 652.871094 560.476562 655.242188 551.074219 646.152344 549.300781 Z M 646.152344 549.300781 " fill-opacity="1" fill-rule="nonzero"/><path fill="#f5b611" d="M 717.507812 551.1875 C 722.664062 550.816406 723.777344 559.121094 724.777344 578.695312 C 725.808594 598.835938 724.566406 605.105469 718.925781 606.378906 C 713.285156 607.671875 710.804688 603.816406 709.464844 581.742188 C 707.773438 558.800781 708.710938 551.835938 717.507812 551.1875 Z M 717.507812 551.1875 " fill-opacity="1" fill-rule="nonzero"/><path fill="#f5b611" d="M 682.957031 554.074219 C 689.453125 554.816406 689.148438 564.363281 687.726562 583.921875 C 686.003906 607.75 683.972656 613.023438 678.203125 613.605469 C 672.453125 614.199219 670.292969 610.703125 671.339844 582.855469 C 672.179688 560.492188 673.871094 553.15625 682.957031 554.074219 Z M 682.957031 554.074219 " fill-opacity="1" fill-rule="nonzero"/></svg>