<svg xmlns="http://www.w3.org/2000/svg" xmlns:xlink="http://www.w3.org/1999/xlink" width="1920" zoomAndPan="magnify" viewBox="0 0 1440 809.999993" height="1080" preserveAspectRatio="xMidYMid meet" version="1.0"><defs><clipPath id="e8afc63304"><path d="M 730 149.242188 L 889 149.242188 L 889 436 L 730 436 Z M 730 149.242188 " clip-rule="nonzero"/></clipPath><clipPath id="dafe673b09"><path d="M 621 149.242188 L 731 149.242188 L 731 436 L 621 436 Z M 621 149.242188 " clip-rule="nonzero"/></clipPath><clipPath id="a74804e6a3"><path d="M 562 332 L 700 332 L 700 660.742188 L 562 660.742188 Z M 562 332 " clip-rule="nonzero"/></clipPath><clipPath id="aced48a6ad"><path d="M 464.882812 280 L 700 280 L 700 428 L 464.882812 428 Z M 464.882812 280 " clip-rule="nonzero"/></clipPath><clipPath id="882c3d3e3a"><path d="M 464.882812 374 L 563 374 L 563 660.742188 L 464.882812 660.742188 Z M 464.882812 374 " clip-rule="nonzero"/></clipPath><clipPath id="00f655fb33"><path d="M 756 366 L 974.882812 366 L 974.882812 481 L 756 481 Z M 756 366 " clip-rule="nonzero"/></clipPath><clipPath id="c77e239da9"><path d="M 865 423 L 974.882812 423 L 974.882812 619 L 865 619 Z M 865 423 " clip-rule="nonzero"/></clipPath><clipPath id="4ca0fe0271"><path d="M 613 446 L 828 446 L 828 660.742188 L 613 660.742188 Z M 613 446 " clip-rule="nonzero"/></clipPath><clipPath id="8b6bca5a97"><path d="M 663 452 L 828 452 L 828 660.742188 L 663 660.742188 Z M 663 452 " clip-rule="nonzero"/></clipPath></defs><g clip-path="url(#e8afc63304)"><path fill="#efd233" d="M 888.109375 354.34375 L 730.585938 149.21875 L 730.585938 435.875 Z M 888.109375 354.34375 " fill-opacity="1" fill-rule="evenodd"/></g><g clip-path="url(#dafe673b09)"><path fill="#b89c00" d="M 621.574219 291.214844 L 730.585938 149.21875 L 730.585938 435.875 L 699.335938 419.671875 L 699.335938 332.882812 L 627.542969 382.527344 L 699.335938 332.8125 Z M 621.574219 291.214844 " fill-opacity="1" fill-rule="evenodd"/></g><g clip-path="url(#a74804e6a3)"><path fill="#76a100" d="M 562.765625 660.722656 L 562.765625 427.34375 L 699.335938 332.882812 L 699.335938 566.230469 Z M 562.765625 660.722656 " fill-opacity="1" fill-rule="evenodd"/></g><g clip-path="url(#aced48a6ad)"><path fill="#a8e304" d="M 562.765625 427.34375 L 699.335938 332.8125 L 601.464844 280.449219 L 464.929688 374.945312 Z M 562.765625 427.34375 " fill-opacity="1" fill-rule="evenodd"/></g><g clip-path="url(#882c3d3e3a)"><path fill="#90c400" d="M 464.929688 374.945312 L 562.765625 427.34375 L 562.765625 660.722656 L 464.929688 608.359375 Z M 464.929688 374.945312 " fill-opacity="1" fill-rule="evenodd"/></g><g clip-path="url(#00f655fb33)"><path fill="#4eb1fc" d="M 974.882812 423.445312 L 865.800781 480.726562 L 756.757812 423.445312 L 865.800781 366.183594 Z M 974.882812 423.445312 " fill-opacity="1" fill-rule="evenodd"/></g><g clip-path="url(#c77e239da9)"><path fill="#72c0fc" d="M 974.882812 561.171875 L 865.800781 618.464844 L 865.800781 480.726562 L 974.882812 423.445312 Z M 974.882812 561.171875 " fill-opacity="1" fill-rule="evenodd"/></g><path fill="#328fd6" d="M 756.757812 561.171875 L 865.800781 618.464844 L 865.800781 480.726562 L 756.757812 423.445312 Z M 756.757812 561.171875 " fill-opacity="1" fill-rule="evenodd"/><g clip-path="url(#4ca0fe0271)"><path fill="#fb545c" d="M 720.578125 660.355469 C 779.410156 660.355469 827.390625 612.355469 827.390625 553.496094 C 827.390625 494.640625 779.410156 446.640625 720.578125 446.640625 C 661.746094 446.640625 613.765625 494.640625 613.765625 553.496094 C 613.765625 612.355469 661.746094 660.355469 720.578125 660.355469 Z M 720.578125 660.355469 " fill-opacity="1" fill-rule="evenodd"/></g><g clip-path="url(#8b6bca5a97)"><path fill="#ff212c" d="M 756.628906 452.867188 C 797.886719 467.660156 827.402344 507.105469 827.402344 553.496094 C 827.402344 612.492188 779.582031 660.355469 720.589844 660.355469 C 699.496094 660.355469 679.851562 654.21875 663.328125 643.6875 C 674.574219 647.726562 686.675781 649.925781 699.335938 649.925781 C 758.339844 649.925781 806.148438 602.085938 806.148438 543.066406 C 806.148438 505.136719 786.375 471.835938 756.628906 452.867188 Z M 756.628906 452.867188 " fill-opacity="1" fill-rule="evenodd"/></g><path fill="#f7819a" d="M 648.035156 565.871094 C 652.464844 565.871094 656.0625 569.085938 656.0625 572.988281 C 656.0625 576.921875 652.453125 580.105469 648.035156 580.105469 C 643.578125 580.105469 639.96875 576.921875 639.96875 572.988281 C 639.96875 569.085938 643.578125 565.871094 648.035156 565.871094 Z M 654.074219 521.804688 C 663.78125 521.804688 671.683594 528.796875 671.683594 537.417969 C 671.683594 546.019531 663.78125 553 654.074219 553 C 644.332031 553 636.429688 546.007812 636.429688 537.417969 C 636.429688 528.796875 644.332031 521.804688 654.074219 521.804688 Z M 654.074219 521.804688 " fill-opacity="1" fill-rule="evenodd"/><path fill="#f7819a" d="M 748.195312 481.605469 C 742.546875 479.371094 745.902344 470.785156 751.574219 473.007812 C 783.980469 485.667969 805.789062 517.105469 805.789062 552.476562 C 805.789062 558.578125 796.511719 558.578125 796.511719 552.476562 C 796.511719 520.878906 777.121094 492.925781 748.195312 481.605469 Z M 748.195312 481.605469 " fill-opacity="1" fill-rule="evenodd"/></svg>