<svg xmlns="http://www.w3.org/2000/svg" xmlns:xlink="http://www.w3.org/1999/xlink" width="1920" zoomAndPan="magnify" viewBox="0 0 1440 809.999993" height="1080" preserveAspectRatio="xMidYMid meet" version="1.0"><defs><clipPath id="5a210f091c"><path d="M 524 394 L 827 394 L 827 658.804688 L 524 658.804688 Z M 524 394 " clip-rule="nonzero"/></clipPath><clipPath id="bf7707af36"><path d="M 409 151.054688 L 780 151.054688 L 780 583 L 409 583 Z M 409 151.054688 " clip-rule="nonzero"/></clipPath><clipPath id="cc86937614"><path d="M 781 374 L 1019 374 L 1019 658.804688 L 781 658.804688 Z M 781 374 " clip-rule="nonzero"/></clipPath></defs><path fill="#87ddb7" d="M 642.820312 572.488281 L 419.328125 572.488281 L 663.140625 161.210938 L 769.804688 328.765625 Z M 642.820312 572.488281 " fill-opacity="1" fill-rule="evenodd"/><path fill="#f7e17b" d="M 688.535156 455.703125 L 688.535156 328.765625 L 906.949219 328.765625 L 906.949219 435.394531 Z M 688.535156 455.703125 " fill-opacity="1" fill-rule="evenodd"/><path fill="#67bde1" d="M 1008.539062 516.632812 C 1008.539062 518.792969 1008.484375 520.953125 1008.378906 523.113281 C 1008.273438 525.269531 1008.113281 527.421875 1007.902344 529.574219 C 1007.691406 531.722656 1007.425781 533.867188 1007.109375 536.003906 C 1006.789062 538.140625 1006.421875 540.269531 1006 542.390625 C 1005.578125 544.507812 1005.105469 546.617188 1004.578125 548.710938 C 1004.054688 550.808594 1003.476562 552.886719 1002.851562 554.957031 C 1002.222656 557.023438 1001.546875 559.074219 1000.816406 561.109375 C 1000.089844 563.144531 999.3125 565.15625 998.484375 567.152344 C 997.65625 569.148438 996.78125 571.125 995.859375 573.078125 C 994.933594 575.03125 993.960938 576.960938 992.941406 578.867188 C 991.925781 580.769531 990.859375 582.648438 989.75 584.503906 C 988.636719 586.355469 987.480469 588.179688 986.28125 589.976562 C 985.078125 591.773438 983.835938 593.539062 982.546875 595.277344 C 981.261719 597.011719 979.929688 598.714844 978.558594 600.382812 C 977.1875 602.054688 975.777344 603.6875 974.328125 605.289062 C 972.875 606.890625 971.386719 608.457031 969.855469 609.984375 C 968.328125 611.511719 966.761719 613 965.164062 614.449219 C 963.5625 615.902344 961.925781 617.3125 960.253906 618.683594 C 958.582031 620.054688 956.878906 621.382812 955.144531 622.667969 C 953.40625 623.957031 951.640625 625.199219 949.84375 626.402344 C 948.046875 627.601562 946.222656 628.757812 944.367188 629.867188 C 942.515625 630.976562 940.632812 632.042969 938.726562 633.0625 C 936.820312 634.078125 934.890625 635.050781 932.9375 635.972656 C 930.984375 636.898438 929.007812 637.773438 927.011719 638.601562 C 925.015625 639.425781 923 640.203125 920.964844 640.933594 C 918.929688 641.660156 916.878906 642.335938 914.808594 642.964844 C 912.742188 643.589844 910.660156 644.167969 908.5625 644.691406 C 906.464844 645.21875 904.359375 645.691406 902.238281 646.113281 C 900.117188 646.535156 897.988281 646.902344 895.851562 647.21875 C 893.714844 647.539062 891.570312 647.800781 889.417969 648.011719 C 887.265625 648.226562 885.113281 648.382812 882.953125 648.488281 C 880.792969 648.597656 878.636719 648.648438 876.472656 648.648438 C 874.3125 648.648438 872.152344 648.597656 869.992188 648.488281 C 867.835938 648.382812 865.679688 648.226562 863.527344 648.011719 C 861.378906 647.800781 859.234375 647.539062 857.09375 647.21875 C 854.957031 646.902344 852.828125 646.535156 850.710938 646.113281 C 848.589844 645.691406 846.480469 645.21875 844.382812 644.691406 C 842.289062 644.167969 840.207031 643.589844 838.136719 642.964844 C 836.070312 642.335938 834.015625 641.660156 831.984375 640.933594 C 829.949219 640.203125 827.929688 639.425781 825.933594 638.601562 C 823.9375 637.773438 821.960938 636.898438 820.007812 635.972656 C 818.054688 635.050781 816.125 634.078125 814.21875 633.0625 C 812.3125 632.042969 810.433594 630.976562 808.578125 629.867188 C 806.726562 628.757812 804.898438 627.601562 803.101562 626.402344 C 801.304688 625.199219 799.539062 623.957031 797.804688 622.667969 C 796.066406 621.382812 794.363281 620.054688 792.691406 618.683594 C 791.023438 617.3125 789.386719 615.902344 787.785156 614.449219 C 786.183594 613 784.617188 611.511719 783.089844 609.984375 C 781.5625 608.457031 780.070312 606.890625 778.621094 605.289062 C 777.167969 603.6875 775.757812 602.054688 774.386719 600.382812 C 773.015625 598.714844 771.6875 597.011719 770.398438 595.277344 C 769.109375 593.539062 767.867188 591.773438 766.667969 589.976562 C 765.464844 588.179688 764.308594 586.355469 763.199219 584.503906 C 762.085938 582.648438 761.023438 580.769531 760.003906 578.867188 C 758.984375 576.960938 758.011719 575.03125 757.089844 573.078125 C 756.164062 571.125 755.289062 569.148438 754.460938 567.152344 C 753.636719 565.15625 752.859375 563.144531 752.128906 561.109375 C 751.402344 559.074219 750.722656 557.023438 750.097656 554.957031 C 749.46875 552.886719 748.890625 550.808594 748.367188 548.710938 C 747.84375 546.617188 747.367188 544.507812 746.945312 542.390625 C 746.527344 540.269531 746.15625 538.140625 745.839844 536.003906 C 745.523438 533.867188 745.257812 531.722656 745.046875 529.574219 C 744.832031 527.421875 744.675781 525.269531 744.570312 523.113281 C 744.460938 520.953125 744.410156 518.792969 744.410156 516.632812 C 744.410156 514.472656 744.460938 512.316406 744.570312 510.15625 C 744.675781 508 744.832031 505.84375 745.046875 503.695312 C 745.257812 501.542969 745.523438 499.402344 745.839844 497.261719 C 746.15625 495.125 746.527344 493 746.945312 490.878906 C 747.367188 488.761719 747.84375 486.652344 748.367188 484.558594 C 748.890625 482.460938 749.46875 480.378906 750.097656 478.3125 C 750.722656 476.246094 751.402344 474.195312 752.128906 472.160156 C 752.859375 470.125 753.636719 468.109375 754.460938 466.113281 C 755.289062 464.117188 756.164062 462.144531 757.089844 460.191406 C 758.011719 458.238281 758.984375 456.308594 760.003906 454.402344 C 761.023438 452.496094 762.085938 450.617188 763.199219 448.765625 C 764.308594 446.910156 765.464844 445.085938 766.667969 443.289062 C 767.867188 441.496094 769.109375 439.726562 770.398438 437.992188 C 771.6875 436.257812 773.015625 434.554688 774.386719 432.886719 C 775.757812 431.214844 777.167969 429.578125 778.621094 427.976562 C 780.070312 426.378906 781.5625 424.8125 783.089844 423.285156 C 784.617188 421.757812 786.183594 420.269531 787.785156 418.816406 C 789.386719 417.367188 791.023438 415.957031 792.691406 414.585938 C 794.363281 413.214844 796.066406 411.886719 797.804688 410.597656 C 799.539062 409.3125 801.304688 408.066406 803.101562 406.867188 C 804.898438 405.667969 806.726562 404.511719 808.578125 403.402344 C 810.433594 402.289062 812.3125 401.226562 814.21875 400.207031 C 816.125 399.1875 818.054688 398.21875 820.007812 397.292969 C 821.960938 396.371094 823.9375 395.496094 825.933594 394.667969 C 827.929688 393.839844 829.949219 393.0625 831.984375 392.335938 C 834.015625 391.609375 836.070312 390.929688 838.136719 390.304688 C 840.207031 389.675781 842.289062 389.101562 844.382812 388.574219 C 846.480469 388.050781 848.589844 387.578125 850.710938 387.15625 C 852.828125 386.734375 854.957031 386.363281 857.09375 386.046875 C 859.234375 385.730469 861.378906 385.464844 863.527344 385.253906 C 865.679688 385.042969 867.835938 384.882812 869.992188 384.777344 C 872.152344 384.671875 874.3125 384.621094 876.472656 384.621094 C 878.636719 384.621094 880.792969 384.671875 882.953125 384.777344 C 885.113281 384.882812 887.265625 385.042969 889.417969 385.253906 C 891.570312 385.464844 893.714844 385.730469 895.851562 386.046875 C 897.988281 386.363281 900.117188 386.734375 902.238281 387.15625 C 904.359375 387.578125 906.464844 388.050781 908.5625 388.574219 C 910.660156 389.101562 912.742188 389.675781 914.808594 390.304688 C 916.878906 390.929688 918.929688 391.609375 920.964844 392.335938 C 923 393.0625 925.015625 393.839844 927.011719 394.667969 C 929.007812 395.496094 930.984375 396.371094 932.9375 397.292969 C 934.890625 398.21875 936.820312 399.1875 938.726562 400.207031 C 940.632812 401.226562 942.515625 402.289062 944.367188 403.402344 C 946.222656 404.511719 948.046875 405.667969 949.84375 406.867188 C 951.640625 408.066406 953.40625 409.3125 955.144531 410.597656 C 956.878906 411.886719 958.582031 413.214844 960.253906 414.585938 C 961.925781 415.957031 963.5625 417.367188 965.160156 418.816406 C 966.761719 420.269531 968.328125 421.757812 969.855469 423.285156 C 971.386719 424.8125 972.875 426.378906 974.328125 427.976562 C 975.777344 429.578125 977.1875 431.214844 978.558594 432.886719 C 979.929688 434.554688 981.261719 436.257812 982.546875 437.992188 C 983.835938 439.726562 985.078125 441.496094 986.28125 443.289062 C 987.480469 445.085938 988.636719 446.910156 989.75 448.765625 C 990.859375 450.617188 991.925781 452.496094 992.941406 454.402344 C 993.960938 456.308594 994.933594 458.238281 995.859375 460.191406 C 996.78125 462.144531 997.65625 464.117188 998.484375 466.113281 C 999.3125 468.109375 1000.089844 470.125 1000.816406 472.160156 C 1001.546875 474.195312 1002.222656 476.246094 1002.851562 478.3125 C 1003.476562 480.378906 1004.054688 482.460938 1004.578125 484.558594 C 1005.105469 486.652344 1005.578125 488.761719 1006 490.878906 C 1006.421875 493 1006.789062 495.125 1007.109375 497.261719 C 1007.425781 499.402344 1007.691406 501.542969 1007.902344 503.695312 C 1008.113281 505.84375 1008.273438 508 1008.378906 510.15625 C 1008.484375 512.316406 1008.539062 514.472656 1008.539062 516.632812 Z M 1008.539062 516.632812 " fill-opacity="1" fill-rule="nonzero"/><path fill="#fb848a" d="M 745.847656 648.648438 L 604.964844 648.527344 L 534.625 526.660156 L 605.164062 404.898438 L 746.046875 405.019531 L 816.386719 526.894531 Z M 745.847656 648.648438 " fill-opacity="1" fill-rule="nonzero"/><g clip-path="url(#5a210f091c)"><path fill="#586597" d="M 745.847656 658.8125 L 604.964844 658.683594 C 604.074219 658.683594 603.199219 658.566406 602.335938 658.335938 C 601.476562 658.105469 600.660156 657.765625 599.890625 657.320312 C 599.117188 656.875 598.417969 656.339844 597.789062 655.707031 C 597.15625 655.078125 596.621094 654.378906 596.175781 653.605469 L 525.839844 531.746094 C 525.390625 530.976562 525.054688 530.15625 524.824219 529.296875 C 524.59375 528.4375 524.480469 527.558594 524.480469 526.667969 C 524.480469 525.777344 524.597656 524.902344 524.828125 524.039062 C 525.0625 523.179688 525.402344 522.363281 525.847656 521.59375 L 596.375 399.8125 C 596.820312 399.039062 597.359375 398.339844 597.988281 397.710938 C 598.617188 397.082031 599.320312 396.546875 600.089844 396.101562 C 600.863281 395.65625 601.675781 395.320312 602.539062 395.089844 C 603.398438 394.859375 604.273438 394.742188 605.164062 394.742188 L 605.171875 394.742188 L 746.058594 394.863281 C 746.949219 394.863281 747.824219 394.980469 748.683594 395.214844 C 749.542969 395.445312 750.359375 395.78125 751.128906 396.226562 C 751.902344 396.675781 752.601562 397.210938 753.234375 397.839844 C 753.863281 398.46875 754.402344 399.171875 754.847656 399.941406 L 825.195312 521.820312 C 825.640625 522.59375 825.976562 523.410156 826.210938 524.269531 C 826.441406 525.132812 826.554688 526.007812 826.554688 526.898438 C 826.554688 527.789062 826.441406 528.667969 826.210938 529.527344 C 825.976562 530.386719 825.640625 531.203125 825.195312 531.976562 L 754.636719 653.746094 C 754.191406 654.515625 753.652344 655.21875 753.023438 655.847656 C 752.394531 656.476562 751.691406 657.011719 750.921875 657.457031 C 750.148438 657.902344 749.335938 658.238281 748.472656 658.46875 C 747.613281 658.699219 746.738281 658.8125 745.847656 658.8125 Z M 610.839844 638.382812 L 739.996094 638.496094 L 804.65625 526.890625 L 740.171875 415.164062 L 611.015625 415.054688 L 546.363281 526.667969 Z M 610.839844 638.382812 " fill-opacity="1" fill-rule="nonzero"/></g><path fill="#586597" d="M 688.535156 384.621094 C 687.871094 384.621094 687.207031 384.554688 686.554688 384.425781 C 685.898438 384.292969 685.265625 384.101562 684.648438 383.847656 C 684.03125 383.589844 683.445312 383.277344 682.890625 382.90625 C 682.339844 382.539062 681.824219 382.117188 681.351562 381.644531 C 680.882812 381.171875 680.460938 380.660156 680.089844 380.105469 C 679.71875 379.550781 679.40625 378.964844 679.152344 378.351562 C 678.894531 377.734375 678.703125 377.097656 678.574219 376.445312 C 678.441406 375.792969 678.378906 375.132812 678.378906 374.464844 L 678.378906 328.765625 C 678.378906 328.101562 678.441406 327.441406 678.574219 326.785156 C 678.703125 326.132812 678.894531 325.496094 679.152344 324.878906 C 679.40625 324.265625 679.71875 323.679688 680.089844 323.125 C 680.460938 322.570312 680.882812 322.058594 681.351562 321.585938 C 681.824219 321.113281 682.339844 320.695312 682.890625 320.324219 C 683.445312 319.953125 684.03125 319.640625 684.648438 319.382812 C 685.265625 319.128906 685.902344 318.9375 686.554688 318.808594 C 687.207031 318.675781 687.871094 318.613281 688.535156 318.613281 L 906.949219 318.613281 C 907.617188 318.613281 908.277344 318.675781 908.929688 318.808594 C 909.585938 318.9375 910.222656 319.128906 910.835938 319.382812 C 911.453125 319.640625 912.039062 319.953125 912.59375 320.324219 C 913.148438 320.695312 913.660156 321.113281 914.132812 321.585938 C 914.605469 322.058594 915.027344 322.570312 915.394531 323.125 C 915.765625 323.679688 916.078125 324.265625 916.335938 324.878906 C 916.589844 325.496094 916.78125 326.132812 916.914062 326.785156 C 917.042969 327.441406 917.109375 328.101562 917.109375 328.765625 L 917.109375 354.152344 C 917.109375 354.820312 917.042969 355.480469 916.914062 356.136719 C 916.78125 356.789062 916.589844 357.425781 916.335938 358.039062 C 916.078125 358.65625 915.765625 359.242188 915.394531 359.796875 C 915.027344 360.351562 914.605469 360.863281 914.132812 361.335938 C 913.660156 361.804688 913.148438 362.226562 912.59375 362.597656 C 912.039062 362.96875 911.453125 363.28125 910.835938 363.535156 C 910.222656 363.792969 909.585938 363.984375 908.929688 364.113281 C 908.277344 364.246094 907.617188 364.308594 906.949219 364.308594 C 906.28125 364.308594 905.621094 364.246094 904.96875 364.113281 C 904.3125 363.984375 903.679688 363.792969 903.0625 363.535156 C 902.445312 363.28125 901.859375 362.96875 901.304688 362.597656 C 900.75 362.226562 900.238281 361.804688 899.765625 361.335938 C 899.292969 360.863281 898.875 360.351562 898.503906 359.796875 C 898.132812 359.242188 897.820312 358.65625 897.5625 358.039062 C 897.308594 357.425781 897.117188 356.789062 896.984375 356.136719 C 896.855469 355.480469 896.789062 354.820312 896.789062 354.152344 L 896.789062 338.921875 L 698.695312 338.921875 L 698.695312 374.464844 C 698.695312 375.132812 698.628906 375.792969 698.5 376.445312 C 698.371094 377.097656 698.175781 377.734375 697.921875 378.351562 C 697.667969 378.964844 697.355469 379.550781 696.984375 380.105469 C 696.613281 380.660156 696.191406 381.171875 695.71875 381.644531 C 695.25 382.117188 694.734375 382.539062 694.179688 382.90625 C 693.625 383.277344 693.039062 383.589844 692.425781 383.847656 C 691.808594 384.101562 691.171875 384.292969 690.519531 384.425781 C 689.863281 384.554688 689.203125 384.621094 688.535156 384.621094 Z M 688.535156 384.621094 " fill-opacity="1" fill-rule="nonzero"/><g clip-path="url(#bf7707af36)"><path fill="#586597" d="M 520.917969 582.640625 L 419.328125 582.640625 C 418.433594 582.640625 417.550781 582.523438 416.6875 582.292969 C 415.820312 582.058594 415 581.714844 414.226562 581.265625 C 413.453125 580.816406 412.75 580.273438 412.117188 579.636719 C 411.484375 579 410.949219 578.292969 410.503906 577.511719 C 410.0625 576.734375 409.726562 575.910156 409.5 575.042969 C 409.273438 574.175781 409.167969 573.296875 409.175781 572.398438 C 409.183594 571.503906 409.304688 570.625 409.546875 569.761719 C 409.789062 568.898438 410.136719 568.082031 410.59375 567.308594 L 654.402344 156.03125 C 654.847656 155.285156 655.375 154.609375 655.992188 153.996094 C 656.609375 153.386719 657.292969 152.863281 658.042969 152.429688 C 658.796875 151.992188 659.589844 151.660156 660.425781 151.425781 C 661.261719 151.191406 662.113281 151.070312 662.980469 151.054688 C 663.84375 151.0625 664.695312 151.171875 665.535156 151.386719 C 666.371094 151.601562 667.167969 151.914062 667.929688 152.324219 C 668.691406 152.734375 669.394531 153.226562 670.03125 153.808594 C 670.671875 154.386719 671.234375 155.035156 671.71875 155.753906 L 778.382812 323.3125 C 778.742188 323.875 779.042969 324.464844 779.289062 325.089844 C 779.53125 325.710938 779.710938 326.351562 779.824219 327.007812 C 779.941406 327.664062 779.992188 328.328125 779.980469 328.996094 C 779.964844 329.660156 779.886719 330.320312 779.742188 330.972656 C 779.597656 331.625 779.390625 332.257812 779.121094 332.867188 C 778.851562 333.476562 778.527344 334.058594 778.144531 334.605469 C 777.761719 335.152344 777.328125 335.65625 776.84375 336.117188 C 776.363281 336.578125 775.839844 336.988281 775.277344 337.347656 C 774.714844 337.703125 774.121094 338.003906 773.5 338.246094 C 772.875 338.488281 772.234375 338.667969 771.578125 338.78125 C 770.921875 338.898438 770.257812 338.949219 769.589844 338.933594 C 768.921875 338.917969 768.261719 338.839844 767.609375 338.691406 C 766.960938 338.546875 766.328125 338.339844 765.714844 338.070312 C 765.105469 337.800781 764.527344 337.476562 763.980469 337.089844 C 763.433594 336.707031 762.929688 336.273438 762.46875 335.792969 C 762.007812 335.308594 761.597656 334.785156 761.242188 334.222656 L 663.453125 180.605469 L 437.15625 562.332031 L 520.917969 562.332031 C 521.585938 562.332031 522.246094 562.398438 522.898438 562.527344 C 523.554688 562.65625 524.1875 562.847656 524.804688 563.105469 C 525.421875 563.359375 526.007812 563.671875 526.5625 564.042969 C 527.117188 564.414062 527.628906 564.835938 528.101562 565.304688 C 528.570312 565.777344 528.992188 566.289062 529.363281 566.84375 C 529.734375 567.398438 530.046875 567.984375 530.300781 568.601562 C 530.558594 569.214844 530.75 569.851562 530.878906 570.503906 C 531.011719 571.160156 531.074219 571.820312 531.074219 572.488281 C 531.074219 573.152344 531.011719 573.8125 530.878906 574.46875 C 530.75 575.121094 530.558594 575.757812 530.300781 576.371094 C 530.046875 576.988281 529.734375 577.574219 529.363281 578.128906 C 528.992188 578.683594 528.570312 579.195312 528.101562 579.667969 C 527.628906 580.140625 527.117188 580.558594 526.5625 580.929688 C 526.007812 581.300781 525.421875 581.613281 524.804688 581.867188 C 524.1875 582.125 523.554688 582.316406 522.898438 582.445312 C 522.246094 582.578125 521.585938 582.640625 520.917969 582.640625 Z M 520.917969 582.640625 " fill-opacity="1" fill-rule="nonzero"/></g><g clip-path="url(#cc86937614)"><path fill="#586597" d="M 876.664062 659.074219 C 869.351562 659.0625 862.085938 658.492188 854.863281 657.363281 C 847.644531 656.234375 840.550781 654.558594 833.585938 652.332031 C 826.625 650.109375 819.871094 647.367188 813.332031 644.101562 C 806.792969 640.835938 800.542969 637.089844 794.578125 632.863281 C 794.035156 632.476562 793.53125 632.042969 793.070312 631.5625 C 792.613281 631.078125 792.203125 630.554688 791.847656 629.992188 C 791.492188 629.429688 791.191406 628.835938 790.953125 628.214844 C 790.710938 627.589844 790.535156 626.953125 790.421875 626.292969 C 790.308594 625.636719 790.261719 624.976562 790.277344 624.308594 C 790.292969 623.640625 790.375 622.984375 790.519531 622.332031 C 790.667969 621.683594 790.875 621.050781 791.144531 620.441406 C 791.417969 619.832031 791.742188 619.257812 792.128906 618.710938 C 792.511719 618.167969 792.945312 617.664062 793.429688 617.203125 C 793.914062 616.746094 794.4375 616.335938 795 615.980469 C 795.5625 615.625 796.15625 615.324219 796.777344 615.085938 C 797.402344 614.847656 798.042969 614.667969 798.699219 614.554688 C 799.355469 614.441406 800.019531 614.394531 800.683594 614.410156 C 801.351562 614.425781 802.011719 614.507812 802.660156 614.652344 C 803.3125 614.800781 803.941406 615.007812 804.550781 615.277344 C 805.160156 615.550781 805.738281 615.875 806.285156 616.261719 C 807.824219 617.34375 809.390625 618.394531 810.976562 619.40625 C 812.566406 620.417969 814.175781 621.390625 815.8125 622.328125 C 817.445312 623.265625 819.097656 624.164062 820.773438 625.023438 C 822.449219 625.882812 824.144531 626.707031 825.859375 627.488281 C 827.570312 628.269531 829.300781 629.011719 831.050781 629.714844 C 832.796875 630.414062 834.5625 631.074219 836.339844 631.695312 C 838.117188 632.316406 839.910156 632.894531 841.714844 633.429688 C 843.519531 633.96875 845.339844 634.460938 847.167969 634.914062 C 848.996094 635.367188 850.832031 635.777344 852.679688 636.144531 C 854.527344 636.511719 856.382812 636.839844 858.246094 637.121094 C 860.105469 637.402344 861.976562 637.640625 863.847656 637.835938 C 865.722656 638.03125 867.597656 638.183594 869.480469 638.289062 C 871.359375 638.398438 873.242188 638.460938 875.125 638.484375 C 877.007812 638.503906 878.890625 638.480469 880.773438 638.414062 C 882.65625 638.347656 884.535156 638.238281 886.414062 638.085938 C 888.292969 637.933594 890.164062 637.734375 892.03125 637.496094 C 893.902344 637.253906 895.761719 636.972656 897.617188 636.644531 C 899.472656 636.320312 901.320312 635.949219 903.15625 635.539062 C 904.996094 635.125 906.820312 634.671875 908.640625 634.175781 C 910.457031 633.675781 912.261719 633.140625 914.050781 632.558594 C 915.84375 631.976562 917.621094 631.355469 919.386719 630.695312 C 921.148438 630.03125 922.894531 629.328125 924.625 628.585938 C 926.355469 627.839844 928.066406 627.058594 929.761719 626.234375 C 931.457031 625.410156 933.128906 624.550781 934.785156 623.648438 C 936.4375 622.75 938.070312 621.808594 939.683594 620.835938 C 941.292969 619.859375 942.878906 618.84375 944.445312 617.796875 C 946.007812 616.746094 947.546875 615.660156 949.058594 614.539062 C 950.574219 613.417969 952.058594 612.261719 953.519531 611.074219 C 954.980469 609.882812 956.410156 608.660156 957.8125 607.402344 C 959.214844 606.148438 960.589844 604.859375 961.933594 603.539062 C 963.277344 602.21875 964.589844 600.871094 965.867188 599.488281 C 967.148438 598.109375 968.398438 596.699219 969.613281 595.261719 C 970.828125 593.820312 972.011719 592.355469 973.15625 590.863281 C 974.304688 589.367188 975.417969 587.851562 976.492188 586.304688 C 977.570312 584.761719 978.613281 583.191406 979.617188 581.597656 C 980.621094 580.003906 981.585938 578.390625 982.515625 576.753906 C 983.445312 575.113281 984.335938 573.457031 985.1875 571.777344 C 986.039062 570.097656 986.855469 568.398438 987.628906 566.683594 C 988.402344 564.964844 989.132812 563.234375 989.828125 561.480469 C 990.519531 559.730469 991.171875 557.964844 991.785156 556.183594 C 992.394531 554.402344 992.964844 552.609375 993.496094 550.800781 C 994.023438 548.996094 994.507812 547.175781 994.953125 545.347656 C 995.394531 543.515625 995.796875 541.675781 996.15625 539.828125 C 996.515625 537.980469 996.828125 536.125 997.101562 534.261719 C 997.375 532.398438 997.605469 530.53125 997.789062 528.65625 C 997.976562 526.78125 998.117188 524.90625 998.21875 523.023438 C 998.316406 521.144531 998.371094 519.261719 998.382812 517.378906 C 998.394531 515.496094 998.363281 513.613281 998.285156 511.734375 C 998.210938 509.851562 998.089844 507.972656 997.929688 506.097656 C 997.765625 504.222656 997.558594 502.351562 997.308594 500.484375 C 997.0625 498.617188 996.769531 496.757812 996.433594 494.90625 C 996.097656 493.054688 995.71875 491.210938 995.296875 489.375 C 994.875 487.539062 994.410156 485.714844 993.90625 483.902344 C 993.398438 482.085938 992.851562 480.285156 992.261719 478.496094 C 991.671875 476.710938 991.042969 474.9375 990.371094 473.175781 C 989.699219 471.417969 988.988281 469.675781 988.234375 467.949219 C 987.480469 466.222656 986.691406 464.515625 985.859375 462.824219 C 985.027344 461.136719 984.15625 459.464844 983.246094 457.816406 C 982.339844 456.167969 981.390625 454.542969 980.40625 452.9375 C 979.421875 451.332031 978.402344 449.75 977.34375 448.191406 C 976.285156 446.632812 975.191406 445.101562 974.0625 443.59375 C 972.933594 442.085938 971.769531 440.605469 970.574219 439.152344 C 969.375 437.699219 968.144531 436.273438 966.882812 434.878906 C 965.617188 433.480469 964.324219 432.117188 962.996094 430.78125 C 961.667969 429.441406 960.3125 428.136719 958.921875 426.863281 C 957.535156 425.589844 956.121094 424.351562 954.675781 423.144531 C 953.230469 421.933594 951.757812 420.761719 950.257812 419.621094 C 948.757812 418.484375 947.234375 417.378906 945.683594 416.308594 C 944.132812 415.242188 942.558594 414.207031 940.957031 413.210938 C 939.359375 412.214844 937.738281 411.257812 936.097656 410.335938 C 934.453125 409.417969 932.789062 408.535156 931.105469 407.691406 C 929.421875 406.847656 927.71875 406.042969 926 405.277344 C 924.277344 404.511719 922.539062 403.789062 920.785156 403.105469 C 919.03125 402.417969 917.261719 401.777344 915.476562 401.175781 C 913.691406 400.570312 911.894531 400.011719 910.082031 399.492188 C 908.273438 398.972656 906.449219 398.496094 904.617188 398.0625 C 902.785156 397.625 900.941406 397.234375 899.09375 396.886719 C 897.242188 396.535156 895.382812 396.230469 893.519531 395.96875 C 891.652344 395.703125 889.78125 395.484375 887.90625 395.308594 C 886.03125 395.132812 884.152344 395 882.273438 394.910156 C 880.390625 394.820312 878.507812 394.773438 876.625 394.769531 C 874.742188 394.769531 872.859375 394.808594 870.976562 394.894531 C 869.09375 394.980469 867.214844 395.109375 865.339844 395.28125 C 863.464844 395.453125 861.59375 395.667969 859.726562 395.925781 C 857.863281 396.1875 856.003906 396.488281 854.152344 396.832031 C 852.300781 397.175781 850.457031 397.566406 848.625 397.996094 C 846.789062 398.425781 844.96875 398.898438 843.15625 399.414062 C 841.34375 399.925781 839.542969 400.484375 837.757812 401.082031 C 835.972656 401.679688 834.199219 402.320312 832.445312 403 C 830.6875 403.679688 828.949219 404.398438 827.226562 405.160156 C 825.503906 405.921875 823.796875 406.722656 822.113281 407.5625 C 820.425781 408.402344 818.761719 409.28125 817.117188 410.195312 C 815.46875 411.113281 813.847656 412.066406 812.246094 413.058594 C 810.644531 414.050781 809.070312 415.082031 807.515625 416.144531 C 805.960938 417.210938 804.433594 418.3125 802.933594 419.449219 C 801.429688 420.582031 799.953125 421.753906 798.507812 422.957031 C 797.996094 423.382812 797.445312 423.757812 796.859375 424.074219 C 796.273438 424.390625 795.660156 424.648438 795.023438 424.847656 C 794.386719 425.042969 793.738281 425.179688 793.074219 425.25 C 792.410156 425.316406 791.75 425.320312 791.085938 425.261719 C 790.421875 425.199219 789.769531 425.074219 789.128906 424.886719 C 788.488281 424.695312 787.875 424.445312 787.285156 424.136719 C 786.695312 423.828125 786.140625 423.460938 785.621094 423.042969 C 785.105469 422.625 784.632812 422.160156 784.203125 421.644531 C 783.777344 421.132812 783.40625 420.585938 783.085938 420 C 782.769531 419.414062 782.511719 418.804688 782.3125 418.167969 C 782.113281 417.53125 781.980469 416.882812 781.910156 416.21875 C 781.839844 415.554688 781.832031 414.890625 781.894531 414.226562 C 781.953125 413.566406 782.078125 412.914062 782.269531 412.273438 C 782.457031 411.632812 782.707031 411.019531 783.015625 410.429688 C 783.324219 409.839844 783.6875 409.285156 784.109375 408.765625 C 784.527344 408.246094 784.992188 407.773438 785.503906 407.347656 C 787.691406 405.539062 789.929688 403.796875 792.21875 402.121094 C 794.511719 400.441406 796.847656 398.835938 799.234375 397.300781 C 801.621094 395.765625 804.054688 394.300781 806.527344 392.910156 C 809.003906 391.519531 811.515625 390.207031 814.070312 388.964844 C 816.625 387.726562 819.210938 386.5625 821.835938 385.476562 C 824.457031 384.390625 827.109375 383.386719 829.792969 382.460938 C 832.476562 381.535156 835.183594 380.6875 837.917969 379.925781 C 840.652344 379.160156 843.40625 378.476562 846.179688 377.878906 C 848.957031 377.277344 851.746094 376.761719 854.550781 376.328125 C 857.355469 375.898438 860.171875 375.550781 863 375.285156 C 865.828125 375.019531 868.65625 374.839844 871.496094 374.746094 C 874.332031 374.652344 877.167969 374.644531 880.007812 374.71875 C 882.84375 374.792969 885.679688 374.953125 888.507812 375.199219 C 891.335938 375.441406 894.152344 375.773438 896.960938 376.183594 C 899.769531 376.597656 902.5625 377.09375 905.339844 377.675781 C 908.121094 378.257812 910.878906 378.917969 913.617188 379.664062 C 916.355469 380.410156 919.070312 381.238281 921.761719 382.144531 C 924.449219 383.054688 927.109375 384.042969 929.742188 385.109375 C 932.371094 386.175781 934.96875 387.320312 937.527344 388.542969 C 940.089844 389.765625 942.613281 391.066406 945.097656 392.4375 C 947.582031 393.8125 950.023438 395.257812 952.417969 396.777344 C 954.816406 398.296875 957.167969 399.886719 959.46875 401.546875 C 961.769531 403.207031 964.019531 404.9375 966.21875 406.730469 C 968.417969 408.527344 970.5625 410.386719 972.648438 412.308594 C 974.734375 414.230469 976.765625 416.214844 978.730469 418.261719 C 980.699219 420.304688 982.605469 422.40625 984.449219 424.566406 C 986.292969 426.722656 988.066406 428.933594 989.777344 431.199219 C 991.488281 433.464844 993.128906 435.777344 994.699219 438.140625 C 996.273438 440.503906 997.773438 442.914062 999.199219 445.367188 C 1000.628906 447.820312 1001.980469 450.3125 1003.257812 452.847656 C 1004.535156 455.378906 1005.738281 457.949219 1006.863281 460.554688 C 1007.984375 463.160156 1009.03125 465.796875 1009.996094 468.464844 C 1010.964844 471.132812 1011.847656 473.828125 1012.652344 476.550781 C 1013.457031 479.269531 1014.179688 482.015625 1014.820312 484.777344 C 1015.460938 487.542969 1016.019531 490.324219 1016.496094 493.121094 C 1016.96875 495.917969 1017.359375 498.730469 1017.664062 501.550781 C 1017.96875 504.371094 1018.191406 507.199219 1018.328125 510.035156 C 1018.464844 512.867188 1018.515625 515.703125 1018.480469 518.542969 C 1018.449219 521.378906 1018.332031 524.214844 1018.128906 527.042969 C 1017.925781 529.875 1017.636719 532.695312 1017.265625 535.507812 C 1016.894531 538.320312 1016.4375 541.121094 1015.898438 543.90625 C 1015.359375 546.691406 1014.734375 549.460938 1014.03125 552.210938 C 1013.324219 554.957031 1012.535156 557.683594 1011.667969 560.382812 C 1010.800781 563.085938 1009.851562 565.757812 1008.820312 568.402344 C 1007.792969 571.050781 1006.6875 573.660156 1005.5 576.238281 C 1004.316406 578.816406 1003.054688 581.359375 1001.71875 583.863281 C 1000.378906 586.363281 998.96875 588.824219 997.484375 591.242188 C 996 593.664062 994.445312 596.035156 992.816406 598.359375 C 991.191406 600.6875 989.496094 602.960938 987.734375 605.183594 C 985.96875 607.410156 984.140625 609.578125 982.25 611.691406 C 980.355469 613.808594 978.402344 615.863281 976.386719 617.863281 C 974.371094 619.859375 972.296875 621.796875 970.164062 623.667969 C 968.03125 625.542969 965.84375 627.351562 963.605469 629.09375 C 961.363281 630.835938 959.074219 632.511719 956.734375 634.117188 C 954.394531 635.722656 952.007812 637.257812 949.574219 638.71875 C 947.140625 640.183594 944.667969 641.570312 942.152344 642.886719 C 939.636719 644.199219 937.085938 645.4375 934.496094 646.601562 C 931.90625 647.761719 929.28125 648.847656 926.628906 649.851562 C 923.972656 650.859375 921.292969 651.78125 918.582031 652.628906 C 915.871094 653.472656 913.136719 654.234375 910.382812 654.914062 C 907.625 655.597656 904.851562 656.195312 902.0625 656.710938 C 899.269531 657.226562 896.464844 657.65625 893.648438 658.003906 C 890.832031 658.351562 888.003906 658.613281 885.171875 658.792969 C 882.339844 658.96875 879.503906 659.0625 876.664062 659.074219 Z M 876.664062 659.074219 " fill-opacity="1" fill-rule="nonzero"/></g></svg>