<svg xmlns="http://www.w3.org/2000/svg" xmlns:xlink="http://www.w3.org/1999/xlink" width="1920" zoomAndPan="magnify" viewBox="0 0 1440 809.999993" height="1080" preserveAspectRatio="xMidYMid meet" version="1.0"><defs><clipPath id="3320792f14"><path d="M 359 282 L 571 282 L 571 617.34375 L 359 617.34375 Z M 359 282 " clip-rule="nonzero"/></clipPath></defs><path fill="#dd6711" d="M 350.339844 414.855469 C 331.179688 403.566406 340.761719 392.777344 362.300781 371.226562 C 383.839844 349.675781 447.304688 281.382812 465.257812 269.390625 C 483.214844 257.421875 511.949219 263.394531 513.152344 294.554688 C 514.355469 325.691406 541.890625 543.710938 543.09375 565.285156 C 544.296875 586.863281 517.941406 595.242188 497.605469 589.246094 C 477.246094 583.25 464.480469 388.789062 459.46875 362.269531 C 456.15625 344.78125 404.226562 427.25 383.863281 427.375 C 363.503906 427.523438 350.339844 414.855469 350.339844 414.855469 Z M 350.339844 414.855469 " fill-opacity="1" fill-rule="nonzero"/><path fill="#f59d24" d="M 620.851562 372.882812 C 614.859375 353.714844 596.90625 250.699219 692.691406 239.910156 C 788.480469 229.125 793.269531 317.785156 782.488281 353.714844 C 771.707031 389.640625 714.234375 478.304688 715.4375 491.476562 C 716.640625 504.648438 807.789062 470.828125 818.570312 479.230469 C 829.355469 487.613281 825.742188 531.941406 818.570312 540.324219 C 811.398438 548.703125 687.902344 568.144531 659.167969 559.765625 C 630.429688 551.386719 625.640625 502.261719 635.21875 490.296875 C 644.800781 478.328125 747.484375 332.363281 707.0625 313.019531 C 674.3125 297.339844 666.1875 342.375 669.296875 371.726562 C 671.179688 389.742188 620.851562 372.882812 620.851562 372.882812 Z M 620.851562 372.882812 " fill-opacity="1" fill-rule="nonzero"/><path fill="#007b7c" d="M 866.316406 292.121094 C 884.269531 311.289062 904.628906 330.457031 914.207031 314.875 C 923.789062 299.296875 938.734375 255.367188 970.226562 264.824219 C 1012.65625 277.570312 983.390625 321.125 964.234375 340.292969 C 945.078125 359.457031 936.625 345.609375 943.824219 373.15625 C 950.996094 400.703125 966.492188 381.363281 997.109375 400.101562 C 1039.660156 426.167969 1008.515625 482.140625 980.507812 479.03125 C 938.429688 474.363281 934.070312 452.589844 923.964844 445.414062 C 913.832031 438.238281 870.753906 458.585938 876.722656 471.753906 C 882.714844 484.925781 928 547.324219 1009.746094 529.558594 C 1079.730469 514.332031 1086.578125 433.796875 1068.621094 399.75 C 1050.667969 365.679688 1014.761719 358.582031 1014.761719 358.582031 C 1014.761719 358.582031 1051.671875 303.761719 1027.726562 248.339844 C 1003.777344 192.921875 936.300781 195.78125 904.40625 224.082031 C 866.316406 257.898438 866.316406 292.121094 866.316406 292.121094 Z M 866.316406 292.121094 " fill-opacity="1" fill-rule="nonzero"/><path fill="#232c5b" d="M 534.34375 616.164062 C 529.652344 616.164062 524.886719 615.511719 520.324219 614.183594 C 506.308594 610.070312 497.054688 544.460938 485.769531 432.566406 C 483.488281 409.886719 481.683594 391.949219 480.40625 385.273438 C 480.378906 385.125 480.355469 385 480.328125 384.921875 C 476.417969 385.703125 463.78125 400.351562 454.476562 411.117188 C 436.949219 431.386719 418.84375 452.363281 407.285156 452.4375 C 387.375 452.585938 374.160156 441.199219 372.230469 439.417969 C 365.234375 435.226562 361.648438 430.9375 361.019531 425.917969 C 359.84375 416.609375 368.96875 406.953125 383.941406 391.972656 C 389.53125 386.378906 397.957031 377.621094 407.6875 367.511719 C 435.570312 338.535156 473.761719 298.871094 487.277344 289.835938 C 497.90625 282.761719 511.597656 281.660156 522.179688 287.078125 C 532.535156 292.371094 538.53125 302.984375 539.054688 316.984375 C 539.734375 334.820312 549.035156 413.648438 557.234375 483.222656 C 563.253906 534.300781 568.46875 578.433594 568.972656 587.664062 C 569.421875 595.96875 566.210938 603.09375 559.667969 608.289062 C 553.273438 613.429688 543.972656 616.164062 534.34375 616.164062 Z M 480.65625 379.855469 C 481.082031 379.855469 481.484375 379.90625 481.910156 380.007812 C 482.960938 380.28125 484.792969 381.210938 485.371094 384.320312 C 486.671875 391.222656 488.503906 409.234375 490.785156 432.039062 C 494.046875 464.480469 498.535156 508.886719 503.976562 544.839844 C 512.476562 600.8125 519.246094 608.589844 521.753906 609.34375 C 534.015625 612.953125 548.359375 610.898438 556.632812 604.347656 C 561.851562 600.210938 564.40625 594.539062 564.03125 587.941406 C 563.53125 578.859375 558.339844 534.804688 552.320312 483.796875 C 544.097656 414.152344 534.792969 335.199219 534.089844 317.160156 C 533.613281 305.066406 528.601562 295.960938 519.949219 291.519531 C 510.945312 286.925781 499.238281 287.90625 490.109375 293.976562 C 477.042969 302.683594 439.082031 342.148438 411.347656 370.949219 C 401.59375 381.085938 393.144531 389.867188 387.527344 395.484375 C 373.984375 409.035156 365.160156 418.441406 366.035156 425.242188 C 366.460938 428.601562 369.421875 431.863281 375.0625 435.175781 C 375.238281 435.277344 375.390625 435.402344 375.515625 435.527344 C 375.640625 435.652344 388.128906 447.34375 406.984375 447.34375 C 407.085938 447.34375 407.183594 447.34375 407.285156 447.34375 C 416.5625 447.292969 436.296875 424.4375 450.714844 407.753906 C 467.71875 388.109375 475.390625 379.855469 480.65625 379.855469 Z M 480.65625 379.855469 " fill-opacity="1" fill-rule="nonzero"/><g clip-path="url(#3320792f14)"><path fill="#000000" d="M 534.34375 617.421875 C 529.425781 617.421875 524.585938 616.742188 519.972656 615.363281 C 505.203125 611.023438 496.128906 547.800781 484.542969 432.667969 C 482.386719 411.242188 480.65625 394.082031 479.402344 386.65625 C 474.6875 389.617188 462.800781 403.363281 455.429688 411.894531 C 437.726562 432.390625 419.421875 453.566406 407.308594 453.667969 C 407.183594 453.667969 407.035156 453.667969 406.910156 453.667969 C 387.25 453.667969 374.1875 442.828125 371.503906 440.421875 C 364.207031 436.054688 360.496094 431.488281 359.792969 426.070312 C 358.539062 416.183594 367.816406 406.347656 383.0625 391.070312 C 388.703125 385.425781 397.503906 376.292969 406.808594 366.609375 C 434.742188 337.605469 472.984375 297.867188 486.597656 288.757812 C 497.605469 281.433594 511.800781 280.304688 522.78125 285.925781 C 533.539062 291.417969 539.785156 302.433594 540.335938 316.910156 C 541.011719 334.722656 550.316406 413.523438 558.515625 483.046875 L 558.539062 483.320312 C 564.558594 534.277344 569.75 578.308594 570.25 587.566406 C 570.726562 596.296875 567.367188 603.796875 560.46875 609.242188 C 553.976562 614.460938 544.449219 617.421875 534.34375 617.421875 Z M 481.234375 383.445312 L 481.558594 384.546875 C 481.582031 384.671875 481.632812 384.824219 481.683594 385.023438 C 482.960938 391.773438 484.769531 409.710938 487.050781 432.441406 C 496 521.40625 505.980469 608.640625 520.699219 612.980469 C 525.089844 614.257812 529.679688 614.910156 534.367188 614.910156 C 543.894531 614.910156 552.871094 612.152344 558.964844 607.308594 C 565.183594 602.390625 568.21875 595.617188 567.792969 587.742188 C 567.292969 578.558594 562.101562 534.578125 556.082031 483.671875 L 556.058594 483.398438 C 547.859375 413.824219 538.554688 334.972656 537.851562 317.058594 C 537.324219 303.535156 531.582031 293.300781 521.652344 288.230469 C 511.472656 283.039062 498.257812 284.09375 488.003906 290.917969 C 474.585938 299.847656 436.472656 339.488281 408.613281 368.414062 C 399.3125 378.101562 390.507812 387.230469 384.84375 392.902344 C 370.125 407.628906 361.171875 417.085938 362.273438 425.792969 C 362.851562 430.410156 366.238281 434.398438 372.882812 438.363281 L 373.082031 438.511719 C 374.511719 439.816406 387.5 451.207031 406.910156 451.207031 C 407.035156 451.207031 407.160156 451.207031 407.285156 451.207031 C 418.269531 451.132812 436.195312 430.382812 453.523438 410.3125 C 466.113281 395.738281 476.066406 384.523438 480.078125 383.71875 Z M 534.242188 612.378906 C 529.929688 612.378906 525.539062 611.800781 521.402344 610.570312 C 513.855469 608.363281 507.085938 573.714844 502.746094 545.066406 C 497.28125 509.011719 492.816406 464.605469 489.558594 432.191406 C 487.25 409.410156 485.445312 391.421875 484.140625 384.574219 C 483.714844 382.265625 482.511719 381.488281 481.582031 381.234375 C 481.28125 381.160156 480.980469 381.109375 480.65625 381.109375 C 475.941406 381.109375 467.816406 389.917969 451.667969 408.632812 C 436.273438 426.445312 417.140625 448.597656 407.308594 448.648438 L 407.007812 448.648438 C 387.703125 448.648438 374.8125 436.605469 374.6875 436.480469 C 374.613281 436.40625 374.535156 436.355469 374.460938 436.304688 C 368.46875 432.769531 365.308594 429.207031 364.832031 425.441406 C 363.878906 418.039062 372.457031 408.859375 386.671875 394.632812 C 392.367188 388.9375 401.167969 379.804688 410.46875 370.121094 C 438.226562 341.269531 476.242188 301.78125 489.433594 292.972656 C 498.9375 286.625 511.148438 285.621094 520.550781 290.441406 C 529.628906 295.082031 534.894531 304.566406 535.394531 317.132812 C 536.097656 335.121094 545.398438 414.050781 553.601562 483.671875 L 553.675781 484.226562 C 559.667969 534.980469 564.832031 578.785156 565.335938 587.867188 C 565.738281 594.890625 563.003906 600.9375 557.460938 605.328125 C 551.644531 609.917969 543.066406 612.378906 534.242188 612.378906 Z M 480.65625 378.601562 C 481.183594 378.601562 481.707031 378.675781 482.234375 378.800781 C 483.3125 379.078125 485.871094 380.183594 486.625 384.097656 C 487.953125 391.046875 489.757812 409.085938 492.066406 431.941406 C 495.324219 464.328125 499.789062 508.710938 505.253906 544.6875 C 514.105469 602.96875 520.875 607.785156 522.15625 608.164062 C 534.066406 611.675781 547.933594 609.691406 555.90625 603.371094 C 560.773438 599.507812 563.179688 594.1875 562.828125 588.015625 C 562.328125 579.007812 557.160156 535.230469 551.191406 484.527344 L 551.117188 483.972656 C 542.894531 414.300781 533.589844 335.324219 532.886719 317.234375 C 532.4375 305.59375 527.648438 296.886719 519.421875 292.671875 C 510.820312 288.28125 499.613281 289.210938 490.835938 295.054688 C 477.871094 303.710938 439.957031 343.101562 412.273438 371.851562 C 402.945312 381.535156 394.144531 390.695312 388.429688 396.414062 C 375.566406 409.308594 366.488281 418.894531 367.289062 425.140625 C 367.667969 428.101562 370.425781 431.035156 375.691406 434.171875 C 375.941406 434.324219 376.167969 434.5 376.367188 434.699219 C 376.492188 434.824219 388.730469 446.191406 406.984375 446.191406 L 407.285156 446.191406 C 415.988281 446.140625 436.324219 422.605469 449.761719 407.050781 C 467.566406 386.378906 474.839844 378.601562 480.65625 378.601562 Z M 480.65625 378.601562 " fill-opacity="1" fill-rule="nonzero"/></g><path fill="#232c5b" d="M 704.128906 586.738281 C 694.5 586.738281 686.699219 586.136719 681.886719 584.703125 C 669.722656 581.140625 660.21875 570.378906 655.15625 554.347656 C 649.914062 537.789062 650.589844 518.847656 656.683594 511.246094 C 665.585938 500.132812 745.402344 385.601562 736.699219 347.566406 C 735.621094 342.824219 733.214844 339.640625 729.378906 337.808594 C 721.203125 333.894531 714.308594 333.867188 708.890625 337.683594 C 696.878906 346.160156 692.894531 372.429688 695.175781 393.980469 C 695.625 398.222656 693.722656 400.703125 692.066406 402.035156 C 681.761719 410.3125 647.355469 399.125 643.445312 397.820312 C 642.691406 397.570312 642.089844 396.964844 641.839844 396.1875 C 637.175781 381.210938 628.953125 330.632812 651.695312 295.734375 C 665.011719 275.285156 686.601562 263.269531 715.8125 259.980469 C 750.191406 256.117188 776.144531 264.371094 792.96875 284.519531 C 816.214844 312.367188 814.859375 355.09375 808.289062 376.996094 C 802.75 395.511719 784.996094 427.75 769.347656 456.226562 C 755.332031 481.714844 740.8125 508.085938 741.339844 513.804688 C 744.074219 517.292969 772.832031 510.441406 790.011719 506.351562 C 819.425781 499.351562 837.753906 495.289062 843.519531 499.78125 C 847.382812 502.789062 849.867188 509.261719 850.84375 519.023438 C 852.398438 534.476562 849.714844 557.710938 843.898438 564.484375 C 836.675781 572.914062 749.789062 586.738281 704.128906 586.738281 Z M 717.96875 329.777344 C 722.15625 329.777344 726.695312 330.933594 731.558594 333.265625 C 736.800781 335.773438 740.160156 340.214844 741.589844 346.4375 C 751.621094 390.316406 661.523438 513.226562 660.597656 514.382812 C 656.15625 519.925781 654.828125 536.710938 659.945312 552.84375 C 662.578125 561.171875 669.097656 575.75 683.289062 579.886719 C 711.875 588.242188 833.390625 568.546875 840.085938 561.222656 C 844.023438 556.628906 847.535156 536.082031 845.851562 519.523438 C 845.050781 511.546875 843.070312 505.800781 840.4375 503.742188 C 836.273438 500.507812 810.195312 506.703125 791.164062 511.246094 C 762.277344 518.121094 744.296875 522.109375 738.480469 517.917969 C 737.226562 517.015625 736.5 515.761719 736.347656 514.257812 C 735.722656 507.355469 746.804688 486.785156 764.960938 453.792969 C 780.507812 425.542969 798.109375 393.53125 803.5 375.539062 C 809.769531 354.667969 811.097656 314.046875 789.132812 287.707031 C 773.460938 268.9375 749.011719 261.285156 716.390625 264.949219 C 688.730469 268.0625 668.394531 279.324219 655.933594 298.46875 C 634.820312 330.859375 641.765625 377.699219 646.304688 393.453125 C 660.171875 397.945312 682.964844 402.914062 688.957031 398.121094 C 689.660156 397.542969 690.4375 396.640625 690.210938 394.507812 C 687.851562 372.203125 691.789062 343.652344 706.007812 333.59375 C 709.59375 331.035156 713.605469 329.777344 717.96875 329.777344 Z M 717.96875 329.777344 " fill-opacity="1" fill-rule="nonzero"/><path fill="#000000" d="M 704.128906 587.992188 C 693.847656 587.992188 686.25 587.289062 681.535156 585.910156 C 668.945312 582.246094 659.167969 571.15625 653.976562 554.722656 C 648.636719 537.8125 649.386719 518.371094 655.707031 510.46875 C 664.558594 499.402344 744.074219 385.449219 735.472656 347.84375 C 734.46875 343.503906 732.3125 340.59375 728.851562 338.9375 C 721.128906 335.25 714.660156 335.171875 709.644531 338.710938 C 698.035156 346.914062 694.222656 372.65625 696.453125 393.832031 C 696.957031 398.621094 694.800781 401.457031 692.894531 402.988281 C 682.285156 411.492188 649.539062 401.15625 643.09375 398.972656 C 641.941406 398.597656 641.0625 397.667969 640.6875 396.539062 C 635.972656 381.410156 627.671875 330.332031 650.667969 295.03125 C 664.207031 274.257812 686.074219 262.039062 715.6875 258.703125 C 750.515625 254.789062 776.847656 263.195312 793.949219 283.667969 C 817.519531 311.890625 816.164062 355.144531 809.519531 377.320312 C 803.925781 395.964844 786.148438 428.277344 770.476562 456.804688 C 757.539062 480.3125 742.945312 506.855469 742.617188 513.203125 C 746.679688 515.386719 777.824219 507.957031 789.757812 505.125 C 820.425781 497.824219 838.078125 493.933594 844.324219 498.777344 C 848.484375 502.011719 851.09375 508.785156 852.121094 518.871094 C 853.753906 534.902344 850.992188 558.136719 844.875 565.285156 C 836.851562 574.644531 746.980469 587.992188 704.128906 587.992188 Z M 718.019531 333.566406 C 721.65625 333.566406 725.640625 334.597656 729.953125 336.652344 C 734.167969 338.660156 736.777344 342.148438 737.953125 347.265625 C 746.753906 385.777344 666.613281 500.859375 657.6875 512.023438 C 651.84375 519.347656 651.269531 537.765625 656.382812 553.972656 C 661.324219 569.578125 670.5 580.0625 682.261719 583.5 C 686.75 584.804688 694.121094 585.484375 704.152344 585.484375 C 752.472656 585.484375 836.550781 571.183594 842.96875 563.679688 C 848.484375 557.234375 851.144531 534.050781 849.640625 519.148438 C 848.6875 509.765625 846.378906 503.566406 842.792969 500.785156 C 837.203125 496.441406 815.488281 501.609375 790.335938 507.582031 C 760.046875 514.78125 743.121094 518.019531 740.386719 514.582031 L 740.160156 514.28125 L 740.136719 513.90625 C 739.609375 508.234375 750.941406 487.136719 768.296875 455.597656 C 783.917969 427.171875 801.644531 394.984375 807.136719 376.59375 C 813.632812 354.941406 814.960938 312.742188 792.042969 285.273438 C 775.515625 265.476562 749.941406 257.375 715.988281 261.1875 C 687.175781 264.421875 665.914062 276.265625 652.796875 296.386719 C 630.304688 330.882812 638.480469 380.960938 643.09375 395.789062 C 643.21875 396.164062 643.519531 396.464844 643.894531 396.589844 C 657.761719 401.230469 683.390625 407.402344 691.339844 401.003906 C 692.769531 399.851562 694.375 397.746094 693.972656 394.054688 C 691.664062 372.152344 695.800781 345.382812 708.214844 336.601562 C 711.097656 334.597656 714.382812 333.566406 718.019531 333.566406 Z M 704.453125 583.125 C 695.300781 583.125 687.804688 582.523438 682.964844 581.09375 C 668.21875 576.800781 661.472656 561.773438 658.765625 553.21875 C 653.375 536.160156 655.03125 519.375 659.644531 513.605469 C 660.570312 512.425781 750.265625 389.964844 740.386719 346.738281 C 739.058594 340.894531 735.898438 336.753906 731.035156 334.421875 C 721.578125 329.90625 713.378906 329.953125 706.761719 334.621094 C 692.945312 344.378906 689.15625 372.429688 691.488281 394.382812 C 691.714844 396.464844 691.136719 397.996094 689.757812 399.097656 C 682.914062 404.59375 658.089844 398.597656 645.925781 394.660156 L 645.300781 394.457031 L 645.125 393.804688 C 640.636719 378.175781 633.617188 330.429688 654.90625 297.789062 C 667.59375 278.347656 688.230469 266.882812 716.289062 263.71875 C 749.339844 260.007812 774.1875 267.808594 790.136719 286.925781 C 812.429688 313.648438 811.097656 354.792969 804.753906 375.917969 C 799.3125 394.054688 781.683594 426.121094 766.113281 454.417969 C 750.515625 482.792969 737.027344 507.28125 737.652344 514.15625 C 737.753906 515.285156 738.304688 516.210938 739.257812 516.914062 C 744.925781 520.980469 766.238281 515.910156 790.9375 510.039062 C 816.839844 503.871094 836.976562 499.429688 841.265625 502.789062 C 844.199219 505.074219 846.304688 510.996094 847.15625 519.425781 C 848.886719 536.558594 845.277344 557.183594 841.089844 562.050781 C 835.398438 568.222656 749.6875 583.125 704.453125 583.125 Z M 717.96875 328.523438 C 722.332031 328.523438 727.097656 329.730469 732.085938 332.136719 C 737.679688 334.820312 741.289062 339.539062 742.792969 346.160156 C 752.949219 390.570312 662.503906 514.003906 661.574219 515.160156 C 657.4375 520.351562 656.234375 536.9375 661.125 552.441406 C 663.679688 560.519531 670 574.695312 683.617188 578.660156 C 712.027344 586.9375 832.511719 567.59375 839.160156 560.34375 C 842.519531 556.429688 846.328125 536.585938 844.601562 519.625 C 843.847656 512.097656 841.992188 506.527344 839.660156 504.695312 C 835.972656 501.8125 808.113281 508.460938 791.488281 512.398438 C 761.347656 519.574219 744.023438 523.386719 737.726562 518.871094 C 736.171875 517.742188 735.246094 516.164062 735.09375 514.304688 C 734.445312 507.03125 745.050781 487.335938 763.855469 453.140625 C 779.355469 424.964844 796.929688 393.003906 802.296875 375.140625 C 808.492188 354.515625 809.820312 314.425781 788.15625 288.484375 C 772.785156 270.066406 748.6875 262.542969 716.515625 266.179688 C 689.257812 269.238281 669.222656 280.328125 656.960938 299.121094 C 636.472656 330.558594 642.894531 376.46875 647.304688 392.425781 C 663.605469 397.617188 683.265625 401.003906 688.15625 397.089844 C 688.628906 396.714844 689.105469 396.164062 688.957031 394.582031 C 686.574219 371.929688 690.660156 342.851562 705.28125 332.511719 C 709.09375 329.878906 713.355469 328.523438 717.96875 328.523438 Z M 717.96875 328.523438 " fill-opacity="1" fill-rule="nonzero"/><path fill="#232c5b" d="M 1004.757812 557.757812 C 941.039062 557.757812 904.203125 509.363281 897.835938 495.339844 C 896.230469 491.800781 896.230469 486.03125 905.355469 478.503906 C 916.492188 469.320312 940.160156 459.761719 948.8125 465.910156 C 951.644531 467.941406 953.953125 470.800781 956.585938 474.113281 C 963.832031 483.222656 973.789062 495.691406 1004.179688 499.078125 C 1016.589844 500.433594 1030.757812 488.464844 1036.476562 471.753906 C 1042.921875 452.914062 1036.476562 435.378906 1019.199219 424.789062 C 1006.386719 416.9375 996.378906 416.035156 988.355469 415.304688 C 977.726562 414.351562 969.324219 413.601562 964.8125 396.339844 C 960.171875 378.5 961.550781 375.96875 970.125 371.976562 C 973.964844 370.195312 979.203125 367.738281 985.875 361.066406 C 997.785156 349.148438 1016.765625 324.210938 1012.277344 306.421875 C 1010.324219 298.644531 1003.804688 293.050781 992.921875 289.789062 C 968.875 282.5625 954.730469 310.132812 945.378906 328.375 C 943.296875 332.4375 941.492188 335.976562 939.785156 338.734375 C 937.253906 342.851562 933.867188 345.160156 929.730469 345.585938 C 918.773438 346.714844 905.105469 334.722656 887.929688 316.382812 C 887.503906 315.90625 887.253906 315.304688 887.253906 314.675781 C 887.253906 313.21875 887.703125 278.925781 926.144531 244.777344 C 945.101562 227.96875 975.34375 220.542969 1001.394531 226.339844 C 1025.066406 231.605469 1043.546875 247.0625 1053.425781 269.917969 C 1074.441406 318.515625 1049.339844 367.160156 1042.09375 379.53125 C 1051.722656 382.265625 1079.027344 392.273438 1094.25 421.125 C 1104.554688 440.695312 1107.515625 476.574219 1093.222656 507.332031 C 1085.121094 524.742188 1068.222656 547.046875 1033.691406 554.574219 C 1023.511719 556.78125 1013.859375 557.757812 1004.757812 557.757812 Z M 941.214844 468.921875 C 932.863281 468.921875 917.695312 474.816406 908.542969 482.394531 C 906.109375 484.398438 900.667969 489.46875 902.398438 493.28125 C 909.34375 508.585938 954.355469 566.691406 1032.613281 549.65625 C 1065.136719 542.582031 1081.035156 521.582031 1088.65625 505.222656 C 1102.273438 475.945312 1099.539062 441.949219 1089.8125 423.484375 C 1072.660156 390.945312 1038.03125 383.667969 1037.679688 383.59375 C 1036.851562 383.417969 1036.175781 382.867188 1035.847656 382.089844 C 1035.523438 381.3125 1035.625 380.433594 1036.074219 379.730469 C 1036.425781 379.203125 1071.90625 325.363281 1048.8125 271.898438 C 1037.003906 244.578125 1015.914062 234.691406 1000.316406 231.230469 C 975.71875 225.761719 947.257812 232.734375 929.480469 248.515625 C 896.28125 277.996094 892.695312 308.050781 892.316406 313.722656 C 905.433594 327.671875 919.949219 341.519531 929.230469 340.59375 C 931.761719 340.339844 933.84375 338.859375 935.523438 336.125 C 937.128906 333.515625 938.882812 330.078125 940.9375 326.089844 C 951.070312 306.371094 966.339844 276.539062 994.398438 284.96875 C 1007.113281 288.785156 1014.761719 295.582031 1017.191406 305.191406 C 1021.90625 323.882812 1005.207031 348.871094 989.460938 364.628906 C 982.136719 371.953125 976.21875 374.710938 972.285156 376.542969 C 966.414062 379.277344 965.664062 379.628906 969.699219 395.109375 C 973.3125 408.957031 978.503906 409.433594 988.832031 410.363281 C 996.933594 411.089844 1008.039062 412.09375 1021.855469 420.550781 C 1041.265625 432.441406 1048.511719 452.210938 1041.242188 473.4375 C 1034.695312 492.578125 1018.546875 505.800781 1003.652344 504.121094 C 971.179688 500.507812 960.496094 487.085938 952.675781 477.300781 C 950.265625 474.265625 948.1875 471.65625 945.902344 470.050781 C 944.851562 469.273438 943.222656 468.921875 941.214844 468.921875 Z M 937.628906 337.429688 Z M 937.628906 337.429688 " fill-opacity="1" fill-rule="nonzero"/><path fill="#000000" d="M 1004.757812 559.015625 C 939.511719 559.015625 902.398438 508.386719 896.707031 495.867188 C 894.925781 491.925781 894.824219 485.578125 904.554688 477.527344 C 916.238281 467.867188 940.289062 458.308594 949.539062 464.882812 C 952.523438 467.015625 954.855469 469.925781 957.5625 473.335938 C 964.6875 482.292969 974.441406 494.511719 1004.328125 497.847656 C 1016.191406 499.175781 1029.757812 487.511719 1035.296875 471.378906 C 1041.542969 453.140625 1035.296875 436.128906 1018.546875 425.894531 C 1005.984375 418.191406 996.128906 417.3125 988.230469 416.585938 C 977.550781 415.632812 968.320312 414.804688 963.582031 396.664062 C 959.019531 379.203125 959.921875 375.339844 969.574219 370.847656 C 973.3125 369.09375 978.425781 366.710938 984.972656 360.1875 C 996.707031 348.445312 1015.386719 323.984375 1011.050781 306.722656 C 1009.21875 299.421875 1002.976562 294.101562 992.542969 290.96875 C 969.5 284.042969 955.632812 311.0625 946.480469 328.925781 C 944.347656 333.066406 942.542969 336.578125 940.839844 339.386719 C 938.082031 343.855469 934.394531 346.363281 929.832031 346.8125 C 918.445312 347.96875 904.429688 335.824219 887.003906 317.234375 C 886.351562 316.53125 885.972656 315.628906 885.972656 314.652344 C 885.972656 313.195312 886.425781 278.320312 925.292969 243.824219 C 944.523438 226.738281 975.21875 219.238281 1001.648438 225.109375 C 1025.71875 230.453125 1044.5 246.183594 1054.554688 269.414062 C 1074.96875 316.609375 1052.648438 363.472656 1043.949219 378.777344 C 1055.609375 382.339844 1080.757812 392.925781 1095.328125 420.550781 C 1105.785156 440.394531 1108.792969 476.75 1094.324219 507.859375 C 1086.101562 525.519531 1068.972656 548.175781 1033.945312 555.777344 C 1024.089844 557.933594 1014.285156 559.015625 1004.757812 559.015625 Z M 941.214844 465.207031 C 930.859375 465.207031 914.710938 472.40625 906.160156 479.484375 C 899.4375 485.027344 896.957031 490.347656 898.988281 494.835938 C 904.554688 507.082031 940.839844 556.503906 1004.757812 556.503906 C 1014.109375 556.503906 1023.738281 555.425781 1033.417969 553.320312 C 1067.445312 545.917969 1084.09375 523.941406 1092.066406 506.78125 C 1106.210938 476.398438 1103.300781 440.972656 1093.121094 421.679688 C 1078.328125 393.628906 1052.25 383.667969 1041.742188 380.710938 L 1040.1875 380.257812 L 1041.015625 378.851562 C 1048.863281 365.457031 1072.859375 318.011719 1052.273438 270.367188 C 1042.570312 247.914062 1024.390625 232.6875 1001.121094 227.519531 C 975.417969 221.796875 945.628906 229.097656 926.972656 245.683594 C 888.933594 279.453125 888.507812 313.21875 888.507812 314.652344 C 888.507812 314.976562 888.632812 315.277344 888.859375 315.503906 C 905.785156 333.566406 919.222656 345.382812 929.605469 344.304688 C 933.339844 343.929688 936.425781 341.820312 938.734375 338.058594 C 940.414062 335.347656 942.191406 331.863281 944.25 327.847656 C 953.828125 309.15625 968.269531 281.03125 993.320312 288.558594 C 1004.679688 291.96875 1011.476562 297.867188 1013.53125 306.09375 C 1018.144531 324.433594 998.914062 349.824219 986.800781 361.941406 C 979.957031 368.792969 974.617188 371.277344 970.703125 373.105469 C 963.054688 376.667969 961.425781 378.199219 966.066406 396.011719 C 970.351562 412.421875 977.949219 413.097656 988.507812 414.050781 C 996.65625 414.78125 1006.835938 415.707031 1019.902344 423.710938 C 1037.703125 434.625 1044.351562 452.738281 1037.703125 472.15625 C 1031.8125 489.367188 1017.09375 501.738281 1004.105469 500.304688 C 973.1875 496.871094 963.054688 484.148438 955.660156 474.890625 C 953.050781 471.628906 950.820312 468.820312 948.136719 466.914062 C 946.378906 465.734375 944 465.207031 941.214844 465.207031 Z M 1004.730469 553.996094 C 942.996094 553.996094 907.414062 507.332031 901.269531 493.785156 C 899.238281 489.34375 904.453125 484.125 907.738281 481.390625 C 916.765625 473.9375 932.085938 467.640625 941.214844 467.640625 C 943.570312 467.640625 945.402344 468.09375 946.632812 468.972656 C 949.039062 470.675781 951.167969 473.363281 953.652344 476.472656 C 961.324219 486.105469 971.832031 499.277344 1003.777344 502.816406 C 1018.070312 504.445312 1033.667969 491.601562 1040.035156 472.984375 C 1047.109375 452.363281 1040.035156 433.144531 1021.179688 421.578125 C 1007.613281 413.273438 996.679688 412.269531 988.707031 411.566406 C 978.125 410.613281 972.308594 410.085938 968.472656 395.386719 C 964.535156 380.28125 964.8125 378.601562 971.730469 375.390625 C 975.59375 373.582031 981.410156 370.875 988.558594 363.722656 C 1004.054688 348.21875 1020.527344 323.65625 1015.9375 305.492188 C 1013.632812 296.359375 1006.261719 289.835938 994 286.175781 C 966.941406 278.046875 951.945312 307.300781 942.015625 326.644531 C 939.960938 330.632812 938.207031 334.09375 936.550781 336.753906 C 934.644531 339.863281 932.261719 341.519531 929.304688 341.820312 C 919.472656 342.800781 904.554688 328.601562 891.363281 314.574219 L 890.988281 314.175781 L 891.015625 313.621094 C 891.414062 307.828125 895.074219 277.34375 928.601562 247.5625 C 946.679688 231.507812 975.59375 224.457031 1000.542969 229.976562 C 1016.441406 233.515625 1037.90625 243.550781 1049.917969 271.371094 C 1073.335938 325.5625 1037.429688 379.855469 1037.078125 380.40625 C 1036.851562 380.757812 1036.800781 381.1875 1036.953125 381.585938 C 1037.101562 381.988281 1037.453125 382.265625 1037.878906 382.339844 C 1038.230469 382.414062 1073.386719 389.691406 1090.863281 422.859375 C 1100.746094 441.597656 1103.550781 476.070312 1089.761719 505.726562 C 1082.039062 522.359375 1065.863281 543.683594 1032.839844 550.859375 C 1022.960938 553.042969 1013.582031 553.996094 1004.730469 553.996094 Z M 941.214844 470.175781 C 933.691406 470.175781 918.746094 475.59375 909.34375 483.347656 C 905.808594 486.28125 902.421875 490.269531 903.550781 492.753906 C 910.421875 507.859375 954.929688 565.285156 1032.363281 548.425781 C 1064.386719 541.476562 1080.03125 520.804688 1087.53125 504.671875 C 1100.96875 475.769531 1098.289062 442.226562 1088.707031 424.039062 C 1071.859375 392.074219 1037.78125 384.875 1037.429688 384.796875 C 1036.199219 384.546875 1035.171875 383.695312 1034.695312 382.539062 C 1034.21875 381.386719 1034.34375 380.058594 1035.046875 379.003906 C 1035.398438 378.476562 1070.527344 325.238281 1047.660156 272.375 C 1036.050781 245.53125 1015.363281 235.847656 1000.042969 232.433594 C 975.84375 227.066406 947.808594 233.890625 930.308594 249.445312 C 898.4375 277.71875 894.171875 306.472656 893.597656 313.246094 C 905.558594 325.941406 920.378906 340.191406 929.078125 339.3125 C 931.234375 339.085938 932.941406 337.859375 934.445312 335.425781 C 936.023438 332.839844 937.78125 329.429688 939.8125 325.488281 C 950.117188 305.394531 965.6875 275.011719 994.75 283.742188 C 1007.914062 287.707031 1015.863281 294.804688 1018.398438 304.867188 C 1023.238281 324.058594 1006.3125 349.523438 990.335938 365.480469 C 982.863281 372.957031 976.820312 375.765625 972.808594 377.648438 C 967.46875 380.15625 967.144531 380.308594 970.902344 394.757812 C 974.289062 407.753906 978.578125 408.128906 988.933594 409.058594 C 997.15625 409.785156 1008.441406 410.816406 1022.507812 419.445312 C 1042.46875 431.664062 1049.917969 451.984375 1042.445312 473.789062 C 1035.699219 493.484375 1018.949219 507.003906 1003.527344 505.300781 C 970.527344 501.636719 959.671875 487.988281 951.722656 478.003906 C 949.363281 475.042969 947.332031 472.507812 945.203125 471.003906 C 944.398438 470.476562 943.019531 470.175781 941.214844 470.175781 Z M 937.652344 338.683594 L 937.628906 336.175781 L 937.652344 336.175781 Z M 937.652344 338.683594 " fill-opacity="1" fill-rule="nonzero"/></svg>