<svg xmlns="http://www.w3.org/2000/svg" xmlns:xlink="http://www.w3.org/1999/xlink" width="1920" zoomAndPan="magnify" viewBox="0 0 1440 809.999993" height="1080" preserveAspectRatio="xMidYMid meet" version="1.0"><defs><clipPath id="710c0b67ba"><path d="M 919.539062 142 L 1246.539062 142 L 1246.539062 624 L 919.539062 624 Z M 919.539062 142 " clip-rule="nonzero"/></clipPath><clipPath id="a847609869"><path d="M 919.539062 334 L 1213 334 L 1213 397 L 919.539062 397 Z M 919.539062 334 " clip-rule="nonzero"/></clipPath></defs><g clip-path="url(#710c0b67ba)"><path fill="#3090d9" d="M 1246.523438 374.027344 L 1246.511719 374.671875 L 1246.472656 377.253906 C 1246.445312 378.972656 1246.421875 380.691406 1246.359375 382.414062 L 1246.207031 387.574219 L 1246 392.734375 C 1245.703125 399.613281 1245.277344 406.492188 1244.632812 413.375 C 1244.828125 415.96875 1244.988281 418.5625 1245.128906 421.15625 L 1245.226562 423.101562 C 1245.25 423.796875 1245.058594 424.5 1244.636719 425.167969 C 1244.21875 425.835938 1243.578125 426.46875 1242.742188 427.023438 C 1241.898438 427.574219 1240.871094 428.054688 1239.71875 428.425781 C 1238.566406 428.800781 1237.28125 429.074219 1235.945312 429.222656 L 1234.933594 429.316406 L 1233.910156 429.351562 C 1233.253906 429.367188 1232.664062 429.367188 1232.039062 429.378906 L 1224.625 429.441406 L 1209.796875 429.546875 L 1194.96875 429.625 L 1180.140625 429.664062 C 1170.257812 429.691406 1160.371094 429.671875 1150.484375 429.609375 L 1120.832031 429.320312 L 1106.003906 429.167969 L 1094.101562 429.097656 C 1096.332031 430.808594 1098.421875 432.695312 1100.335938 434.753906 L 1100.433594 434.6875 C 1100.433594 434.6875 1126.648438 464.277344 1133.707031 474.027344 C 1133.765625 474.113281 1133.820312 474.195312 1133.875 474.277344 C 1135.0625 475.859375 1136.164062 477.515625 1137.152344 479.257812 C 1146.785156 496.222656 1146.039062 517.769531 1138.464844 535.75 C 1137.085938 539.027344 1135.496094 542.199219 1133.738281 545.269531 L 1159.957031 576.128906 C 1160.976562 577.328125 1161.523438 578.867188 1161.476562 580.445312 C 1161.148438 591.328125 1160.496094 603.164062 1160.8125 614.195312 C 1160.90625 617.425781 1158.578125 620.199219 1155.386719 620.695312 C 1117.179688 626.621094 1078.230469 621.945312 1038.199219 619.871094 C 1036.441406 619.78125 1034.800781 618.976562 1033.660156 617.636719 L 1006.105469 583.277344 C 1005.429688 582.671875 1004.984375 581.8125 1004.957031 580.84375 C 1004.566406 567.464844 1006.179688 552.480469 1006.675781 538.75 C 1006.734375 537.15625 1007.886719 535.835938 1009.449219 535.511719 C 1020.203125 533.257812 1031.140625 527.09375 1040.722656 518.875 C 1035.945312 515.390625 1031.621094 512.21875 1029.4375 510.613281 C 1028.4375 509.882812 1027.53125 509.035156 1026.734375 508.085938 L 997.859375 473.859375 L 998.097656 473.691406 C 997.804688 473.109375 997.667969 472.453125 997.746094 471.785156 C 999.417969 457.03125 1010.878906 440.246094 1025.972656 429.367188 C 1018.050781 429.445312 1010.128906 429.527344 1002.207031 429.578125 C 992.324219 429.648438 982.4375 429.6875 972.554688 429.722656 L 968.847656 429.734375 L 966.992188 429.742188 C 966.832031 429.742188 966.695312 429.746094 966.515625 429.742188 L 965.972656 429.730469 C 965.609375 429.722656 965.246094 429.714844 964.886719 429.679688 C 961.984375 429.5 959.242188 428.738281 957.261719 427.613281 C 956.925781 427.421875 956.613281 427.214844 956.320312 427.007812 C 956.285156 426.992188 956.242188 426.988281 956.210938 426.96875 C 954.171875 425.714844 927.242188 399.359375 921.660156 393.890625 C 921.269531 393.574219 920.929688 393.242188 920.648438 392.898438 C 920.648438 392.898438 920.644531 392.894531 920.644531 392.894531 C 920.070312 392.1875 919.746094 391.421875 919.667969 390.65625 L 919.636719 390.367188 C 919.628906 390.273438 919.632812 390.199219 919.632812 390.117188 L 919.625 389.628906 L 919.613281 388.65625 L 919.585938 386.710938 C 919.542969 384.117188 919.542969 381.523438 919.539062 378.929688 L 919.539062 371.144531 C 919.605469 365.953125 919.621094 360.765625 919.734375 355.574219 L 919.886719 347.792969 L 919.988281 343.902344 L 920.042969 341.953125 C 920.054688 341.621094 920.046875 341.324219 920.082031 340.964844 C 920.105469 340.777344 920.117188 340.59375 920.15625 340.40625 L 920.328125 339.859375 C 920.921875 338.402344 922.488281 337.070312 924.699219 336.160156 C 926.898438 335.242188 929.730469 334.773438 932.472656 334.804688 L 947.300781 334.957031 C 952.242188 335.003906 957.183594 335.078125 962.128906 335.148438 C 967.070312 335.21875 972.011719 335.289062 976.957031 335.382812 C 990.0625 334.984375 1003.167969 334.808594 1016.273438 334.679688 L 1026.105469 334.601562 L 1035.933594 334.5625 C 1042.484375 334.535156 1049.039062 334.554688 1055.59375 334.617188 C 1060.183594 334.664062 1064.777344 334.734375 1069.371094 334.8125 C 1069.09375 334.75 1068.90625 334.695312 1068.824219 334.640625 C 1065.828125 332.75 1040.8125 307.191406 1038.667969 305 C 1038.570312 304.957031 1038.5 304.914062 1038.464844 304.867188 C 1038.394531 304.777344 1038.375 304.136719 1038.398438 303.027344 C 1038.222656 298.722656 1040.578125 267.542969 1041.53125 237.640625 L 1021.304688 219.769531 C 1020.886719 219.582031 1020.507812 219.300781 1020.21875 218.902344 C 1020.160156 218.820312 1020.105469 218.738281 1020.046875 218.660156 L 1019.800781 218.4375 L 1019.789062 218.296875 C 1012.636719 208.234375 1008.324219 199.578125 1002.136719 191.292969 C 1001.628906 190.613281 1001.488281 189.769531 1001.6875 189.003906 C 1001.449219 188.074219 1001.710938 187.058594 1002.453125 186.371094 C 1008.765625 180.535156 1029.890625 160.347656 1037.371094 144.910156 C 1037.761719 144.105469 1038.53125 143.546875 1039.421875 143.433594 C 1057.765625 141.035156 1072.714844 142.46875 1089.390625 142.609375 C 1090.179688 142.617188 1090.886719 142.96875 1091.375 143.519531 C 1094.148438 145.8125 1122.386719 169.308594 1122.414062 174.910156 C 1122.46875 185.292969 1122.480469 195.324219 1122.476562 205.144531 C 1122.476562 221.667969 1122.425781 237.585938 1122.421875 253.554688 C 1122.425781 278.609375 1122.558594 303.847656 1123.214844 331.851562 C 1123.214844 331.960938 1123.199219 332.066406 1123.191406 332.171875 C 1123.199219 332.515625 1123.207031 332.855469 1123.214844 333.199219 C 1123.230469 333.910156 1122.964844 334.566406 1122.523438 335.0625 L 1124.398438 335.039062 L 1134.230469 334.917969 C 1140.78125 334.828125 1147.335938 334.714844 1153.890625 334.648438 C 1160.441406 334.578125 1166.996094 334.539062 1173.546875 334.507812 L 1193.207031 334.402344 L 1198.121094 334.378906 L 1199.351562 334.378906 C 1199.785156 334.382812 1200.3125 334.398438 1200.789062 334.410156 C 1201.273438 334.449219 1201.765625 334.480469 1202.242188 334.535156 C 1202.714844 334.605469 1203.203125 334.648438 1203.660156 334.746094 C 1205.515625 335.082031 1207.226562 335.640625 1208.609375 336.367188 C 1209.238281 336.707031 1209.804688 337.078125 1210.292969 337.476562 L 1210.296875 337.484375 C 1210.625 337.753906 1210.917969 338.03125 1211.171875 338.320312 L 1243.953125 369.847656 C 1244.792969 370.429688 1245.460938 371.078125 1245.890625 371.777344 C 1246.054688 372.019531 1246.148438 372.273438 1246.273438 372.523438 C 1246.351562 372.777344 1246.429688 373.03125 1246.476562 373.285156 L 1246.507812 373.671875 C 1246.519531 373.796875 1246.527344 373.929688 1246.523438 374.027344 Z M 1246.523438 374.027344 " fill-opacity="1" fill-rule="nonzero"/></g><path fill="#f4b85b" d="M 1002.453125 187.714844 C 1008.761719 181.882812 1029.886719 161.691406 1037.367188 146.253906 C 1037.757812 145.449219 1038.53125 144.890625 1039.417969 144.777344 C 1057.765625 142.378906 1072.714844 143.8125 1089.390625 143.953125 C 1090.804688 143.964844 1091.976562 145.066406 1092.058594 146.480469 C 1095.21875 201.578125 1091.535156 246.921875 1092.855469 303.421875 C 1092.890625 304.824219 1091.84375 306.019531 1090.449219 306.160156 C 1072.054688 308.019531 1039.515625 306.203125 1038.464844 304.867188 C 1037.710938 303.90625 1042.738281 243.421875 1041.796875 207.425781 C 1041.734375 204.9375 1038.597656 203.875 1037.035156 205.816406 C 1033.09375 210.722656 1028.429688 215.828125 1024.113281 219.390625 C 1022.914062 220.378906 1021.125 220.164062 1020.21875 218.898438 C 1012.800781 208.578125 1008.445312 199.742188 1002.132812 191.289062 C 1001.3125 190.1875 1001.445312 188.648438 1002.453125 187.714844 Z M 1002.453125 187.714844 " fill-opacity="1" fill-rule="nonzero"/><path fill="#ffd7cd" d="M 999.132812 474.925781 C 998.144531 474.199219 997.609375 473.003906 997.746094 471.785156 C 1000.226562 449.90625 1024.234375 423.53125 1049.699219 418.628906 C 1071.5625 414.421875 1095.796875 424.164062 1106.792969 443.527344 C 1116.429688 460.496094 1115.683594 482.042969 1108.109375 500.023438 C 1101.753906 515.117188 1091.082031 527.964844 1078.839844 538.945312 C 1076.476562 541.070312 1077.976562 544.984375 1081.152344 544.960938 C 1097.691406 544.828125 1105.703125 544.796875 1127.289062 542.660156 C 1129.359375 542.457031 1131.140625 544.113281 1131.074219 546.191406 C 1130.710938 557.507812 1130.0625 569.753906 1130.546875 581.003906 C 1130.625 582.742188 1129.386719 584.253906 1127.671875 584.542969 C 1088.738281 591.089844 1049.042969 586.296875 1008.222656 584.164062 C 1006.4375 584.070312 1005.011719 582.632812 1004.957031 580.84375 C 1004.570312 567.464844 1006.179688 552.484375 1006.675781 538.75 C 1006.734375 537.15625 1007.890625 535.839844 1009.449219 535.511719 C 1034.816406 530.199219 1061.214844 503.15625 1068.429688 478.640625 C 1069.988281 473.351562 1070.597656 466.828125 1066.554688 463.078125 C 1062.71875 459.523438 1056.574219 460.320312 1051.75 462.332031 C 1040.105469 467.1875 1031.292969 478.136719 1028.679688 490.441406 C 1028.164062 492.867188 1025.335938 493.972656 1023.316406 492.527344 C 1015.308594 486.789062 1003.367188 478.035156 999.132812 474.925781 Z M 999.132812 474.925781 " fill-opacity="1" fill-rule="nonzero"/><g clip-path="url(#a847609869)"><path fill="#8eddbe" d="M 1199.351562 334.375 C 1199.785156 334.378906 1200.3125 334.394531 1200.789062 334.410156 C 1201.273438 334.445312 1201.761719 334.476562 1202.242188 334.53125 C 1202.714844 334.601562 1203.203125 334.644531 1203.660156 334.742188 C 1205.515625 335.078125 1207.222656 335.636719 1208.609375 336.363281 C 1209.976562 337.097656 1211.050781 337.996094 1211.660156 338.976562 C 1211.824219 339.21875 1211.914062 339.472656 1212.039062 339.722656 C 1212.121094 339.976562 1212.199219 340.230469 1212.246094 340.488281 L 1212.277344 340.871094 C 1212.289062 341 1212.300781 341.132812 1212.292969 341.230469 L 1212.285156 341.878906 L 1212.242188 344.457031 C 1212.214844 346.175781 1212.191406 347.898438 1212.132812 349.617188 L 1211.976562 354.777344 L 1211.769531 359.9375 C 1211.476562 366.816406 1211.050781 373.699219 1210.40625 380.578125 C 1210.597656 383.171875 1210.761719 385.765625 1210.902344 388.363281 L 1211 390.308594 C 1211.019531 391 1210.828125 391.707031 1210.410156 392.371094 C 1209.992188 393.039062 1209.347656 393.671875 1208.511719 394.226562 C 1207.671875 394.78125 1206.644531 395.257812 1205.488281 395.632812 C 1204.335938 396.007812 1203.054688 396.277344 1201.71875 396.429688 L 1200.707031 396.519531 L 1199.683594 396.558594 C 1199.027344 396.574219 1198.4375 396.574219 1197.808594 396.582031 L 1190.394531 396.644531 L 1175.570312 396.753906 L 1160.742188 396.832031 L 1145.914062 396.867188 C 1136.027344 396.898438 1126.140625 396.875 1116.257812 396.8125 L 1086.601562 396.527344 L 1071.773438 396.375 L 1056.945312 396.285156 C 1047.0625 396.253906 1037.175781 396.253906 1027.289062 396.300781 L 1019.875 396.332031 L 1012.464844 396.394531 L 997.636719 396.515625 C 987.75 396.605469 977.867188 396.71875 967.980469 396.78125 C 958.09375 396.855469 948.210938 396.890625 938.324219 396.925781 L 934.617188 396.941406 L 932.765625 396.945312 C 932.605469 396.945312 932.46875 396.949219 932.289062 396.945312 L 931.742188 396.933594 C 931.378906 396.925781 931.015625 396.917969 930.65625 396.886719 C 927.753906 396.703125 925.015625 395.941406 923.035156 394.816406 C 922.039062 394.253906 921.226562 393.601562 920.648438 392.894531 C 920.070312 392.1875 919.746094 391.421875 919.667969 390.65625 L 919.640625 390.367188 C 919.632812 390.273438 919.636719 390.199219 919.632812 390.117188 L 919.625 389.628906 L 919.589844 386.710938 C 919.542969 384.117188 919.542969 381.523438 919.542969 378.925781 L 919.539062 371.144531 C 919.605469 365.953125 919.621094 360.765625 919.734375 355.574219 L 919.886719 347.792969 L 919.988281 343.902344 L 920.042969 341.953125 C 920.054688 341.621094 920.046875 341.324219 920.082031 340.964844 C 920.105469 340.777344 920.117188 340.59375 920.15625 340.40625 L 920.328125 339.859375 C 920.921875 338.402344 922.488281 337.070312 924.699219 336.160156 C 926.898438 335.242188 929.730469 334.773438 932.472656 334.804688 L 947.300781 334.957031 C 952.242188 335.003906 957.183594 335.078125 962.128906 335.148438 C 967.070312 335.21875 972.011719 335.289062 976.957031 335.382812 C 990.0625 334.984375 1003.167969 334.808594 1016.273438 334.679688 L 1026.105469 334.601562 L 1035.933594 334.5625 C 1042.488281 334.535156 1049.039062 334.554688 1055.59375 334.617188 C 1068.699219 334.746094 1081.804688 335.082031 1094.910156 335.148438 C 1101.464844 335.179688 1108.019531 335.175781 1114.570312 335.132812 L 1119.484375 335.097656 L 1124.402344 335.039062 L 1134.230469 334.914062 C 1140.785156 334.828125 1147.335938 334.714844 1153.890625 334.648438 C 1160.441406 334.578125 1166.996094 334.539062 1173.550781 334.503906 L 1193.207031 334.398438 L 1198.125 334.378906 Z M 1199.351562 334.375 " fill-opacity="1" fill-rule="nonzero"/></g><path fill="#febf00" d="M 377.425781 409 C 377.792969 406.414062 382.59375 403.042969 385.179688 403.089844 C 444.078125 404.21875 544.800781 403.617188 563.226562 404.175781 C 564.523438 404.214844 565.539062 405.265625 565.515625 406.570312 C 565.214844 421.351562 562.140625 442.910156 557.578125 455.886719 C 544.289062 492.429688 526.203125 527.132812 497.035156 554.082031 C 485.472656 564.773438 472.320312 574.363281 458.402344 582.105469 C 445.261719 589.417969 429.242188 597.859375 414.179688 599.941406 C 404.550781 601.269531 392.027344 603.636719 386.039062 601.46875 C 384.648438 592.558594 384.753906 594.921875 384.441406 591 C 380.75 544.484375 375.582031 423.027344 377.425781 409 Z M 405.851562 298.988281 C 396.992188 305.632812 388.5 313.382812 379.640625 320.765625 C 377.792969 322.617188 374.84375 323.722656 372.625 325.566406 C 371.519531 322.246094 370.042969 319.292969 369.675781 316.339844 C 369.300781 306.371094 369.675781 296.40625 369.675781 286.804688 C 374.101562 277.578125 377.058594 269.824219 382.59375 266.871094 C 399.578125 257.273438 417.296875 248.410156 435.382812 241.03125 C 440.554688 238.816406 449.78125 239.550781 454.214844 242.875 C 476.363281 259.855469 497.40625 277.945312 519.1875 295.664062 C 527.308594 302.679688 526.570312 308.585938 518.820312 314.863281 C 514.386719 318.183594 510.328125 321.507812 505.894531 324.089844 C 488.546875 332.949219 479.683594 348.085938 473.042969 365.4375 C 472.300781 368.019531 472.300781 370.605469 471.933594 373.5625 C 475.992188 372.082031 483.378906 371.34375 483.746094 369.871094 C 486.328125 342.179688 514.015625 337.382812 528.414062 320.765625 C 529.523438 319.292969 536.167969 321.875 539.121094 324.089844 C 540.230469 324.460938 539.492188 330.734375 537.644531 332.582031 C 533.214844 337.011719 526.9375 339.964844 522.507812 344.394531 C 514.386719 352.886719 502.945312 361.378906 499.988281 371.714844 C 494.453125 390.914062 481.53125 388.328125 468.242188 388.328125 C 449.414062 387.957031 430.585938 389.0625 412.128906 387.957031 C 399.578125 387.214844 384.441406 394.605469 375.949219 377.988281 C 368.199219 362.113281 373.734375 338.117188 387.394531 328.152344 C 395.886719 321.507812 403.636719 314.492188 411.757812 307.109375 C 413.605469 305.265625 414.710938 302.3125 415.820312 299.730469 C 412.496094 299.355469 408.070312 297.507812 405.851562 298.988281 Z M 367.832031 598.75 C 367.179688 605.179688 303.429688 588.863281 280.257812 577.386719 C 255.191406 564.964844 230.53125 544.6875 218.371094 519.175781 C 190.042969 459.746094 187.785156 388.667969 210.902344 327.160156 C 220.652344 301.21875 235.035156 275.875 256.808594 258.175781 C 270.800781 246.804688 287.625 239.582031 304.957031 235.039062 C 313.695312 232.75 322.59375 231.128906 331.542969 229.941406 C 336.925781 229.21875 349.441406 225.625 354.121094 229.527344 C 356.441406 231.460938 364.15625 496.46875 366.375 553.464844 C 366.945312 568.136719 369.316406 584.089844 367.832031 598.75 Z M 384.070312 226.246094 C 394 226.574219 403.878906 228.316406 413.320312 231.414062 C 413.871094 231.59375 414.539062 231.9375 414.5 232.519531 C 414.46875 232.960938 414.042969 233.246094 413.65625 233.460938 C 408.40625 236.4375 403.148438 239.417969 397.894531 242.394531 C 393.394531 244.941406 390.625 247.859375 386.652344 250.996094 C 382.964844 253.949219 378.167969 255.425781 373.734375 257.640625 C 373.734375 249.878906 372.835938 242.164062 372.917969 234.425781 C 372.945312 231.585938 373.828125 228.421875 376.308594 227.042969 C 377.757812 226.238281 379.492188 226.1875 381.144531 226.195312 C 382.121094 226.199219 383.097656 226.21875 384.070312 226.246094 Z M 553.890625 341.441406 C 552.410156 344.394531 551.675781 348.085938 549.457031 350.300781 C 541.339844 358.054688 532.476562 365.070312 523.988281 372.453125 C 522.507812 373.929688 522.140625 376.511719 521.03125 378.730469 C 523.617188 379.46875 527.679688 381.679688 528.789062 380.574219 C 536.539062 374.664062 544.289062 368.394531 550.195312 361.007812 C 557.578125 352.144531 560.164062 355.46875 561.640625 364.328125 C 569.761719 389.804688 568.65625 392.019531 545.765625 392.019531 C 540.964844 392.019531 535.800781 392.386719 531 391.648438 C 521.773438 390.539062 512.910156 389.0625 503.679688 387.214844 C 508.847656 377.621094 512.910156 366.914062 519.921875 358.425781 C 526.203125 351.410156 535.429688 346.609375 543.921875 341.441406 C 546.507812 340.335938 550.566406 341.441406 553.890625 341.441406 Z M 403.71875 616.769531 C 427.296875 613.839844 450.222656 606.398438 471.195312 593.582031 C 539.640625 551.753906 592.722656 464.222656 581.058594 381.753906 C 572.855469 323.738281 524.425781 270.949219 476.734375 240.292969 C 396.007812 188.394531 263.683594 202.835938 211.9375 287.996094 C 187.664062 327.941406 175.539062 380.570312 179.898438 427.113281 C 182.585938 455.800781 186.898438 485.15625 197.335938 512.152344 C 227.789062 590.925781 324.363281 626.625 403.71875 616.769531 " fill-opacity="1" fill-rule="nonzero"/><path fill="#febf00" d="M 616.609375 256.816406 C 612.523438 254.066406 604.425781 256.195312 602.984375 260.605469 C 596.25 281.199219 590.785156 298.980469 590.804688 319.210938 C 590.8125 324.84375 595.851562 329.097656 601.425781 328.296875 C 607.308594 327.457031 614.601562 327.402344 618.851562 327.464844 C 620.65625 327.492188 621.949219 329.179688 621.5 330.925781 C 618.304688 343.328125 608.320312 385.703125 621.019531 385.007812 C 627.945312 384.632812 629.488281 371.453125 631.109375 366.332031 C 636.640625 348.863281 653.933594 278.683594 657.253906 260.960938 C 659.242188 254 645.71875 251.828125 643.222656 257.652344 C 639.902344 265.402344 637.480469 278.054688 635.679688 286.148438 C 628.296875 319.371094 634.777344 308.75 617.222656 311.988281 C 615.007812 312.402344 613.128906 312.554688 611.105469 312.769531 C 609.386719 312.957031 608.0625 311.3125 608.566406 309.65625 C 611.03125 301.578125 620.613281 262.59375 618.207031 258.496094 C 617.804688 257.808594 617.257812 257.253906 616.609375 256.816406 " fill-opacity="1" fill-rule="nonzero"/><path fill="#febf00" d="M 655.902344 105.734375 C 655.773438 100.558594 648.789062 98.851562 646.476562 103.484375 C 639.464844 117.507812 636.882812 135.148438 611.242188 151.949219 C 606.910156 154.789062 597.785156 159.34375 601.464844 164.78125 C 606.144531 171.707031 623.679688 160.632812 628.296875 156.941406 C 628.664062 159.523438 614.242188 208.835938 614.996094 210.230469 C 615.664062 211.464844 630.242188 212.21875 632.636719 207.042969 C 635.070312 201.78125 653.398438 120.898438 654.988281 114.164062 C 655.636719 111.421875 655.972656 108.5625 655.902344 105.734375 " fill-opacity="1" fill-rule="nonzero"/><path fill="#febf00" d="M 673.59375 225.734375 C 668.050781 224.847656 580.859375 226.152344 559.058594 227 C 556.597656 227.097656 546.285156 229.164062 544.824219 231.410156 C 541.207031 236.980469 549.644531 238.992188 553.53125 239.152344 C 574.84375 240.011719 651.117188 242.105469 667.511719 238.34375 C 671.300781 237.46875 682.070312 234.609375 679.46875 229.027344 C 678.59375 227.136719 676.359375 226.179688 673.59375 225.734375 " fill-opacity="1" fill-rule="nonzero"/><path fill="#febf00" d="M 402.160156 361.746094 C 398.835938 365.070312 398.46875 371.714844 396.992188 376.882812 C 401.792969 375.035156 407.328125 373.929688 410.652344 370.605469 C 427.632812 354.730469 443.875 338.117188 461.226562 320.765625 C 467.871094 313.757812 474.519531 307.847656 480.054688 301.574219 C 481.902344 299.355469 481.902344 295.664062 483.007812 292.710938 C 480.425781 293.820312 477.101562 293.820312 475.257812 295.664062 C 450.890625 317.449219 426.15625 339.226562 402.160156 361.746094 " fill-opacity="1" fill-rule="nonzero"/><path fill="#febf00" d="M 425.417969 280.160156 C 427.265625 281.636719 441.664062 268.71875 449.414062 261.703125 C 451.257812 260.59375 450.890625 256.902344 451.632812 254.320312 C 448.675781 254.320312 445.722656 253.582031 442.765625 254.320312 C 432.0625 257.273438 426.15625 278.683594 410.28125 262.808594 C 409.914062 262.4375 406.59375 265.394531 404.746094 266.503906 C 400.3125 269.453125 396.253906 272.40625 391.085938 276.46875 C 387.394531 280.160156 384.070312 282.378906 382.226562 285.328125 C 380.011719 289.019531 378.902344 293.449219 377.058594 297.878906 C 380.75 296.40625 384.808594 295.296875 388.5 293.449219 C 391.453125 292.34375 394.410156 290.128906 397.363281 288.652344 C 405.851562 283.851562 410.28125 267.609375 425.417969 280.160156 " fill-opacity="1" fill-rule="nonzero"/><path fill="#febf00" d="M 425.417969 308.585938 C 427.632812 310.433594 433.539062 307.480469 439.078125 306 C 450.523438 297.144531 461.597656 289.390625 472.300781 280.898438 C 475.257812 278.683594 477.46875 274.621094 480.054688 271.300781 C 475.257812 271.300781 469.71875 269.453125 466.394531 271.667969 C 454.582031 278.683594 442.398438 286.066406 432.0625 295.296875 C 429.480469 297.878906 412.863281 297.878906 425.417969 308.585938 " fill-opacity="1" fill-rule="nonzero"/><path fill="#febf00" d="M 469.351562 338.117188 C 481.53125 328.890625 493.34375 319.660156 505.160156 309.695312 C 508.113281 307.109375 509.589844 303.046875 511.804688 299.730469 C 507.003906 300.832031 500.730469 300.832031 497.035156 303.789062 C 486.703125 311.539062 477.46875 320.398438 466.394531 330 C 466.765625 333.324219 468.242188 335.90625 469.351562 338.117188 " fill-opacity="1" fill-rule="nonzero"/><path fill="#febf00" d="M 382.226562 358.054688 C 384.070312 357.6875 386.652344 357.6875 388.132812 356.578125 C 398.101562 348.085938 407.695312 339.59375 417.664062 329.257812 C 417.296875 325.566406 416.929688 324.089844 416.558594 322.246094 C 404.746094 332.214844 393.300781 341.8125 382.226562 352.144531 C 381.117188 352.886719 381.859375 356.210938 382.226562 358.054688 " fill-opacity="1" fill-rule="nonzero"/><path fill="#febf00" d="M 432.800781 375.40625 C 438.339844 374.296875 446.089844 375.035156 449.78125 371.714844 C 455.320312 367.285156 457.902344 359.53125 461.964844 351.410156 C 454.949219 353.992188 447.566406 357.6875 441.664062 362.855469 C 437.597656 366.175781 435.382812 371.34375 432.800781 375.40625 " fill-opacity="1" fill-rule="nonzero"/></svg>